<svg width="490" height="268" viewBox="0 0 490 268" fill="none" xmlns="http://www.w3.org/2000/svg">
<g style="mix-blend-mode:multiply">
<path d="M207.652 150.329H244.117L244.784 152.505H209.007L207.652 150.329Z" fill="#DDE2F8"/>
</g>
<path d="M400.754 237.491C400.754 235.084 383.859 233.146 363.021 233.146C342.182 233.146 325.287 235.091 325.287 237.491C325.287 239.89 342.179 241.839 363.021 241.839C383.862 241.839 400.754 239.893 400.754 237.491ZM120.969 249.945C120.969 247.116 95.394 244.823 63.8481 244.823C32.3021 244.823 6.7168 247.116 6.7168 249.945C6.7168 252.774 32.2884 255.066 63.8343 255.066C95.3802 255.066 120.969 252.774 120.969 249.945ZM486.764 255.902C486.764 253.496 469.868 251.557 449.03 251.557C428.192 251.557 411.311 253.502 411.311 255.902C411.311 258.301 428.202 260.247 449.044 260.247C469.886 260.247 486.764 258.305 486.764 255.902Z" fill="#F2F2F2"/>
<path d="M317.608 187.983C329.876 183.717 332.121 171.776 325.143 158.163C314.841 164.227 307.711 177.802 317.608 187.983Z" fill="#DDE2F8"/>
<path d="M183.325 147.215V239.825C183.325 242.743 188.825 245.111 195.611 245.111H307.965C309.21 245.109 310.403 244.612 311.282 243.731C312.161 242.85 312.654 241.657 312.654 240.412V157.204C312.654 155.958 312.159 154.762 311.278 153.88C310.397 152.998 309.202 152.503 307.955 152.502H195.611C188.825 152.502 183.325 150.137 183.325 147.215Z" fill="#ED3900"/>
<path d="M183.325 147.215C183.325 150.137 188.825 152.502 195.611 152.502H302.95V146.627C302.95 145.38 302.455 144.185 301.574 143.303C300.693 142.421 299.498 141.925 298.251 141.924H195.611C188.825 141.924 183.325 144.293 183.325 147.215Z" fill="#C93000"/>
<path d="M294.92 148.153H195.604C191.527 148.153 187.914 149.013 185.68 150.326C187.911 151.646 191.523 152.502 195.604 152.502H299.592C299.503 151.322 298.973 150.219 298.107 149.413C297.241 148.607 296.103 148.157 294.92 148.153Z" fill="#ED3900"/>
<path d="M312.654 177.654V185.285C315.748 185.285 318.271 184.03 318.271 182.48C318.271 180.93 315.765 179.534 312.654 177.654Z" fill="#9B2500"/>
<path d="M312.654 185.285H291.929C288.101 185.344 284.45 186.906 281.763 189.634C279.077 192.362 277.571 196.037 277.571 199.865C277.571 203.694 279.077 207.369 281.763 210.097C284.45 212.825 288.101 214.387 291.929 214.445H312.654C315.748 214.445 318.271 213.187 318.271 211.637V182.48C318.281 184.03 315.765 185.285 312.654 185.285Z" fill="#C93000"/>
<g style="mix-blend-mode:multiply">
<path d="M286.01 201.277C286.01 199.826 286.44 198.409 287.245 197.203C288.051 195.997 289.196 195.057 290.536 194.502C291.876 193.948 293.35 193.802 294.772 194.085C296.195 194.368 297.501 195.066 298.527 196.092C299.552 197.117 300.25 198.424 300.533 199.846C300.816 201.268 300.671 202.743 300.116 204.082C299.561 205.422 298.621 206.567 297.415 207.373C296.21 208.179 294.792 208.609 293.342 208.609C292.379 208.609 291.426 208.419 290.536 208.051C289.646 207.682 288.838 207.142 288.157 206.461C287.476 205.78 286.936 204.972 286.568 204.082C286.199 203.193 286.01 202.239 286.01 201.277Z" fill="#C4CAE9"/>
</g>
<path d="M284.598 199.867C284.597 198.417 285.026 196.999 285.832 195.792C286.637 194.586 287.782 193.646 289.122 193.09C290.461 192.535 291.936 192.389 293.358 192.672C294.781 192.954 296.088 193.652 297.113 194.678C298.139 195.703 298.838 197.009 299.121 198.432C299.404 199.854 299.259 201.329 298.704 202.669C298.149 204.009 297.21 205.154 296.004 205.96C294.798 206.766 293.38 207.196 291.93 207.196C289.986 207.195 288.122 206.422 286.747 205.048C285.373 203.674 284.599 201.811 284.598 199.867Z" fill="white"/>
<path d="M286.546 198.657C285.966 198.072 286.43 196.67 287.578 195.518C288.726 194.367 290.135 193.903 290.716 194.487C291.297 195.071 289.95 195.591 288.801 196.742C287.653 197.894 287.131 199.238 286.546 198.657Z" fill="#F2F2F2"/>
<path d="M305.012 162.611H299.591C299.24 162.611 298.904 162.472 298.656 162.224C298.407 161.975 298.268 161.639 298.268 161.288C298.268 160.937 298.407 160.6 298.656 160.352C298.904 160.104 299.24 159.964 299.591 159.964H305.012C305.363 159.964 305.7 160.104 305.948 160.352C306.196 160.6 306.336 160.937 306.336 161.288C306.336 161.639 306.196 161.975 305.948 162.224C305.7 162.472 305.363 162.611 305.012 162.611ZM291.455 162.611H286.034C285.683 162.611 285.346 162.472 285.098 162.224C284.85 161.975 284.71 161.639 284.71 161.288C284.71 160.937 284.85 160.6 285.098 160.352C285.346 160.104 285.683 159.964 286.034 159.964H291.455C291.806 159.964 292.142 160.104 292.391 160.352C292.639 160.6 292.778 160.937 292.778 161.288C292.778 161.639 292.639 161.975 292.391 162.224C292.142 162.472 291.806 162.611 291.455 162.611ZM277.901 162.611H272.476C272.125 162.611 271.789 162.472 271.541 162.224C271.292 161.975 271.153 161.639 271.153 161.288C271.153 160.937 271.292 160.6 271.541 160.352C271.789 160.104 272.125 159.964 272.476 159.964H277.901C278.252 159.964 278.588 160.104 278.837 160.352C279.085 160.6 279.224 160.937 279.224 161.288C279.224 161.639 279.085 161.975 278.837 162.224C278.588 162.472 278.252 162.611 277.901 162.611ZM264.343 162.611H258.919C258.568 162.611 258.231 162.472 257.983 162.224C257.735 161.975 257.595 161.639 257.595 161.288C257.595 160.937 257.735 160.6 257.983 160.352C258.231 160.104 258.568 159.964 258.919 159.964H264.343C264.694 159.964 265.031 160.104 265.279 160.352C265.527 160.6 265.667 160.937 265.667 161.288C265.667 161.639 265.527 161.975 265.279 162.224C265.031 162.472 264.694 162.611 264.343 162.611ZM250.786 162.611H245.361C245.01 162.611 244.674 162.472 244.426 162.224C244.177 161.975 244.038 161.639 244.038 161.288C244.038 160.937 244.177 160.6 244.426 160.352C244.674 160.104 245.01 159.964 245.361 159.964H250.779C251.13 159.964 251.467 160.104 251.715 160.352C251.963 160.6 252.102 160.937 252.102 161.288C252.102 161.639 251.963 161.975 251.715 162.224C251.467 162.472 251.13 162.611 250.779 162.611H250.786ZM237.228 162.611H231.807C231.456 162.611 231.12 162.472 230.872 162.224C230.623 161.975 230.484 161.639 230.484 161.288C230.484 160.937 230.623 160.6 230.872 160.352C231.12 160.104 231.456 159.964 231.807 159.964H237.228C237.579 159.964 237.916 160.104 238.164 160.352C238.412 160.6 238.552 160.937 238.552 161.288C238.552 161.639 238.412 161.975 238.164 162.224C237.916 162.472 237.579 162.611 237.228 162.611ZM223.671 162.611H218.25C217.899 162.611 217.562 162.472 217.314 162.224C217.066 161.975 216.926 161.639 216.926 161.288C216.926 160.937 217.066 160.6 217.314 160.352C217.562 160.104 217.899 159.964 218.25 159.964H223.671C224.022 159.964 224.358 160.104 224.607 160.352C224.855 160.6 224.994 160.937 224.994 161.288C224.994 161.639 224.855 161.975 224.607 162.224C224.358 162.472 224.022 162.611 223.671 162.611ZM210.113 162.611H204.692C204.341 162.611 204.005 162.472 203.757 162.224C203.508 161.975 203.369 161.639 203.369 161.288C203.369 160.937 203.508 160.6 203.757 160.352C204.005 160.104 204.341 159.964 204.692 159.964H210.113C210.464 159.964 210.801 160.104 211.049 160.352C211.297 160.6 211.437 160.937 211.437 161.288C211.437 161.639 211.297 161.975 211.049 162.224C210.801 162.472 210.464 162.611 210.113 162.611ZM196.559 162.611H195.968C195.617 162.611 195.28 162.472 195.032 162.224C194.784 161.975 194.645 161.639 194.645 161.288C194.645 160.937 194.784 160.6 195.032 160.352C195.28 160.104 195.617 159.964 195.968 159.964H196.559C196.91 159.964 197.247 160.104 197.495 160.352C197.743 160.6 197.883 160.937 197.883 161.288C197.883 161.639 197.743 161.975 197.495 162.224C197.247 162.472 196.91 162.611 196.559 162.611ZM305.012 237.652H299.591C299.412 237.661 299.232 237.634 299.063 237.571C298.895 237.509 298.74 237.412 298.61 237.289C298.479 237.165 298.376 237.015 298.305 236.85C298.234 236.685 298.197 236.507 298.197 236.327C298.197 236.147 298.234 235.969 298.305 235.803C298.376 235.638 298.479 235.489 298.61 235.365C298.74 235.241 298.895 235.145 299.063 235.082C299.232 235.02 299.412 234.992 299.591 235.002H305.012C305.352 235.019 305.672 235.166 305.907 235.413C306.141 235.659 306.272 235.986 306.272 236.327C306.272 236.667 306.141 236.994 305.907 237.241C305.672 237.487 305.352 237.635 305.012 237.652ZM291.455 237.652H286.034C285.694 237.635 285.374 237.487 285.14 237.241C284.905 236.994 284.775 236.667 284.775 236.327C284.775 235.986 284.905 235.659 285.14 235.413C285.374 235.166 285.694 235.019 286.034 235.002H291.455C291.635 234.992 291.814 235.02 291.983 235.082C292.152 235.145 292.306 235.241 292.436 235.365C292.567 235.489 292.671 235.638 292.742 235.803C292.813 235.969 292.849 236.147 292.849 236.327C292.849 236.507 292.813 236.685 292.742 236.85C292.671 237.015 292.567 237.165 292.436 237.289C292.306 237.412 292.152 237.509 291.983 237.571C291.814 237.634 291.635 237.661 291.455 237.652ZM277.901 237.652H272.476C272.137 237.635 271.816 237.487 271.582 237.241C271.348 236.994 271.217 236.667 271.217 236.327C271.217 235.986 271.348 235.659 271.582 235.413C271.816 235.166 272.137 235.019 272.476 235.002H277.901C278.241 235.019 278.561 235.166 278.795 235.413C279.029 235.659 279.16 235.986 279.16 236.327C279.16 236.667 279.029 236.994 278.795 237.241C278.561 237.487 278.241 237.635 277.901 237.652ZM264.343 237.652H258.919C258.579 237.635 258.259 237.487 258.025 237.241C257.79 236.994 257.66 236.667 257.66 236.327C257.66 235.986 257.79 235.659 258.025 235.413C258.259 235.166 258.579 235.019 258.919 235.002H264.343C264.683 235.019 265.003 235.166 265.238 235.413C265.472 235.659 265.603 235.986 265.603 236.327C265.603 236.667 265.472 236.994 265.238 237.241C265.003 237.487 264.683 237.635 264.343 237.652ZM250.786 237.652H245.361C245.022 237.635 244.701 237.487 244.467 237.241C244.233 236.994 244.102 236.667 244.102 236.327C244.102 235.986 244.233 235.659 244.467 235.413C244.701 235.166 245.022 235.019 245.361 235.002H250.779C251.119 235.019 251.439 235.166 251.673 235.413C251.908 235.659 252.038 235.986 252.038 236.327C252.038 236.667 251.908 236.994 251.673 237.241C251.439 237.487 251.119 237.635 250.779 237.652H250.786ZM237.228 237.652H231.807C231.628 237.661 231.448 237.634 231.279 237.571C231.11 237.509 230.956 237.412 230.826 237.289C230.695 237.165 230.591 237.015 230.521 236.85C230.45 236.685 230.413 236.507 230.413 236.327C230.413 236.147 230.45 235.969 230.521 235.803C230.591 235.638 230.695 235.489 230.826 235.365C230.956 235.241 231.11 235.145 231.279 235.082C231.448 235.02 231.628 234.992 231.807 235.002H237.228C237.568 235.019 237.888 235.166 238.123 235.413C238.357 235.659 238.488 235.986 238.488 236.327C238.488 236.667 238.357 236.994 238.123 237.241C237.888 237.487 237.568 237.635 237.228 237.652ZM223.671 237.652H218.25C217.91 237.635 217.59 237.487 217.356 237.241C217.121 236.994 216.99 236.667 216.99 236.327C216.99 235.986 217.121 235.659 217.356 235.413C217.59 235.166 217.91 235.019 218.25 235.002H223.671C224.011 235.019 224.331 235.166 224.565 235.413C224.799 235.659 224.93 235.986 224.93 236.327C224.93 236.667 224.799 236.994 224.565 237.241C224.331 237.487 224.011 237.635 223.671 237.652ZM210.113 237.652H204.692C204.353 237.635 204.032 237.487 203.798 237.241C203.564 236.994 203.433 236.667 203.433 236.327C203.433 235.986 203.564 235.659 203.798 235.413C204.032 235.166 204.353 235.019 204.692 235.002H210.113C210.293 234.992 210.473 235.02 210.641 235.082C210.81 235.145 210.964 235.241 211.095 235.365C211.225 235.489 211.329 235.638 211.4 235.803C211.471 235.969 211.508 236.147 211.508 236.327C211.508 236.507 211.471 236.685 211.4 236.85C211.329 237.015 211.225 237.165 211.095 237.289C210.964 237.412 210.81 237.509 210.641 237.571C210.473 237.634 210.293 237.661 210.113 237.652ZM196.559 237.652H195.968C195.628 237.635 195.308 237.487 195.074 237.241C194.839 236.994 194.709 236.667 194.709 236.327C194.709 235.986 194.839 235.659 195.074 235.413C195.308 235.166 195.628 235.019 195.968 235.002H196.559C196.899 235.019 197.219 235.166 197.454 235.413C197.688 235.659 197.819 235.986 197.819 236.327C197.819 236.667 197.688 236.994 197.454 237.241C197.219 237.487 196.899 237.635 196.559 237.652Z" fill="#C93000"/>
<mask id="mask0_439_1479" style="mask-type:luminance" maskUnits="userSpaceOnUse" x="185" y="0" width="164" height="153">
<path d="M348.641 0.447266H185.051V152.502H348.641V0.447266Z" fill="white"/>
</mask>
<g mask="url(#mask0_439_1479)">
<path d="M247.495 67.8775L204.363 201.497L267.774 221.965L310.906 88.3464L247.495 67.8775Z" fill="#516B3E"/>
<path d="M290.444 86.7594L265.079 78.5713C262.009 88.076 253.031 93.6963 245.028 91.101L215.923 181.222C223.929 183.807 227.93 193.597 224.86 203.112L250.226 211.3C253.295 201.795 262.257 196.175 270.277 198.77L299.378 108.636C291.376 106.068 287.371 96.2641 290.444 86.7594Z" fill="#8CB070"/>
<path d="M251.343 164.478C247.48 163.229 244.073 160.863 241.554 157.679C239.035 154.495 237.517 150.635 237.192 146.588C236.867 142.541 237.749 138.488 239.727 134.942C241.705 131.397 244.69 128.517 248.304 126.668C251.919 124.818 256.001 124.082 260.033 124.553C264.066 125.023 267.869 126.679 270.961 129.311C274.052 131.942 276.294 135.432 277.403 139.337C278.512 143.243 278.438 147.39 277.19 151.254C276.361 153.819 275.036 156.197 273.288 158.25C271.541 160.303 269.406 161.992 267.006 163.22C264.606 164.448 261.987 165.191 259.3 165.407C256.612 165.623 253.908 165.307 251.343 164.478Z" fill="#516B3E"/>
<path d="M256.046 148.277C255.186 148.971 254.167 149.439 253.08 149.64C251.994 149.84 250.875 149.766 249.824 149.425C248.754 149.127 247.758 148.607 246.902 147.899C244.809 147.926 244.891 144.664 245.07 141.261C245.176 139.199 245.599 131.822 249.405 136.878C250.276 136.531 251.21 136.371 252.147 136.41C253.084 136.448 254.002 136.684 254.842 137.101C255.681 137.519 256.424 138.109 257.02 138.833C257.616 139.557 258.052 140.398 258.301 141.302C262.037 135.273 266.864 136.39 272.291 138.14L265.561 159.023C260.123 157.27 255.637 155.097 256.046 148.277Z" fill="#8CB070"/>
<path d="M265.056 123.001C264.953 123.002 264.851 122.986 264.753 122.953C264.503 122.872 264.294 122.696 264.174 122.462C264.053 122.228 264.03 121.956 264.11 121.705L270.82 100.929C270.902 100.678 271.079 100.47 271.314 100.35C271.548 100.23 271.821 100.208 272.072 100.289C272.322 100.371 272.531 100.548 272.65 100.783C272.77 101.017 272.792 101.29 272.711 101.541L266.001 122.314C265.936 122.513 265.81 122.688 265.64 122.811C265.47 122.935 265.266 123.001 265.056 123.001ZM259.717 116.253C259.614 116.254 259.51 116.239 259.411 116.209C259.287 116.168 259.172 116.104 259.073 116.02C258.973 115.935 258.892 115.832 258.832 115.715C258.773 115.599 258.737 115.472 258.727 115.342C258.716 115.212 258.732 115.081 258.772 114.957L262.553 103.27C262.593 103.146 262.656 103.03 262.74 102.931C262.825 102.831 262.928 102.749 263.044 102.69C263.16 102.63 263.286 102.595 263.416 102.584C263.546 102.574 263.677 102.59 263.801 102.63C264.052 102.712 264.26 102.889 264.381 103.123C264.501 103.358 264.524 103.63 264.444 103.882L260.663 115.569C260.597 115.768 260.471 115.942 260.301 116.065C260.131 116.187 259.927 116.254 259.717 116.253ZM273.319 120.65C273.216 120.651 273.112 120.634 273.014 120.602C272.889 120.562 272.775 120.498 272.675 120.414C272.576 120.329 272.494 120.226 272.435 120.11C272.375 119.995 272.34 119.868 272.329 119.738C272.319 119.608 272.334 119.478 272.374 119.354L276.155 107.666C276.237 107.416 276.414 107.207 276.649 107.088C276.883 106.968 277.156 106.946 277.407 107.027C277.657 107.108 277.866 107.286 277.985 107.52C278.105 107.755 278.127 108.028 278.046 108.278L274.265 119.966C274.199 120.165 274.073 120.338 273.903 120.461C273.733 120.584 273.529 120.65 273.319 120.65Z" fill="#516B3E"/>
</g>
<mask id="mask1_439_1479" style="mask-type:luminance" maskUnits="userSpaceOnUse" x="177" y="52" width="127" height="101">
<path d="M303.321 52.6387H177.536L193.534 152.505H303.321V52.6387Z" fill="white"/>
</mask>
<g mask="url(#mask1_439_1479)">
<path d="M252.95 63.68L187.043 73.4829L207.7 212.363L273.607 202.56L252.95 63.68Z" fill="#608147"/>
<path d="M233.88 71.3354L207.515 75.2542C208.986 85.137 203.431 94.1604 195.112 95.3876L209.045 189.07C217.363 187.832 225.3 194.838 226.772 204.721L253.134 200.816C251.663 190.933 257.218 181.91 265.536 180.682L251.608 86.983C243.285 88.2205 235.348 81.2148 233.88 71.3354Z" fill="#8CB070"/>
<path d="M233.344 158.332C229.328 158.928 225.225 158.321 221.554 156.586C217.883 154.852 214.809 152.067 212.721 148.585C210.633 145.104 209.623 141.081 209.821 137.026C210.019 132.97 211.415 129.065 213.832 125.803C216.25 122.541 219.58 120.069 223.402 118.7C227.224 117.33 231.367 117.125 235.306 118.11C239.244 119.095 242.803 121.226 245.531 124.233C248.258 127.24 250.033 130.989 250.631 135.005C251.028 137.671 250.895 140.39 250.241 143.006C249.587 145.621 248.424 148.083 246.819 150.249C245.214 152.415 243.197 154.244 240.885 155.63C238.573 157.017 236.011 157.935 233.344 158.332Z" fill="#608147"/>
<path d="M230.367 141.725C229.982 144.853 222.963 145.712 222.004 145.448C220.141 146.403 218.766 143.444 217.415 140.312C216.593 138.415 213.702 131.619 219.354 134.468C220.354 133.351 226.865 131.151 229.288 134.468C229.976 127.408 234.788 126.266 240.422 125.428L243.65 147.132C238.012 147.974 233.025 148.022 230.367 141.725Z" fill="#8CB070"/>
<path d="M237.081 184.45C236.843 184.449 236.613 184.364 236.433 184.209C236.253 184.053 236.134 183.839 236.098 183.604L232.904 162.01C232.866 161.749 232.932 161.483 233.089 161.272C233.246 161.06 233.481 160.919 233.741 160.88C234.002 160.842 234.268 160.908 234.479 161.065C234.691 161.222 234.832 161.457 234.871 161.717L238.061 183.312C238.098 183.572 238.031 183.836 237.875 184.047C237.719 184.259 237.485 184.399 237.225 184.439L237.081 184.45ZM229.316 180.778C229.078 180.778 228.848 180.692 228.668 180.536C228.488 180.38 228.371 180.165 228.336 179.929L226.528 167.785C226.489 167.524 226.556 167.258 226.712 167.047C226.869 166.835 227.104 166.694 227.365 166.655C227.626 166.617 227.891 166.683 228.103 166.84C228.315 166.997 228.455 167.232 228.494 167.492L230.299 179.637C230.318 179.766 230.312 179.898 230.281 180.025C230.249 180.151 230.193 180.271 230.116 180.376C230.038 180.481 229.94 180.57 229.829 180.637C229.717 180.704 229.593 180.749 229.463 180.768C229.414 180.775 229.365 180.778 229.316 180.778ZM243.44 178.675C243.202 178.675 242.972 178.59 242.792 178.434C242.611 178.279 242.493 178.064 242.457 177.829L240.653 165.684C240.627 165.431 240.701 165.177 240.858 164.976C241.015 164.775 241.243 164.642 241.495 164.604C241.747 164.567 242.004 164.628 242.213 164.774C242.421 164.921 242.565 165.142 242.615 165.392L244.423 177.537C244.442 177.666 244.436 177.798 244.404 177.924C244.372 178.051 244.316 178.17 244.238 178.274C244.16 178.379 244.062 178.467 243.95 178.534C243.838 178.601 243.714 178.645 243.585 178.664C243.537 178.673 243.489 178.676 243.44 178.675ZM226.779 115.184C226.541 115.184 226.311 115.098 226.131 114.942C225.951 114.786 225.833 114.571 225.799 114.335L222.592 92.744C222.553 92.4833 222.62 92.2178 222.777 92.0061C222.934 91.7943 223.168 91.6536 223.429 91.6148C223.69 91.5761 223.955 91.6425 224.167 91.7994C224.379 91.9564 224.519 92.1911 224.558 92.4518L227.748 114.043C227.768 114.172 227.761 114.303 227.73 114.43C227.699 114.556 227.642 114.675 227.565 114.78C227.487 114.885 227.39 114.973 227.278 115.04C227.166 115.107 227.042 115.151 226.913 115.17C226.869 115.179 226.824 115.184 226.779 115.184ZM219.013 111.509C218.776 111.509 218.546 111.424 218.366 111.269C218.186 111.114 218.068 110.899 218.034 110.664L216.226 98.519C216.206 98.3899 216.213 98.2583 216.245 98.1317C216.276 98.0051 216.333 97.8859 216.41 97.7811C216.488 97.6762 216.586 97.5877 216.698 97.5205C216.81 97.4534 216.934 97.409 217.063 97.3898C217.192 97.3706 217.323 97.377 217.45 97.4087C217.577 97.4404 217.696 97.4967 217.801 97.5744C217.906 97.6522 217.994 97.7498 218.061 97.8617C218.128 97.9737 218.173 98.0977 218.192 98.2268L219.997 110.372C220.016 110.5 220.01 110.632 219.978 110.758C219.947 110.885 219.891 111.004 219.813 111.109C219.736 111.214 219.638 111.302 219.526 111.369C219.414 111.436 219.29 111.48 219.161 111.499L219.013 111.509ZM233.138 109.409C232.9 109.409 232.671 109.323 232.49 109.168C232.31 109.013 232.191 108.798 232.155 108.563L230.35 96.4153C230.331 96.2862 230.338 96.1545 230.369 96.0279C230.401 95.9013 230.457 95.7822 230.535 95.6773C230.613 95.5724 230.71 95.4839 230.822 95.4168C230.934 95.3497 231.058 95.3052 231.187 95.2861C231.316 95.2669 231.448 95.2733 231.575 95.305C231.701 95.3367 231.82 95.393 231.925 95.4707C232.03 95.5484 232.119 95.646 232.186 95.758C232.253 95.8699 232.297 95.994 232.317 96.1231L234.121 108.271C234.159 108.531 234.092 108.796 233.936 109.007C233.779 109.218 233.546 109.359 233.286 109.399L233.138 109.409Z" fill="#608147"/>
</g>
<path d="M202.19 246.259C196.477 242.921 187.213 242.921 181.541 246.259C178.719 247.92 177.306 250.095 177.303 252.275V257.228C177.303 255.045 178.722 252.87 181.545 251.209C187.216 247.871 196.481 247.871 202.194 251.209C205.067 252.89 206.504 255.104 206.497 257.311C206.497 255.826 206.497 253.846 206.497 252.361C206.501 250.154 205.061 247.94 202.19 246.259Z" fill="#BFA049"/>
<path d="M202.191 247.91C207.904 251.251 207.935 256.682 202.263 260.02C196.591 263.358 187.317 263.361 181.603 260.02C175.89 256.679 175.866 251.251 181.542 247.91C187.217 244.568 196.467 244.575 202.191 247.91ZM191.912 252.378C191.933 252.137 192.017 251.905 192.156 251.707C192.294 251.508 192.483 251.35 192.703 251.247C193.299 250.939 193.96 250.778 194.632 250.778C195.303 250.778 195.964 250.939 196.56 251.247C197.626 251.87 197.632 252.884 196.56 253.509L198.32 254.541C200.039 253.53 200.283 251.976 199.062 250.804L200.437 249.996L198.684 248.965L197.309 249.776C195.302 249.061 192.658 249.212 190.94 250.223C189.963 250.801 189.424 251.567 189.431 252.382C189.437 253.196 189.981 253.96 190.964 254.537C192.033 255.159 192.033 256.173 190.964 256.796C190.368 257.104 189.706 257.265 189.035 257.265C188.364 257.265 187.703 257.104 187.107 256.796C186.041 256.173 186.034 255.159 187.107 254.537L185.35 253.506C183.632 254.516 183.384 256.067 184.604 257.242L183.336 257.988L185.089 259.02L186.361 258.274C188.362 258.985 191.012 258.834 192.731 257.823C194.752 256.634 194.735 254.699 192.703 253.513C192.187 253.207 191.895 252.825 191.899 252.382L191.912 252.378Z" fill="#FFE49A"/>
<path d="M209.873 252.378V257.328C209.873 260.009 208.123 262.687 204.648 264.729C197.653 268.854 186.271 268.854 179.21 264.729C175.67 262.666 173.899 259.941 173.906 257.225V252.275C173.906 254.987 175.67 257.71 179.214 259.779C186.254 263.904 197.635 263.904 204.634 259.779C208.123 257.723 209.873 255.049 209.873 252.378Z" fill="#BFA049"/>
<path d="M204.566 244.86C211.609 248.985 211.647 255.654 204.652 259.769C197.656 263.883 186.271 263.894 179.231 259.769C172.191 255.644 172.154 248.975 179.149 244.86C186.144 240.746 197.526 240.742 204.566 244.86ZM181.603 258.37C187.316 261.711 196.584 261.711 202.263 258.37C207.941 255.028 207.904 249.601 202.19 246.259C196.477 242.918 187.213 242.922 181.541 246.259C175.869 249.597 175.89 255.032 181.603 258.37Z" fill="#ECC047"/>
<path d="M200.444 248.652L199.069 249.46C200.29 250.632 200.046 252.186 198.327 253.196L196.567 252.165C197.629 251.539 197.622 250.529 196.567 249.903C195.97 249.596 195.309 249.435 194.638 249.435C193.967 249.435 193.306 249.596 192.71 249.903C192.49 250.005 192.301 250.164 192.162 250.362C192.024 250.561 191.94 250.793 191.919 251.034C191.919 251.46 192.208 251.862 192.724 252.165C194.755 253.354 194.786 255.29 192.751 256.479C191.032 257.49 188.382 257.637 186.381 256.926L185.11 257.672L183.356 256.641L184.625 255.895C183.405 254.719 183.652 253.169 185.371 252.158L187.127 253.189C186.065 253.815 186.072 254.829 187.127 255.451C187.723 255.76 188.385 255.92 189.056 255.92C189.727 255.92 190.388 255.76 190.984 255.451C192.04 254.829 192.04 253.815 190.984 253.189C190.001 252.615 189.455 251.849 189.451 251.034C189.448 250.219 189.984 249.453 190.96 248.879C192.679 247.868 195.322 247.717 197.33 248.428L198.705 247.621L200.444 248.652Z" fill="#ECC047"/>
<path d="M190.967 254.516C191.181 254.637 191.369 254.798 191.521 254.991C191.974 254.399 191.799 253.681 190.967 253.196C190.032 252.65 189.496 251.928 189.444 251.158C189.444 251.158 189.444 252.32 189.444 252.361C189.444 253.176 189.991 253.939 190.967 254.516ZM183.972 256.283L184.611 255.908C184.382 255.708 184.196 255.462 184.066 255.186C183.936 254.911 183.864 254.611 183.855 254.307V255.637C183.859 255.858 183.901 256.076 183.979 256.283H183.972ZM192.737 256.486C191.019 257.497 188.368 257.644 186.368 256.933L185.096 257.679L183.343 256.647V257.967L185.096 258.999L186.368 258.253C188.368 258.964 191.019 258.813 192.737 257.802C193.769 257.208 194.253 256.427 194.243 255.637V254.331C194.253 255.128 193.752 255.891 192.744 256.503L192.737 256.486ZM186.571 254.984C186.719 254.794 186.904 254.635 187.114 254.516V253.196C186.296 253.681 186.12 254.399 186.577 254.984H186.571ZM199.066 249.46C199.348 249.721 199.567 250.043 199.705 250.402L200.437 249.972V248.652L199.066 249.46ZM198.323 253.196L196.563 252.165V253.485L198.323 254.516C199.334 253.922 199.829 253.141 199.822 252.357V251.072C199.826 251.842 199.327 252.612 198.33 253.196H198.323ZM197.113 251.691C197.571 251.103 197.392 250.384 196.56 249.896C195.964 249.589 195.302 249.428 194.632 249.428C193.961 249.428 193.299 249.589 192.703 249.896C192.483 249.998 192.294 250.157 192.156 250.355C192.017 250.554 191.933 250.786 191.912 251.027C191.919 251.268 192.006 251.499 192.16 251.684C192.31 251.495 192.494 251.336 192.703 251.216C193.299 250.908 193.96 250.747 194.632 250.747C195.303 250.747 195.964 250.908 196.56 251.216C196.773 251.338 196.961 251.499 197.113 251.691Z" fill="#BFA049"/>
<path d="M371.412 157.249C370.243 167.905 361.787 183.03 358.232 196.203C360.274 205.175 358.26 216.567 358.312 230.554H354.853C352.674 222.383 350.88 212.792 347.7 197.554C346.61 192.332 347.012 170.184 353.788 158.982C357.098 158.682 371.412 157.249 371.412 157.249Z" fill="#C53002"/>
<path d="M358.834 231.819C358.572 231.439 358.394 231.008 358.312 230.554H354.854C355.196 231.275 355.239 232.103 354.974 232.857C355.874 233.201 357.191 232.31 358.834 231.819Z" fill="#CD9D91"/>
<path d="M358.834 231.818C357.191 232.31 355.874 233.193 354.974 232.85C354.499 233.193 347.48 235.72 346.765 236.208C346.05 236.696 346.139 237.483 346.916 237.483C348.047 237.483 357.366 237.074 357.366 237.074C357.555 237.281 357.71 237.483 357.71 237.483H359.838C360.474 236.39 360.302 233.087 358.834 231.818Z" fill="#20196F"/>
<path d="M374.561 156.816C376.493 167.946 374.904 182.628 371.683 195.793C374.935 204.043 375.358 214.7 377.287 230.55H373.842C369.851 220.811 366.008 211.644 360.144 197.55C358.081 192.624 353.1 165.423 357.528 152.244L374.561 156.816Z" fill="#ED3900"/>
<path d="M377.805 231.819C377.545 231.438 377.368 231.007 377.286 230.554H373.842C374.013 230.911 374.112 231.298 374.133 231.693C374.154 232.088 374.097 232.484 373.966 232.857C374.849 233.201 376.166 232.31 377.805 231.819Z" fill="#CD9D91"/>
<path d="M377.805 231.818C376.166 232.31 374.849 233.193 373.949 232.85C373.474 233.193 366.455 235.72 365.74 236.208C365.025 236.696 365.114 237.483 365.888 237.483C367.022 237.483 376.341 237.074 376.341 237.074C376.53 237.281 376.685 237.483 376.685 237.483H378.813C379.448 236.39 379.277 233.087 377.805 231.818Z" fill="#20196F"/>
<path d="M356.609 122.564C358.613 125.043 351.993 142.299 337.775 145.324C328.542 147.29 315.38 146.472 315.38 146.472C315.627 145.097 315.892 143.035 315.892 143.035C318.391 143.406 330.728 139.655 335.355 137.978C342.038 135.551 351.879 116.72 356.609 122.564Z" fill="#EEE8AE"/>
<path d="M359.786 118.099C362.564 120.56 366.692 122.162 369.432 130.618C372.172 139.075 374.561 156.816 374.561 156.816C373.148 157.06 353.788 158.988 353.788 158.988C352.024 153.901 349.092 144.207 349.446 135.778C349.8 127.349 352.942 121.633 354.022 120.1C357.844 119.443 359.786 118.099 359.786 118.099Z" fill="#F9F3C1"/>
<path d="M357.978 112.149C358.132 113.383 359.146 117.649 360.487 118.68C359.896 119.419 357.256 120.399 353.227 121.399C353.653 120.478 354.416 119.368 353.282 118.209C352.051 116.951 351.096 119.306 349.332 117.178C347.27 114.696 345.465 109.234 346.407 107.347C347.462 105.236 349.91 102.362 354.533 103.713C358.308 104.813 357.661 109.643 357.978 112.149Z" fill="#CD9D91"/>
<path d="M354.248 110.183C353.34 110.427 353.216 107.91 352.384 107.508C351.422 107.034 348.669 107.312 346.166 108.244C343.664 109.175 341.213 106.223 342.505 104.415C343.798 102.606 345.781 104.15 346.905 103.431C348.215 102.593 347.52 100.912 349.693 100.561C351.697 100.217 351.267 102.28 352.594 102.28C353.921 102.28 355.423 100.107 357.503 101.726C359.043 102.93 357.503 104.243 358.118 105.851C358.496 106.862 361.855 109.289 359.394 111.276C356.932 113.263 356.857 110.265 356.709 109.052C356.561 107.838 355.829 107.195 355.234 107.333C354.639 107.47 355.557 109.835 354.248 110.183Z" fill="#573831"/>
<mask id="mask2_439_1479" style="mask-type:luminance" maskUnits="userSpaceOnUse" x="269" y="107" width="75" height="68">
<path d="M269.589 107.972V152.502H307.965C309.21 152.505 310.402 153.002 311.281 153.884C312.16 154.765 312.654 155.959 312.654 157.204V174.522H343.629V107.972H269.589Z" fill="white"/>
</mask>
<g mask="url(#mask2_439_1479)">
<path d="M283.288 125.191C286.551 120.543 291.119 116.967 296.414 114.915C301.709 112.863 307.494 112.428 313.037 113.664C318.58 114.9 323.632 117.752 327.554 121.859C331.476 125.966 334.092 131.144 335.071 136.738C336.051 142.332 335.349 148.09 333.056 153.286C330.762 158.481 326.979 162.879 322.186 165.925C317.393 168.97 311.804 170.526 306.126 170.395C300.449 170.264 294.938 168.453 290.29 165.189C284.059 160.813 279.821 154.14 278.507 146.64C277.194 139.139 278.914 131.424 283.288 125.191Z" fill="#ECC047"/>
<path d="M285.729 126.909C282.807 131.076 281.186 136.015 281.071 141.102C280.956 146.189 282.351 151.196 285.082 155.49C287.812 159.784 291.753 163.173 296.409 165.227C301.064 167.281 306.224 167.909 311.236 167.032C316.249 166.154 320.888 163.81 324.568 160.296C328.249 156.782 330.805 152.256 331.913 147.289C333.021 142.323 332.632 137.139 330.795 132.394C328.958 127.649 325.756 123.555 321.592 120.629C316.002 116.709 309.085 115.169 302.361 116.347C295.636 117.524 289.654 121.323 285.729 126.909Z" fill="#BFA049"/>
<path d="M287.471 128.123C284.787 131.944 283.297 136.474 283.189 141.142C283.081 145.809 284.359 150.404 286.862 154.345C289.365 158.286 292.98 161.396 297.251 163.283C301.521 165.169 306.256 165.747 310.855 164.942C315.453 164.138 319.711 161.988 323.088 158.764C326.465 155.54 328.81 151.387 329.827 146.831C330.843 142.274 330.486 137.518 328.8 133.165C327.114 128.811 324.175 125.055 320.354 122.372C315.228 118.782 308.888 117.371 302.723 118.449C296.559 119.527 291.073 123.006 287.471 128.123Z" fill="url(#paint0_linear_439_1479)"/>
<path d="M307.842 140.168C306.896 139.504 306.254 138.491 306.055 137.353C305.856 136.215 306.117 135.045 306.781 134.099C307.446 133.154 308.458 132.511 309.596 132.312C310.734 132.113 311.905 132.375 312.85 133.039C313.794 133.703 314.436 134.716 314.635 135.853C314.833 136.991 314.572 138.161 313.909 139.106L317.147 141.378C318.212 139.856 318.737 138.021 318.636 136.166C318.536 134.311 317.817 132.543 316.594 131.145L318.385 128.591L315.153 126.318L313.359 128.872C311.467 128.136 309.371 128.118 307.467 128.822C305.563 129.526 303.983 130.904 303.026 132.694C302.069 134.484 301.801 136.563 302.273 138.538C302.745 140.512 303.924 142.246 305.587 143.41C306.292 143.904 306.835 144.597 307.146 145.4C307.458 146.203 307.524 147.08 307.337 147.921C307.15 148.762 306.718 149.528 306.096 150.124C305.473 150.719 304.688 151.116 303.839 151.265C302.991 151.414 302.118 151.308 301.329 150.961C300.541 150.613 299.874 150.04 299.411 149.313C298.949 148.586 298.712 147.739 298.732 146.878C298.751 146.017 299.025 145.181 299.52 144.475L296.285 142.203C295.22 143.725 294.695 145.56 294.795 147.415C294.895 149.269 295.613 151.037 296.835 152.436L295.182 154.791L298.416 157.063L300.07 154.705C301.963 155.45 304.063 155.473 305.973 154.771C307.882 154.069 309.467 152.69 310.426 150.896C311.385 149.102 311.652 147.018 311.175 145.04C310.699 143.062 309.513 141.329 307.842 140.168Z" fill="#ECC047"/>
</g>
<path d="M362.687 123.193C364.883 125.503 359.662 143.234 345.733 147.386C336.689 150.085 320.543 149.023 320.543 149.023C320.68 147.624 320.78 145.561 320.78 145.561C323.296 145.73 338.256 142.302 342.732 140.257C349.201 137.304 357.503 117.745 362.687 123.193Z" fill="#FEFAD7"/>
<path d="M320.781 145.561C319.832 145.585 319.928 144.764 318.918 144.224C317.907 143.684 317.508 142.443 317.199 142.639C316.89 142.835 317.508 144.265 317.742 144.54C317.13 144.375 314.026 143.265 313.713 143.973C313.459 144.551 312.885 144.661 313.026 145.4C313.167 146.139 314.057 147.462 315.504 147.902C316.951 148.342 317.911 148.641 318.739 148.504C319.354 148.424 319.977 148.445 320.585 148.566C320.626 148.078 320.781 145.561 320.781 145.561Z" fill="#CD9D91"/>
<path d="M432.503 203.305C431.31 206.656 429.172 210.596 429.172 216.023C429.172 221.451 431.368 249.938 431.368 251.485H434.081C434.081 249.677 437.456 225.958 435.198 217.371C436.991 213.2 439.119 209.181 441.561 205.353L432.503 203.305Z" fill="#CD9D91"/>
<path d="M432.596 255.049C432.836 255.082 433.059 255.19 433.234 255.357C433.41 255.524 433.528 255.742 433.572 255.981H434.318C434.765 255.113 434.887 254.115 434.662 253.165C434.417 252.168 434.163 252.409 433.902 252.667C433.311 253.148 430.901 253.306 430.712 252.495C430.09 252.588 423.686 254.434 423.686 255.025C423.686 255.984 424.438 255.981 424.951 255.981C431.007 255.981 430.217 255.609 432.596 255.049Z" fill="#003E7A"/>
<path d="M431.368 251.478C431.575 250.567 434.215 249.879 434.081 251.478C434.039 251.827 434.086 252.182 434.218 252.509C433.627 252.99 428.113 254.695 427.202 253.513C427.835 253.159 431.368 252.447 431.368 251.478ZM460.628 209.427L460.8 202.744L450.278 204.487C450.278 204.487 453.633 211.304 454.929 213.232C455.225 213.673 455.604 214.051 456.046 214.346C460.556 217.36 483.02 229.753 484.309 230.612L485.815 228.36C484.333 227.364 468.074 212.775 460.628 209.427Z" fill="#CD9D91"/>
<path d="M487.966 231.578C488.126 231.396 488.34 231.269 488.577 231.216C488.813 231.162 489.061 231.186 489.283 231.282C489.603 230.808 489.685 230.681 489.696 230.664C489.225 229.809 488.464 229.152 487.551 228.811C486.585 228.467 486.643 228.811 486.712 229.155C486.784 229.911 485.574 232.004 484.797 231.709C484.529 232.279 482.497 238.628 482.992 238.955C483.79 239.491 484.206 238.862 484.491 238.436C487.856 233.414 487.1 233.871 487.966 231.578Z" fill="#003E7A"/>
<path d="M484.313 230.608C483.67 229.921 484.568 227.353 485.819 228.357C486.086 228.58 486.403 228.734 486.743 228.807C486.812 229.567 485.162 235.101 483.674 235.197C483.743 234.479 485.118 231.148 484.313 230.608Z" fill="#F7D3C9"/>
<path d="M456.686 176.207H444.032C439.708 179.5 435.782 193.122 425.185 199.836C433.576 204.992 439.646 207.13 447.583 207.711C454.922 208.247 458.882 207.453 467.789 202.029C464.853 200.448 461.014 195.793 460.302 189.376C459.542 182.635 458.405 176.207 456.686 176.207Z" fill="#F1F5D8"/>
<path d="M444.895 134.358C445.128 135.788 443.114 145.998 440.405 151.03C441.846 151.395 446.73 151.439 448.367 150.064C449.398 147.05 447.72 135.799 446.861 133.258C445.311 133.258 444.895 134.358 444.895 134.358Z" fill="#573831"/>
<path d="M423.039 116.941C423.383 116.597 424.263 120.148 424.245 119.825C424.067 116.862 424.16 114.937 424.386 114.937C424.703 114.937 425.115 118.718 425.115 119.728C425.115 118.732 425.167 116.016 425.751 115.373C425.95 115.15 426.115 118.838 426.115 119.869C426.115 118.738 426.332 115.517 426.868 115.576C427.404 115.634 427.143 119.013 426.934 120.117C426.934 120.117 428.58 118.054 428.58 118.852C428.58 119.357 427.59 120.323 427.59 122.355C427.59 123.774 427.164 123.902 427.154 124.438C429.735 138.587 440.721 147.613 443.31 148.579C443.31 148.579 444.919 153.203 441.567 155.454C428.254 145.066 423.819 127.906 423.75 124.269L423.692 124.242C423.486 122.472 422.771 117.195 423.039 116.941Z" fill="#CD9D91"/>
<path d="M443.448 176.705C442.565 176.705 441.843 176.832 442.249 173.034C442.654 169.236 443.074 167.995 442.427 165.929C441.781 163.863 440.062 161.927 439.588 159.305C439.932 156.634 442.214 151.77 442.816 149.405C443.417 147.04 449.574 146.263 453.358 146.263C457.143 146.263 458.309 150.137 458.783 154.052C459.257 157.967 460.289 177.083 457.539 176.774C453.799 176.372 443.448 176.705 443.448 176.705Z" fill="#ED3900"/>
<path d="M415.435 112.472C413.381 107.989 412.702 102.998 413.483 98.1293C414.265 93.2607 416.474 88.7332 419.829 85.1195C423.184 81.5058 427.535 78.9681 432.332 77.8273C437.129 76.6865 442.157 76.9938 446.78 78.7105C451.402 80.4271 455.412 83.476 458.302 87.4715C461.192 91.4669 462.832 96.2296 463.015 101.157C463.198 106.085 461.916 110.956 459.331 115.155C456.745 119.354 452.973 122.692 448.49 124.747C445.514 126.112 442.298 126.877 439.026 126.999C435.754 127.121 432.49 126.597 429.42 125.457C426.35 124.317 423.535 122.584 421.136 120.356C418.736 118.128 416.799 115.449 415.435 112.472Z" fill="#ECC047"/>
<path d="M418.894 110.877C420.636 114.678 423.467 117.876 427.027 120.068C430.588 122.26 434.718 123.347 438.896 123.192C443.074 123.037 447.113 121.646 450.5 119.195C453.888 116.745 456.473 113.345 457.929 109.425C459.384 105.506 459.645 101.243 458.678 97.1751C457.71 93.1075 455.559 89.418 452.495 86.5732C449.431 83.7284 445.592 81.856 441.464 81.1929C437.335 80.5298 433.103 81.1056 429.302 82.8477C424.208 85.1875 420.251 89.4535 418.299 94.7089C416.347 99.9642 416.561 105.779 418.894 110.877Z" fill="#BFA049"/>
<path d="M420.629 110.083C422.214 113.54 424.789 116.449 428.028 118.443C431.266 120.437 435.023 121.425 438.824 121.284C442.624 121.142 446.297 119.877 449.379 117.648C452.46 115.419 454.811 112.327 456.135 108.761C457.459 105.196 457.696 101.318 456.816 97.6185C455.936 93.9186 453.979 90.5627 451.192 87.9752C448.404 85.3877 444.913 83.6848 441.158 83.0817C437.403 82.4786 433.553 83.0025 430.096 84.5872C425.463 86.7167 421.864 90.5972 420.09 95.3772C418.315 100.157 418.509 105.446 420.629 110.083Z" fill="#FFE49A"/>
<path d="M437.435 100.602C436.755 100.913 435.998 101.016 435.26 100.897C434.522 100.778 433.836 100.443 433.288 99.934C432.74 99.4251 432.355 98.7652 432.183 98.0377C432.01 97.3103 432.057 96.5479 432.317 95.847C432.577 95.1461 433.04 94.5381 433.645 94.0999C434.251 93.6617 434.973 93.413 435.721 93.3851C436.468 93.3573 437.207 93.5516 437.843 93.9434C438.48 94.3353 438.986 94.9072 439.298 95.5867L442.419 94.1567C441.745 92.6932 440.6 91.4974 439.167 90.7598C437.735 90.0223 436.096 89.7853 434.513 90.0867L433.382 87.6255L430.264 89.0555L431.392 91.5202C430.035 92.6238 429.125 94.1824 428.831 95.9064C428.537 97.6303 428.879 99.4024 429.793 100.893C430.707 102.384 432.132 103.493 433.801 104.013C435.471 104.532 437.273 104.428 438.872 103.72C439.552 103.408 440.309 103.305 441.047 103.423C441.785 103.542 442.472 103.876 443.02 104.385C443.568 104.893 443.953 105.553 444.127 106.28C444.3 107.008 444.254 107.77 443.994 108.471C443.734 109.173 443.272 109.781 442.666 110.219C442.06 110.658 441.338 110.907 440.591 110.935C439.844 110.964 439.105 110.77 438.468 110.378C437.831 109.986 437.324 109.415 437.012 108.735L433.891 110.165C434.565 111.629 435.71 112.824 437.143 113.562C438.576 114.3 440.214 114.537 441.797 114.235L442.829 116.504L445.95 115.077L444.919 112.805C446.28 111.703 447.195 110.143 447.491 108.416C447.788 106.69 447.446 104.914 446.531 103.421C445.615 101.927 444.187 100.818 442.513 100.299C440.84 99.7804 439.035 99.8881 437.435 100.602Z" fill="#ECC047"/>
<path d="M453.936 148.538C462.488 138.349 459.896 124.764 458.16 119.536L458.081 119.292C457.05 117.845 454.111 114.136 454.218 113.758C454.355 113.276 456.6 115.414 456.425 115.133C455.05 113.046 453.733 112.08 454.163 111.492C454.348 111.238 456.655 113.754 457.14 114.627C456.658 113.754 454.936 111.355 455.314 110.599C455.383 110.306 457.583 113.349 458.064 114.266C457.521 113.28 455.933 110.537 456.4 110.227C456.868 109.918 458.515 112.922 458.9 114.091C459.14 114.009 458.35 112.919 458.655 112.307C458.91 111.802 459.996 113.269 460.302 115.61C460.491 117.034 460.615 117.859 460.883 118.36C463.633 124.63 465.073 134.317 464.51 137.937C463.856 144.705 461.722 150.893 459.597 153.749C455.469 159.287 450.643 152.45 453.936 148.538Z" fill="#CD9D91"/>
<path d="M447.133 146.895C447.645 147.407 452.062 147.449 452.897 146.266C452.88 144.819 453.032 143.375 453.348 141.962C453.691 140.495 454.64 138.896 454.09 135.476C453.54 132.055 451.34 129.092 447.593 130.117C444.28 131.021 444.671 137.28 444.809 139.171C445.022 142.028 445.441 143.609 448.15 143.413C448.123 144.643 447.772 145.844 447.133 146.895Z" fill="#CD9D91"/>
<path d="M448.335 133.052C448.335 135.29 449.367 139.975 452.567 140.199C451.91 143.011 451.649 146.954 447.548 153.261C450.388 154.207 453.392 151 455.932 147.074C456.775 145.775 457.995 140.601 457.51 136.706C456.867 131.67 453.358 126.937 448.109 127.886C442.86 128.835 442.536 133.114 443.64 133.867C445.221 134.95 447.17 134.214 448.335 133.052Z" fill="#573831"/>
<path d="M105.82 92.7233C105.145 88.8605 105.632 84.8845 107.218 81.2982C108.803 77.7119 111.417 74.6764 114.728 72.5756C118.039 70.4749 121.899 69.4033 125.819 69.4963C129.739 69.5893 133.543 70.8429 136.751 73.0983C139.959 75.3538 142.425 78.5098 143.839 82.1673C145.253 85.8248 145.55 89.8194 144.694 93.6459C143.837 97.4724 141.865 100.959 139.026 103.664C136.188 106.37 132.611 108.173 128.748 108.845C123.57 109.747 118.245 108.554 113.946 105.531C109.646 102.508 106.723 97.9011 105.82 92.7233Z" fill="#ECC047"/>
<path d="M108.79 92.2077C109.362 95.4827 110.892 98.5146 113.186 100.92C115.481 103.326 118.438 104.997 121.682 105.722C124.926 106.447 128.313 106.194 131.414 104.995C134.514 103.796 137.19 101.704 139.101 98.984C141.013 96.2641 142.075 93.0385 142.154 89.7149C142.233 86.3914 141.324 83.1191 139.543 80.312C137.762 77.5049 135.188 75.2889 132.148 73.9444C129.107 72.5998 125.736 72.1871 122.461 72.7583C118.071 73.5277 114.165 76.0081 111.602 79.6547C109.039 83.3013 108.027 87.8161 108.79 92.2077Z" fill="#BFA049"/>
<path d="M110.285 91.9467C110.805 94.9256 112.197 97.6833 114.284 99.8712C116.372 102.059 119.061 103.579 122.012 104.239C124.963 104.898 128.043 104.668 130.864 103.577C133.684 102.486 136.117 100.584 137.856 98.1097C139.595 95.6359 140.561 92.702 140.633 89.6789C140.705 86.6559 139.878 83.6795 138.258 81.1261C136.639 78.5727 134.298 76.557 131.533 75.3337C128.767 74.1105 125.701 73.7347 122.722 74.2539C118.729 74.9554 115.177 77.2121 112.846 80.5289C110.514 83.8457 109.593 87.9519 110.285 91.9467Z" fill="#FFE49A"/>
<path d="M125.128 88.0658C124.542 88.1685 123.939 88.0951 123.394 87.8548C122.85 87.6145 122.389 87.2181 122.07 86.7159C121.751 86.2136 121.588 85.628 121.602 85.0332C121.616 84.4383 121.806 83.8609 122.148 83.374C122.49 82.8872 122.969 82.5127 123.524 82.298C124.079 82.0833 124.685 82.038 125.265 82.1678C125.846 82.2977 126.375 82.5969 126.786 83.0275C127.196 83.4581 127.47 84.0009 127.572 84.5871L130.264 84.1161C130.04 82.8534 129.401 81.7017 128.447 80.8445C127.493 79.9874 126.28 79.474 125.001 79.3861L124.623 77.2549L121.935 77.7224L122.306 79.8468C121.023 80.409 119.99 81.4218 119.403 82.6939C118.815 83.966 118.715 85.4092 119.119 86.7505C119.524 88.0919 120.406 89.2385 121.599 89.9736C122.791 90.7088 124.212 90.9815 125.592 90.7402C126.178 90.6383 126.781 90.7124 127.325 90.9532C127.869 91.1939 128.329 91.5905 128.648 92.0927C128.966 92.595 129.128 93.1804 129.114 93.775C129.1 94.3695 128.91 94.9466 128.568 95.4332C128.226 95.9197 127.748 96.294 127.193 96.5086C126.638 96.7233 126.033 96.7687 125.452 96.6391C124.872 96.5095 124.343 96.2108 123.932 95.7806C123.521 95.3505 123.247 94.8082 123.145 94.2224L120.457 94.6899C120.682 95.9518 121.324 97.1019 122.279 97.9572C123.234 98.8125 124.447 99.3237 125.726 99.4096L126.07 101.366L128.758 100.898L128.414 98.9386C129.677 98.3639 130.689 97.3504 131.261 96.0863C131.833 94.8222 131.928 93.3934 131.526 92.0651C131.125 90.7368 130.255 89.5993 129.078 88.8638C127.902 88.1283 126.498 87.8448 125.128 88.0658Z" fill="#ECC047"/>
<path d="M115.122 109.942C115.222 108.99 113.403 108.062 114.204 105.845C115.005 103.627 115.078 102.679 115.82 102.627C116.563 102.576 116.05 105.511 116.27 106.357C116.415 106.897 118.226 107.024 118.979 108.076C119.185 108.076 120.426 108.615 120.729 108.595C120.272 109.626 119.203 110.121 118.763 110.97C116.978 111.486 115.122 109.942 115.122 109.942Z" fill="#CD9D91"/>
<path d="M87.4189 139.147L91.3308 150.944C91.3308 150.944 110.189 138.865 113.534 134.64L106.593 129.714C104.07 131.928 92.943 135.661 87.4189 139.147ZM114.771 109.942C114.771 109.942 108.346 128.35 106.593 129.714L113.534 134.64C117.284 126.311 118.549 115.923 118.934 111.052C118.934 111.052 116.535 109.949 114.771 109.942Z" fill="#C6D4F5"/>
<path d="M31.2155 173.66C31.0333 174.234 30.803 174.956 30.528 174.993C30.1515 175.018 29.7937 175.167 29.5098 175.415C29.2259 175.664 29.0317 175.999 28.9571 176.368C28.3039 179.149 28.9571 179.565 29.4967 179.387C29.6411 179.857 30.1052 180.112 30.4799 179.882C30.7342 180.483 31.1674 180.456 31.4733 180.263C31.4913 180.376 31.5419 180.481 31.6188 180.565C31.6958 180.649 31.7958 180.709 31.9064 180.737C32.6764 180.823 33.0374 180.311 33.6527 179.992C33.9174 179.857 33.9689 180.335 34.3402 180.122C34.9967 179.758 35.3714 178.905 35.5296 178.335C35.7736 177.534 34.9658 176.64 34.9177 176.083C34.9054 175.699 34.9918 175.318 35.1686 174.976L31.2155 173.66Z" fill="#CD9D91"/>
<path d="M90.822 138.838C86.8757 136.432 75.7486 135.263 71.6236 135.081L65.9757 134.641C61.9436 136.414 45.7632 145.39 41.8204 149.962C37.8157 154.602 30.7998 173.519 30.7998 173.519L35.4542 175.083C37.2245 171.119 45.1342 158.411 47.427 156.156C49.7198 153.901 62.8648 149.697 63.6142 149.456C61.5517 154.685 58.8017 163.01 57.5161 167.751C59.4514 168.572 77.8729 174.866 77.8729 174.866C79.7292 171.748 98.7936 146.16 90.822 138.838Z" fill="#C6D4F5"/>
<path d="M80.9457 170.25C84.1735 165.379 88.9929 157.696 91.3545 150.927C92.011 150.508 106.397 141.261 111.911 136.294C108.614 138.291 94.3795 148.215 93.2932 148.222C91.8082 148.222 92.3926 144.561 91.5332 144.592C90.0001 144.647 89.6013 153.928 84.6066 163.351C84.0601 164.416 82.5579 167.197 80.9457 170.25ZM68.0345 148.961C67.5807 147.676 63.6138 149.456 63.6138 149.456C61.8951 153.808 59.6985 160.305 58.2754 165.097C59.8841 162.048 68.4882 150.247 68.0345 148.961Z" fill="#96A3C2"/>
<path d="M70.6546 185.691C62.1124 199.685 56.7465 205.7 49.6377 214.181C48.58 215.513 47.1409 216.49 45.5127 216.982C33.038 220.557 13.9359 223.053 8.67648 223.95C8.67648 223.95 8.29148 221.259 8.12305 220.069C15.3418 215.288 25.943 208.196 40.5009 205.879C43.8077 195.484 51.9443 175.629 57.5165 167.75C62.3496 169.995 70.6546 185.691 70.6546 185.691Z" fill="#ED3900"/>
<path d="M50.8818 196.753C49.9571 211.854 43.2025 213.669 37.7678 214.916C32.3331 216.164 21.2884 221.276 16.4209 222.751C24.6331 221.486 36.7021 219.502 45.5056 216.986C47.1338 216.494 48.5729 215.516 49.6306 214.184C56.7496 205.704 62.1156 199.688 70.6543 185.691C70.6543 185.691 68.719 182.033 66.1856 177.998L57.5231 167.747C56.1428 169.773 54.8881 171.882 53.7659 174.062C51.7481 180.359 51.3287 189.438 50.8818 196.753Z" fill="#C93000"/>
<path d="M6.71724 220.272L8.14036 220.069L8.6938 223.95C7.82087 224.106 6.97322 224.38 6.17411 224.765C5.62411 223.813 6.41474 222.194 6.71724 220.272Z" fill="#FCCCC0"/>
<path d="M6.7168 220.272C6.43148 222.194 5.64086 223.813 6.17367 224.765C5.86086 225.356 4.15586 233.634 3.7193 234.514C3.28273 235.394 2.38898 235.418 2.2618 234.551C2.08305 233.28 1.0518 222.761 1.0518 222.761C0.790546 222.582 0.536171 222.441 0.536171 222.441L0.185547 220.066C1.30961 219.165 5.04617 218.828 6.7168 220.272Z" fill="#20196F"/>
<path d="M93.5859 243.96C93.5859 243.169 93.6375 241.271 93.6375 241.271L97.4669 242.093C97.2572 243.533 97.8106 244.499 97.9791 245.039C96.9719 245.455 95.4594 244.472 93.5859 243.96Z" fill="#FCCCC0"/>
<path d="M93.5857 243.96C95.4591 244.476 96.9716 245.455 97.9823 245.039C98.5288 245.421 106.542 248.112 107.363 248.652C108.185 249.192 108.102 250.082 107.226 250.099C105.944 250.127 95.3732 249.886 95.3732 249.886C95.1635 250.123 94.9951 250.361 94.9951 250.361L92.5888 250.409C91.836 249.178 91.9666 245.431 93.5857 243.96Z" fill="#20196F"/>
<path d="M77.8734 174.866C92.1425 186.997 97.9828 192.696 102.51 198.839C103.517 200.214 104.016 201.534 103.696 203.284C100.482 220.915 98.4434 236.855 97.4706 242.093L93.6378 241.272C91.6509 232.826 89.609 218.818 91.699 207.753C76.1994 201.448 63.5425 192.397 58.8812 184.825C55.2822 178.981 55.6465 173.11 57.5062 167.75L77.8734 174.866Z" fill="#ED3900"/>
<path d="M85.9646 134.159C85.8821 135.317 86.4184 137.174 86.4184 137.174C85.339 138.989 82.1628 137.707 79.0381 135.678C80.1037 133.272 80.7946 128.948 80.7946 128.948L85.9646 134.159Z" fill="#C09388"/>
<path d="M91.805 123.414C91.6847 125.579 90.7188 132.162 88.9416 134.07C87.4875 135.651 85.3459 135.445 82.3003 133.496C79.2547 131.547 80.6228 125.48 80.6228 123.63C80.6228 120.698 91.9838 120.272 91.805 123.414Z" fill="#CD9D91"/>
<path d="M93.486 121.523C94.6238 120.798 98.0922 117.505 95.0122 118.257C95.9472 117.226 95.1497 113.73 91.805 116.793C88.4604 119.856 85.9613 117.865 85.9613 117.865C86.9925 117.501 88.6632 114.603 84.6619 116.673C80.6607 118.742 79.1825 119.801 79.7566 122.675C80.3307 125.548 78.3816 131.719 79.2719 132.795C79.681 133.3 80.5472 132.317 80.8875 129.759C81.2107 127.353 82.7335 128.979 82.816 126.934C82.7462 127.03 82.6542 127.109 82.5477 127.163C82.4412 127.217 82.3234 127.244 82.2041 127.243C81.7572 127.222 81.4169 126.727 81.4479 126.143C81.4788 125.559 81.8638 125.112 82.3141 125.112C82.4089 125.119 82.5012 125.145 82.5852 125.19C82.6692 125.234 82.7431 125.295 82.8022 125.37C82.7713 123.527 82.8194 121.953 83.8919 121.588C85.2188 121.135 91.0419 124.273 93.3038 123.176C95.5657 122.08 94.8885 121.251 93.486 121.523Z" fill="#573831"/>
<path d="M84.2149 138.013C81.2793 137.116 78.9899 134.139 78.9899 134.139L77.6699 135.734C78.9246 137.181 80.2274 139.212 82.8812 140.257C83.4651 139.601 83.9178 138.839 84.2149 138.013ZM85.0124 138.044L85.6105 140.257C86.219 140.141 86.9305 138.477 86.7243 137.36C86.518 136.242 86.2121 136.294 86.2121 136.294C86.1984 136.579 85.9371 137.996 85.0124 138.044Z" fill="white"/>
<defs>
<linearGradient id="paint0_linear_439_1479" x1="306.788" y1="118.095" x2="306.788" y2="165.295" gradientUnits="userSpaceOnUse">
<stop stop-color="#FFE49A"/>
<stop offset="1" stop-color="#FCD878"/>
</linearGradient>
</defs>
</svg>
