<svg width="997" height="545" viewBox="0 0 997 545" fill="none" xmlns="http://www.w3.org/2000/svg">
<g style="mix-blend-mode:multiply">
<path d="M422.632 305.689H496.817L498.173 310.116H425.387L422.632 305.689Z" fill="#DDE2F8"/>
</g>
<path d="M815.479 483.011C815.479 478.116 781.107 474.171 738.714 474.171C696.32 474.171 661.948 478.13 661.948 483.011C661.948 487.892 696.313 491.857 738.714 491.857C781.114 491.857 815.479 487.899 815.479 483.011ZM246.282 508.348C246.282 502.592 194.252 497.928 130.075 497.928C65.8976 497.928 13.8467 502.592 13.8467 508.348C13.8467 514.103 65.8697 518.768 130.047 518.768C194.224 518.768 246.282 514.103 246.282 508.348ZM990.457 520.467C990.457 515.572 956.085 511.627 913.692 511.627C871.299 511.627 836.955 515.586 836.955 520.467C836.955 525.348 871.32 529.306 913.72 529.306C956.121 529.306 990.457 525.355 990.457 520.467Z" fill="#F2F2F2"/>
<path d="M646.326 382.294C671.285 373.615 675.851 349.32 661.655 321.627C640.696 333.963 626.192 361.58 646.326 382.294Z" fill="#DDE2F8"/>
<path d="M373.141 299.354V487.759C373.141 493.697 384.33 498.515 398.135 498.515H626.71C629.242 498.509 631.668 497.5 633.456 495.708C635.244 493.915 636.249 491.487 636.249 488.955V319.676C636.249 317.14 635.242 314.708 633.449 312.914C631.656 311.12 629.225 310.111 626.689 310.109H398.135C384.33 310.109 373.141 305.298 373.141 299.354Z" fill="url(#paint0_linear_439_1573)"/>
<path d="M373.141 299.353C373.141 305.297 384.33 310.109 398.135 310.109H616.507V298.157C616.507 295.621 615.5 293.189 613.707 291.395C611.914 289.601 609.483 288.592 606.947 288.59H398.135C384.33 288.59 373.141 293.409 373.141 299.353Z" fill="#822410"/>
<path d="M600.17 301.263H398.12C389.826 301.263 382.476 303.011 377.931 305.682C382.469 308.368 389.819 310.109 398.12 310.109H609.674C609.494 307.709 608.416 305.465 606.654 303.825C604.892 302.185 602.577 301.27 600.17 301.263Z" fill="#C1482F"/>
<path d="M636.248 361.279V376.804C642.542 376.804 647.675 374.251 647.675 371.097C647.675 367.943 642.577 365.104 636.248 361.279Z" fill="#53170A"/>
<path d="M636.247 376.804H594.085C586.297 376.923 578.869 380.101 573.403 385.651C567.938 391.2 564.875 398.677 564.875 406.466C564.875 414.255 567.938 421.731 573.403 427.281C578.869 432.83 586.297 436.008 594.085 436.128H636.247C642.541 436.128 647.674 433.568 647.674 430.414V371.097C647.695 374.251 642.576 376.804 636.247 376.804Z" fill="#822410"/>
<g style="mix-blend-mode:multiply">
<path d="M582.042 409.337C582.042 406.387 582.917 403.503 584.556 401.05C586.195 398.597 588.525 396.685 591.25 395.556C593.976 394.427 596.975 394.131 599.869 394.707C602.762 395.283 605.42 396.703 607.506 398.789C609.592 400.876 611.013 403.533 611.589 406.427C612.164 409.321 611.869 412.32 610.74 415.045C609.611 417.771 607.699 420.101 605.246 421.74C602.793 423.379 599.909 424.254 596.959 424.254C595 424.254 593.06 423.868 591.25 423.118C589.441 422.369 587.796 421.27 586.411 419.885C585.026 418.5 583.927 416.855 583.177 415.045C582.428 413.236 582.042 411.296 582.042 409.337Z" fill="#C4CAE9"/>
</g>
<path d="M579.17 406.469C579.169 403.519 580.042 400.634 581.68 398.18C583.319 395.726 585.648 393.813 588.373 392.683C591.099 391.553 594.098 391.256 596.992 391.831C599.886 392.406 602.545 393.826 604.632 395.912C606.719 397.998 608.14 400.656 608.716 403.549C609.292 406.443 608.997 409.443 607.868 412.169C606.74 414.895 604.828 417.225 602.375 418.864C599.921 420.504 597.037 421.379 594.087 421.379C590.132 421.377 586.34 419.806 583.543 417.01C580.747 414.215 579.174 410.423 579.17 406.469Z" fill="white"/>
<path d="M583.135 404.007C581.953 402.818 582.897 399.965 585.233 397.622C587.569 395.28 590.436 394.336 591.618 395.524C592.8 396.713 590.058 397.769 587.722 400.112C585.387 402.455 584.324 405.189 583.135 404.007Z" fill="#F2F2F2"/>
<path d="M620.701 330.676H609.673C608.959 330.676 608.274 330.393 607.769 329.888C607.264 329.383 606.98 328.698 606.98 327.984C606.98 327.27 607.264 326.585 607.769 326.08C608.274 325.575 608.959 325.292 609.673 325.292H620.701C621.415 325.292 622.1 325.575 622.605 326.08C623.11 326.585 623.393 327.27 623.393 327.984C623.393 328.698 623.11 329.383 622.605 329.888C622.1 330.393 621.415 330.676 620.701 330.676ZM593.12 330.676H582.091C581.377 330.676 580.692 330.393 580.187 329.888C579.682 329.383 579.399 328.698 579.399 327.984C579.399 327.27 579.682 326.585 580.187 326.08C580.692 325.575 581.377 325.292 582.091 325.292H593.12C593.834 325.292 594.518 325.575 595.023 326.08C595.528 326.585 595.812 327.27 595.812 327.984C595.812 328.698 595.528 329.383 595.023 329.888C594.518 330.393 593.834 330.676 593.12 330.676ZM565.545 330.676H554.51C553.796 330.676 553.111 330.393 552.606 329.888C552.101 329.383 551.817 328.698 551.817 327.984C551.817 327.27 552.101 326.585 552.606 326.08C553.111 325.575 553.796 325.292 554.51 325.292H565.545C566.259 325.292 566.944 325.575 567.449 326.08C567.954 326.585 568.237 327.27 568.237 327.984C568.237 328.698 567.954 329.383 567.449 329.888C566.944 330.393 566.259 330.676 565.545 330.676ZM537.964 330.676H526.928C526.214 330.676 525.529 330.393 525.024 329.888C524.519 329.383 524.236 328.698 524.236 327.984C524.236 327.27 524.519 326.585 525.024 326.08C525.529 325.575 526.214 325.292 526.928 325.292H537.964C538.678 325.292 539.363 325.575 539.867 326.08C540.372 326.585 540.656 327.27 540.656 327.984C540.656 328.698 540.372 329.383 539.867 329.888C539.363 330.393 538.678 330.676 537.964 330.676ZM510.382 330.676H499.347C498.633 330.676 497.948 330.393 497.443 329.888C496.938 329.383 496.654 328.698 496.654 327.984C496.654 327.27 496.938 326.585 497.443 326.08C497.948 325.575 498.633 325.292 499.347 325.292H510.368C511.082 325.292 511.767 325.575 512.272 326.08C512.777 326.585 513.061 327.27 513.061 327.984C513.061 328.698 512.777 329.383 512.272 329.888C511.767 330.393 511.082 330.676 510.368 330.676H510.382ZM482.801 330.676H471.772C471.058 330.676 470.373 330.393 469.868 329.888C469.364 329.383 469.08 328.698 469.08 327.984C469.08 327.27 469.364 326.585 469.868 326.08C470.373 325.575 471.058 325.292 471.772 325.292H482.801C483.515 325.292 484.2 325.575 484.704 326.08C485.209 326.585 485.493 327.27 485.493 327.984C485.493 328.698 485.209 329.383 484.704 329.888C484.2 330.393 483.515 330.676 482.801 330.676ZM455.219 330.676H444.191C443.477 330.676 442.792 330.393 442.287 329.888C441.782 329.383 441.498 328.698 441.498 327.984C441.498 327.27 441.782 326.585 442.287 326.08C442.792 325.575 443.477 325.292 444.191 325.292H455.219C455.933 325.292 456.618 325.575 457.123 326.08C457.628 326.585 457.912 327.27 457.912 327.984C457.912 328.698 457.628 329.383 457.123 329.888C456.618 330.393 455.933 330.676 455.219 330.676ZM427.638 330.676H416.609C415.895 330.676 415.21 330.393 414.705 329.888C414.201 329.383 413.917 328.698 413.917 327.984C413.917 327.27 414.201 326.585 414.705 326.08C415.21 325.575 415.895 325.292 416.609 325.292H427.638C428.352 325.292 429.037 325.575 429.542 326.08C430.046 326.585 430.33 327.27 430.33 327.984C430.33 328.698 430.046 329.383 429.542 329.888C429.037 330.393 428.352 330.676 427.638 330.676ZM400.063 330.676H398.86C398.146 330.676 397.461 330.393 396.957 329.888C396.452 329.383 396.168 328.698 396.168 327.984C396.168 327.27 396.452 326.585 396.957 326.08C397.461 325.575 398.146 325.292 398.86 325.292H400.063C400.777 325.292 401.462 325.575 401.967 326.08C402.472 326.585 402.756 327.27 402.756 327.984C402.756 328.698 402.472 329.383 401.967 329.888C401.462 330.393 400.777 330.676 400.063 330.676ZM620.701 483.34H609.673C609.307 483.358 608.942 483.302 608.598 483.175C608.255 483.048 607.941 482.853 607.676 482.6C607.41 482.348 607.199 482.045 607.055 481.708C606.91 481.372 606.836 481.01 606.836 480.644C606.836 480.278 606.91 479.915 607.055 479.579C607.199 479.243 607.41 478.939 607.676 478.687C607.941 478.435 608.255 478.239 608.598 478.112C608.942 477.985 609.307 477.929 609.673 477.948H620.701C621.392 477.983 622.044 478.282 622.52 478.784C622.997 479.286 623.263 479.951 623.263 480.644C623.263 481.336 622.997 482.002 622.52 482.503C622.044 483.005 621.392 483.304 620.701 483.34ZM593.12 483.34H582.091C581.4 483.304 580.749 483.005 580.272 482.503C579.795 482.002 579.529 481.336 579.529 480.644C579.529 479.951 579.795 479.286 580.272 478.784C580.749 478.282 581.4 477.983 582.091 477.948H593.12C593.485 477.929 593.851 477.985 594.194 478.112C594.537 478.239 594.851 478.435 595.116 478.687C595.382 478.939 595.593 479.243 595.737 479.579C595.882 479.915 595.956 480.278 595.956 480.644C595.956 481.01 595.882 481.372 595.737 481.708C595.593 482.045 595.382 482.348 595.116 482.6C594.851 482.853 594.537 483.048 594.194 483.175C593.851 483.302 593.485 483.358 593.12 483.34ZM565.545 483.34H554.51C553.818 483.304 553.167 483.005 552.69 482.503C552.214 482.002 551.948 481.336 551.948 480.644C551.948 479.951 552.214 479.286 552.69 478.784C553.167 478.282 553.818 477.983 554.51 477.948H565.545C566.236 477.983 566.888 478.282 567.364 478.784C567.841 479.286 568.107 479.951 568.107 480.644C568.107 481.336 567.841 482.002 567.364 482.503C566.888 483.005 566.236 483.304 565.545 483.34ZM537.964 483.34H526.928C526.237 483.304 525.586 483.005 525.109 482.503C524.632 482.002 524.366 481.336 524.366 480.644C524.366 479.951 524.632 479.286 525.109 478.784C525.586 478.282 526.237 477.983 526.928 477.948H537.964C538.655 477.983 539.306 478.282 539.783 478.784C540.26 479.286 540.526 479.951 540.526 480.644C540.526 481.336 540.26 482.002 539.783 482.503C539.306 483.005 538.655 483.304 537.964 483.34ZM510.382 483.34H499.347C498.655 483.304 498.004 483.005 497.527 482.503C497.051 482.002 496.785 481.336 496.785 480.644C496.785 479.951 497.051 479.286 497.527 478.784C498.004 478.282 498.655 477.983 499.347 477.948H510.368C511.059 477.983 511.711 478.282 512.188 478.784C512.664 479.286 512.93 479.951 512.93 480.644C512.93 481.336 512.664 482.002 512.188 482.503C511.711 483.005 511.059 483.304 510.368 483.34H510.382ZM482.801 483.34H471.772C471.407 483.358 471.041 483.302 470.698 483.175C470.355 483.048 470.041 482.853 469.775 482.6C469.51 482.348 469.299 482.045 469.154 481.708C469.01 481.372 468.936 481.01 468.936 480.644C468.936 480.278 469.01 479.915 469.154 479.579C469.299 479.243 469.51 478.939 469.775 478.687C470.041 478.435 470.355 478.239 470.698 478.112C471.041 477.985 471.407 477.929 471.772 477.948H482.801C483.492 477.983 484.143 478.282 484.62 478.784C485.097 479.286 485.363 479.951 485.363 480.644C485.363 481.336 485.097 482.002 484.62 482.503C484.143 483.005 483.492 483.304 482.801 483.34ZM455.219 483.34H444.191C443.5 483.304 442.848 483.005 442.371 482.503C441.895 482.002 441.629 481.336 441.629 480.644C441.629 479.951 441.895 479.286 442.371 478.784C442.848 478.282 443.5 477.983 444.191 477.948H455.219C455.91 477.983 456.562 478.282 457.039 478.784C457.515 479.286 457.781 479.951 457.781 480.644C457.781 481.336 457.515 482.002 457.039 482.503C456.562 483.005 455.91 483.304 455.219 483.34ZM427.638 483.34H416.609C415.918 483.304 415.267 483.005 414.79 482.503C414.313 482.002 414.047 481.336 414.047 480.644C414.047 479.951 414.313 479.286 414.79 478.784C415.267 478.282 415.918 477.983 416.609 477.948H427.638C428.003 477.929 428.369 477.985 428.712 478.112C429.055 478.239 429.369 478.435 429.635 478.687C429.9 478.939 430.111 479.243 430.256 479.579C430.4 479.915 430.474 480.278 430.474 480.644C430.474 481.01 430.4 481.372 430.256 481.708C430.111 482.045 429.9 482.348 429.635 482.6C429.369 482.853 429.055 483.048 428.712 483.175C428.369 483.302 428.003 483.358 427.638 483.34ZM400.063 483.34H398.86C398.169 483.304 397.518 483.005 397.041 482.503C396.564 482.002 396.298 481.336 396.298 480.644C396.298 479.951 396.564 479.286 397.041 478.784C397.518 478.282 398.169 477.983 398.86 477.948H400.063C400.754 477.983 401.406 478.282 401.883 478.784C402.359 479.286 402.625 479.951 402.625 480.644C402.625 481.336 402.359 482.002 401.883 482.503C401.406 483.005 400.754 483.304 400.063 483.34Z" fill="#822410"/>
<mask id="mask0_439_1573" style="mask-type:luminance" maskUnits="userSpaceOnUse" x="376" y="0" width="334" height="311">
<path d="M709.461 0.768555H376.651V310.109H709.461V0.768555Z" fill="white"/>
</mask>
<g mask="url(#mask0_439_1573)">
<path d="M503.689 137.949L415.94 409.785L544.944 451.427L632.692 179.591L503.689 137.949Z" fill="#516B3E"/>
<path d="M591.064 176.363L539.461 159.705C533.216 179.041 514.949 190.475 498.669 185.195L439.457 368.538C455.744 373.797 463.885 393.714 457.64 413.071L509.243 429.729C515.488 410.393 533.719 398.958 550.035 404.238L609.24 220.868C592.959 215.644 584.812 195.699 591.064 176.363Z" fill="#8CB070"/>
<path d="M511.516 334.473C503.656 331.933 496.726 327.12 491.601 320.642C486.477 314.164 483.389 306.311 482.727 298.078C482.065 289.844 483.86 281.6 487.884 274.386C491.908 267.173 497.981 261.314 505.334 257.552C512.687 253.79 520.991 252.293 529.196 253.25C537.4 254.207 545.136 257.575 551.426 262.929C557.716 268.283 562.277 275.381 564.533 283.327C566.789 291.273 566.637 299.71 564.098 307.57C562.413 312.79 559.716 317.626 556.161 321.803C552.607 325.981 548.264 329.416 543.381 331.915C538.498 334.413 533.17 335.925 527.703 336.364C522.235 336.803 516.735 336.16 511.516 334.473Z" fill="#516B3E"/>
<path d="M521.083 301.515C519.334 302.926 517.261 303.879 515.051 304.287C512.84 304.694 510.563 304.544 508.426 303.85C506.248 303.243 504.223 302.186 502.481 300.745C498.222 300.801 498.39 294.165 498.754 287.241C498.971 283.045 499.831 268.038 507.572 278.325C509.344 277.618 511.246 277.293 513.152 277.371C515.058 277.449 516.926 277.929 518.634 278.778C520.342 279.628 521.852 280.828 523.065 282.301C524.277 283.774 525.165 285.486 525.671 287.325C533.273 275.059 543.091 277.332 554.134 280.891L540.441 323.375C529.377 319.809 520.251 315.389 521.083 301.515Z" fill="#8CB070"/>
<path d="M539.413 250.093C539.204 250.094 538.996 250.061 538.798 249.995C538.288 249.831 537.864 249.472 537.619 248.996C537.374 248.52 537.327 247.966 537.49 247.456L551.141 205.189C551.306 204.679 551.667 204.255 552.144 204.011C552.622 203.767 553.176 203.723 553.687 203.888C554.197 204.053 554.62 204.414 554.864 204.892C555.108 205.369 555.152 205.924 554.987 206.434L541.336 248.694C541.205 249.101 540.948 249.455 540.602 249.706C540.257 249.958 539.841 250.093 539.413 250.093ZM528.553 236.365C528.342 236.366 528.132 236.336 527.93 236.274C527.678 236.192 527.444 236.062 527.242 235.89C527.04 235.717 526.873 235.507 526.753 235.271C526.632 235.034 526.559 234.777 526.538 234.512C526.517 234.247 526.548 233.981 526.63 233.729L534.322 209.951C534.402 209.699 534.532 209.464 534.703 209.262C534.874 209.059 535.084 208.893 535.32 208.772C535.556 208.651 535.814 208.578 536.078 208.557C536.343 208.536 536.609 208.568 536.861 208.651C537.371 208.816 537.795 209.176 538.04 209.653C538.285 210.13 538.331 210.685 538.168 211.196L530.476 234.973C530.343 235.379 530.086 235.731 529.74 235.981C529.395 236.231 528.979 236.366 528.553 236.365ZM556.225 245.309C556.014 245.311 555.803 245.278 555.603 245.212C555.35 245.131 555.117 245.001 554.914 244.829C554.712 244.658 554.546 244.448 554.425 244.212C554.305 243.976 554.232 243.719 554.21 243.455C554.189 243.191 554.22 242.925 554.302 242.673L561.995 218.896C562.16 218.386 562.521 217.962 562.998 217.718C563.475 217.474 564.03 217.43 564.54 217.595C565.05 217.76 565.474 218.121 565.718 218.598C565.962 219.076 566.006 219.631 565.841 220.141L558.148 243.918C558.015 244.323 557.758 244.676 557.413 244.926C557.067 245.176 556.651 245.31 556.225 245.309Z" fill="#516B3E"/>
</g>
<mask id="mask1_439_1573" style="mask-type:luminance" maskUnits="userSpaceOnUse" x="361" y="106" width="257" height="205">
<path d="M617.26 106.947H361.362L393.909 310.115H617.26V106.947Z" fill="white"/>
</mask>
<g mask="url(#mask1_439_1573)">
<path d="M514.786 129.409L380.703 149.352L422.727 431.891L556.81 411.948L514.786 129.409Z" fill="#608147"/>
<path d="M475.989 144.983L422.351 152.956C425.344 173.061 414.043 191.419 397.119 193.915L425.463 384.503C442.387 381.985 458.534 396.238 461.527 416.343L515.159 408.399C512.165 388.293 523.467 369.936 540.39 367.439L512.054 176.817C495.123 179.334 478.975 165.082 475.989 144.983Z" fill="#8CB070"/>
<path d="M474.898 321.969C466.728 323.183 458.381 321.948 450.913 318.418C443.445 314.889 437.192 309.225 432.943 302.141C428.694 295.058 426.641 286.874 427.044 278.624C427.446 270.374 430.286 262.429 435.204 255.792C440.122 249.156 446.897 244.127 454.673 241.342C462.449 238.556 470.876 238.139 478.889 240.143C486.902 242.146 494.142 246.481 499.691 252.599C505.241 258.717 508.852 266.343 510.067 274.513C510.874 279.938 510.605 285.469 509.274 290.79C507.944 296.112 505.578 301.118 502.312 305.525C499.046 309.932 494.944 313.652 490.241 316.474C485.537 319.295 480.323 321.163 474.898 321.969Z" fill="#608147"/>
<path d="M468.842 288.184C468.059 294.548 453.779 296.297 451.828 295.758C448.037 297.702 445.24 291.681 442.492 285.31C440.82 281.45 434.939 267.624 446.436 273.422C448.471 271.149 461.716 266.673 466.647 273.422C468.045 259.057 477.836 256.736 489.298 255.029L495.864 299.185C484.395 300.898 474.248 300.996 468.842 288.184Z" fill="#8CB070"/>
<path d="M482.501 375.104C482.017 375.103 481.55 374.929 481.183 374.613C480.816 374.298 480.574 373.861 480.501 373.383L474.004 329.452C473.925 328.921 474.06 328.381 474.38 327.95C474.699 327.519 475.177 327.233 475.707 327.154C476.237 327.075 476.777 327.211 477.208 327.53C477.639 327.849 477.925 328.327 478.004 328.857L484.494 372.789C484.57 373.318 484.435 373.856 484.116 374.285C483.798 374.715 483.323 375.001 482.795 375.083L482.501 375.104ZM466.703 367.635C466.219 367.633 465.752 367.458 465.386 367.141C465.02 366.824 464.78 366.386 464.71 365.907L461.032 341.2C460.953 340.67 461.088 340.13 461.407 339.699C461.727 339.268 462.204 338.982 462.734 338.903C463.265 338.824 463.805 338.959 464.236 339.279C464.667 339.598 464.953 340.075 465.032 340.606L468.703 365.313C468.743 365.576 468.73 365.844 468.667 366.101C468.603 366.359 468.488 366.602 468.331 366.816C468.173 367.029 467.974 367.21 467.747 367.347C467.519 367.484 467.267 367.575 467.004 367.614C466.904 367.628 466.804 367.635 466.703 367.635ZM495.439 363.355C494.954 363.355 494.486 363.182 494.119 362.866C493.752 362.55 493.51 362.113 493.438 361.635L489.767 336.927C489.716 336.411 489.866 335.895 490.185 335.486C490.504 335.077 490.968 334.806 491.481 334.73C491.994 334.654 492.517 334.777 492.941 335.076C493.365 335.374 493.658 335.824 493.76 336.333L497.439 361.04C497.477 361.303 497.464 361.57 497.399 361.828C497.334 362.085 497.219 362.328 497.061 362.541C496.902 362.754 496.703 362.933 496.475 363.069C496.247 363.206 495.995 363.295 495.732 363.334C495.635 363.351 495.537 363.358 495.439 363.355ZM461.542 234.189C461.058 234.189 460.59 234.014 460.224 233.697C459.857 233.38 459.618 232.941 459.549 232.462L453.024 188.537C452.945 188.007 453.081 187.467 453.4 187.036C453.719 186.605 454.197 186.319 454.727 186.24C455.258 186.161 455.798 186.296 456.228 186.615C456.659 186.935 456.946 187.412 457.024 187.943L463.514 231.867C463.554 232.13 463.541 232.397 463.477 232.655C463.413 232.912 463.299 233.154 463.141 233.367C462.983 233.58 462.785 233.76 462.557 233.897C462.33 234.033 462.077 234.123 461.815 234.161C461.725 234.179 461.634 234.188 461.542 234.189ZM445.744 226.713C445.261 226.713 444.794 226.54 444.428 226.224C444.062 225.908 443.822 225.471 443.751 224.993L440.073 200.286C440.034 200.023 440.047 199.755 440.111 199.498C440.176 199.24 440.29 198.998 440.448 198.784C440.607 198.571 440.805 198.391 441.033 198.254C441.261 198.118 441.513 198.027 441.776 197.988C442.038 197.949 442.306 197.962 442.564 198.027C442.821 198.091 443.064 198.206 443.277 198.364C443.49 198.522 443.67 198.721 443.807 198.949C443.943 199.176 444.034 199.429 444.073 199.691L447.744 224.399C447.784 224.661 447.771 224.928 447.707 225.186C447.643 225.443 447.529 225.685 447.371 225.898C447.213 226.112 447.015 226.291 446.787 226.428C446.56 226.564 446.307 226.654 446.045 226.692L445.744 226.713ZM474.48 222.44C473.996 222.439 473.528 222.265 473.162 221.95C472.795 221.634 472.553 221.198 472.48 220.72L468.808 196.006C468.769 195.743 468.782 195.475 468.847 195.218C468.911 194.96 469.026 194.718 469.184 194.505C469.342 194.291 469.54 194.111 469.768 193.975C469.996 193.838 470.248 193.748 470.511 193.709C470.774 193.67 471.041 193.683 471.299 193.747C471.557 193.812 471.799 193.926 472.012 194.084C472.226 194.242 472.406 194.441 472.542 194.669C472.679 194.896 472.769 195.149 472.808 195.411L476.48 220.126C476.556 220.655 476.42 221.193 476.102 221.622C475.784 222.052 475.309 222.338 474.78 222.419L474.48 222.44Z" fill="#608147"/>
</g>
<path d="M411.519 500.851C399.896 494.061 381.049 494.061 369.51 500.851C363.769 504.229 360.895 508.656 360.888 513.089V523.167C360.888 518.726 363.776 514.299 369.517 510.921C381.056 504.131 399.903 504.131 411.526 510.921C417.372 514.341 420.296 518.845 420.282 523.335C420.282 520.313 420.282 516.285 420.282 513.264C420.289 508.775 417.358 504.271 411.519 500.851Z" fill="#BFA049"/>
<path d="M411.52 504.208C423.143 511.005 423.206 522.054 411.667 528.845C400.128 535.635 381.26 535.642 369.637 528.845C358.014 522.047 357.965 511.005 369.511 504.208C381.057 497.41 399.876 497.424 411.52 504.208ZM390.61 513.299C390.651 512.808 390.822 512.336 391.105 511.932C391.387 511.528 391.771 511.206 392.218 510.998C393.431 510.371 394.776 510.043 396.142 510.043C397.507 510.043 398.852 510.371 400.065 510.998C402.233 512.264 402.247 514.327 400.065 515.6L403.645 517.698C407.142 515.642 407.639 512.481 405.156 510.096L407.953 508.453L404.387 506.355L401.589 508.005C397.505 506.55 392.127 506.858 388.631 508.914C386.645 510.089 385.547 511.648 385.561 513.306C385.575 514.963 386.68 516.516 388.68 517.691C390.855 518.956 390.855 521.019 388.68 522.285C387.467 522.912 386.122 523.24 384.757 523.24C383.391 523.24 382.046 522.912 380.833 522.285C378.665 521.019 378.651 518.956 380.833 517.691L377.26 515.593C373.763 517.649 373.26 520.803 375.742 523.194L373.162 524.712L376.728 526.81L379.316 525.292C383.386 526.74 388.778 526.432 392.274 524.376C396.386 521.957 396.351 518.019 392.218 515.607C391.169 514.984 390.575 514.208 390.582 513.306L390.61 513.299Z" fill="#FFE49A"/>
<path d="M427.149 513.298V523.369C427.149 528.823 423.59 534.271 416.519 538.425C402.288 546.817 379.133 546.817 364.769 538.425C357.566 534.229 353.965 528.683 353.979 523.159V513.088C353.979 518.606 357.566 524.145 364.776 528.355C379.098 536.747 402.253 536.747 416.491 528.355C423.59 524.173 427.149 518.732 427.149 513.298Z" fill="#BFA049"/>
<path d="M416.352 498.004C430.681 506.396 430.758 519.963 416.527 528.334C402.295 536.705 379.133 536.726 364.811 528.334C350.489 519.942 350.412 506.375 364.643 498.004C378.875 489.633 402.029 489.626 416.352 498.004ZM369.637 525.488C381.259 532.285 400.113 532.285 411.666 525.488C423.219 518.69 423.142 507.648 411.519 500.85C399.897 494.053 381.05 494.06 369.511 500.85C357.972 507.641 358.014 518.697 369.637 525.488Z" fill="#ECC047"/>
<path d="M407.968 505.718L405.17 507.361C407.653 509.746 407.156 512.907 403.66 514.963L400.079 512.865C402.24 511.592 402.226 509.536 400.079 508.263C398.866 507.638 397.521 507.311 396.156 507.311C394.791 507.311 393.446 507.638 392.233 508.263C391.786 508.471 391.402 508.793 391.119 509.197C390.837 509.601 390.666 510.073 390.624 510.564C390.624 511.431 391.212 512.249 392.261 512.865C396.394 515.284 396.457 519.222 392.317 521.641C388.82 523.697 383.428 523.998 379.358 522.55L376.771 524.068L373.204 521.97L375.785 520.452C373.302 518.061 373.806 514.907 377.302 512.851L380.876 514.949C378.715 516.222 378.729 518.285 380.876 519.55C382.088 520.178 383.434 520.505 384.799 520.505C386.164 520.505 387.51 520.178 388.722 519.55C390.869 518.285 390.869 516.222 388.722 514.949C386.722 513.781 385.61 512.221 385.603 510.564C385.596 508.907 386.687 507.347 388.673 506.179C392.17 504.123 397.548 503.815 401.632 505.263L404.429 503.62L407.968 505.718Z" fill="#ECC047"/>
<path d="M388.687 517.648C389.122 517.893 389.504 518.221 389.813 518.613C390.736 517.411 390.379 515.949 388.687 514.963C386.785 513.851 385.694 512.382 385.589 510.816C385.589 510.816 385.589 513.18 385.589 513.264C385.589 514.921 386.701 516.473 388.687 517.648ZM374.456 521.243L375.756 520.481C375.289 520.073 374.912 519.573 374.647 519.012C374.382 518.451 374.236 517.842 374.218 517.222C374.218 517.222 374.218 519.928 374.218 519.928C374.227 520.377 374.312 520.822 374.47 521.243H374.456ZM392.288 521.655C388.792 523.711 383.4 524.012 379.33 522.565L376.742 524.082L373.176 521.984V524.67L376.742 526.768L379.33 525.25C383.4 526.698 388.792 526.39 392.288 524.334C394.386 523.124 395.372 521.537 395.351 519.928V517.271C395.372 518.893 394.351 520.446 392.302 521.69L392.288 521.655ZM379.742 518.599C380.045 518.214 380.421 517.89 380.847 517.648V514.963C379.183 515.949 378.826 517.411 379.756 518.599H379.742ZM405.163 507.361C405.737 507.893 406.182 508.548 406.464 509.277L407.953 508.403V505.718L405.163 507.361ZM403.652 514.963L400.072 512.865V515.55L403.652 517.648C405.709 516.438 406.716 514.851 406.702 513.257V510.641C406.709 512.208 405.694 513.774 403.666 514.963H403.652ZM401.191 511.9C402.121 510.704 401.757 509.242 400.065 508.249C398.852 507.624 397.507 507.297 396.142 507.297C394.777 507.297 393.432 507.624 392.218 508.249C391.771 508.457 391.387 508.779 391.105 509.183C390.822 509.587 390.652 510.059 390.61 510.55C390.623 511.039 390.8 511.51 391.114 511.886C391.418 511.501 391.793 511.178 392.218 510.935C393.431 510.307 394.776 509.98 396.142 509.98C397.507 509.98 398.852 510.307 400.065 510.935C400.498 511.182 400.881 511.509 401.191 511.9Z" fill="#BFA049"/>
<path d="M755.785 319.767C753.408 341.446 736.204 372.217 728.973 399.015C733.127 417.267 729.029 440.443 729.134 468.899H722.099C717.665 452.276 714.014 432.764 707.546 401.763C705.329 391.14 706.147 346.083 719.931 323.292C726.665 322.683 755.785 319.767 755.785 319.767Z" fill="#A9402A"/>
<path d="M730.197 471.472C729.663 470.7 729.301 469.823 729.134 468.899H722.099C722.796 470.367 722.884 472.052 722.343 473.584C724.176 474.284 726.854 472.472 730.197 471.472Z" fill="#CD9D91"/>
<path d="M730.196 471.472C726.854 472.472 724.175 474.269 722.343 473.57C721.378 474.269 707.098 479.409 705.643 480.402C704.188 481.395 704.37 482.997 705.951 482.997C708.252 482.997 727.21 482.164 727.21 482.164C727.595 482.584 727.91 482.997 727.91 482.997H732.238C733.532 480.773 733.183 474.052 730.196 471.472Z" fill="#20196F"/>
<path d="M762.191 318.885C766.122 341.529 762.891 371.398 756.338 398.182C762.954 414.966 763.814 436.645 767.737 468.891H760.73C752.611 449.079 744.792 430.428 732.862 401.755C728.666 391.734 718.532 336.396 727.54 309.584L762.191 318.885Z" fill="#C1482F"/>
<path d="M768.792 471.472C768.262 470.699 767.902 469.822 767.736 468.899H760.729C761.076 469.625 761.278 470.413 761.321 471.217C761.364 472.021 761.248 472.825 760.98 473.584C762.778 474.284 765.456 472.472 768.792 471.472Z" fill="#CD9D91"/>
<path d="M768.792 471.472C765.456 472.472 762.778 474.269 760.945 473.57C759.98 474.269 745.7 479.409 744.245 480.402C742.791 481.395 742.972 482.997 744.546 482.997C746.854 482.997 765.813 482.164 765.813 482.164C766.197 482.584 766.512 482.997 766.512 482.997H770.841C772.134 480.773 771.785 474.052 768.792 471.472Z" fill="#20196F"/>
<path d="M725.67 249.204C729.747 254.246 716.278 289.352 687.354 295.507C668.57 299.507 641.793 297.842 641.793 297.842C642.296 295.045 642.835 290.849 642.835 290.849C647.919 291.604 673.018 283.975 682.431 280.562C696.026 275.625 716.048 237.315 725.67 249.204Z" fill="#EEE8AE"/>
<path d="M732.135 240.12C737.785 245.127 746.184 248.386 751.758 265.59C757.331 282.793 762.192 318.885 762.192 318.885C759.317 319.382 719.931 323.305 719.931 323.305C716.344 312.955 710.378 293.234 711.099 276.087C711.819 258.939 718.211 247.309 720.407 244.19C728.183 242.854 732.135 240.12 732.135 240.12Z" fill="#F9F3C1"/>
<path d="M728.454 228.015C728.769 230.526 730.832 239.204 733.559 241.302C732.356 242.806 726.985 244.799 718.789 246.834C719.656 244.96 721.209 242.701 718.901 240.344C716.397 237.785 714.453 242.575 710.866 238.246C706.67 233.197 702.998 222.085 704.914 218.245C707.061 213.951 712.041 208.105 721.447 210.853C729.125 213.091 727.81 222.917 728.454 228.015Z" fill="#CD9D91"/>
<path d="M720.866 224.015C719.019 224.512 718.768 219.393 717.075 218.574C715.117 217.609 709.515 218.176 704.424 220.071C699.333 221.966 694.347 215.959 696.977 212.28C699.606 208.602 703.641 211.742 705.928 210.28C708.592 208.574 707.18 205.154 711.599 204.441C715.677 203.742 714.802 207.938 717.502 207.938C720.201 207.938 723.257 203.518 727.488 206.812C730.621 209.259 727.488 211.931 728.74 215.204C729.509 217.26 736.342 222.197 731.334 226.239C726.327 230.281 726.173 224.183 725.873 221.714C725.572 219.246 724.082 217.938 722.873 218.218C721.663 218.497 723.53 223.309 720.866 224.015Z" fill="#573831"/>
<mask id="mask2_439_1573" style="mask-type:luminance" maskUnits="userSpaceOnUse" x="548" y="219" width="152" height="136">
<path d="M548.636 219.518V310.109H626.709C629.241 310.116 631.667 311.128 633.455 312.921C635.243 314.714 636.248 317.143 636.248 319.676V354.908H699.264V219.518H548.636Z" fill="white"/>
</mask>
<g mask="url(#mask2_439_1573)">
<path d="M576.505 254.547C583.143 245.092 592.436 237.817 603.209 233.643C613.982 229.468 625.751 228.583 637.027 231.097C648.304 233.612 658.581 239.413 666.56 247.769C674.539 256.124 679.861 266.658 681.854 278.039C683.846 289.419 682.419 301.134 677.753 311.704C673.087 322.273 665.391 331.221 655.64 337.417C645.888 343.612 634.518 346.777 622.968 346.511C611.418 346.245 600.206 342.559 590.75 335.921C578.073 327.017 569.451 313.443 566.78 298.184C564.108 282.924 567.606 267.228 576.505 254.547Z" fill="#ECC047"/>
<path d="M581.47 258.044C575.527 266.52 572.229 276.568 571.995 286.917C571.761 297.267 574.6 307.453 580.154 316.189C585.708 324.925 593.727 331.819 603.198 335.998C612.669 340.177 623.166 341.455 633.363 339.669C643.56 337.883 652.999 333.115 660.486 325.966C667.973 318.817 673.173 309.609 675.428 299.505C677.683 289.402 676.891 278.856 673.154 269.202C669.417 259.548 662.901 251.219 654.431 245.268C643.06 237.293 628.987 234.159 615.306 236.555C601.625 238.951 589.455 246.68 581.47 258.044Z" fill="#BFA049"/>
<path d="M585.015 260.513C579.556 268.286 576.525 277.503 576.304 286.998C576.083 296.494 578.684 305.841 583.776 313.859C588.868 321.877 596.223 328.205 604.911 332.042C613.6 335.88 623.231 337.054 632.587 335.418C641.943 333.782 650.604 329.408 657.474 322.849C664.344 316.291 669.115 307.842 671.184 298.572C673.253 289.302 672.526 279.627 669.095 270.77C665.665 261.913 659.685 254.272 651.913 248.813C641.485 241.509 628.586 238.638 616.045 240.831C603.503 243.025 592.344 250.103 585.015 260.513Z" fill="url(#paint1_linear_439_1573)"/>
<path d="M626.458 285.018C624.535 283.667 623.227 281.607 622.822 279.291C622.418 276.976 622.95 274.594 624.301 272.671C625.652 270.748 627.712 269.44 630.027 269.035C632.343 268.631 634.724 269.162 636.647 270.514C638.568 271.866 639.874 273.925 640.278 276.24C640.681 278.554 640.151 280.934 638.801 282.857L645.389 287.479C647.556 284.383 648.622 280.649 648.418 276.876C648.214 273.102 646.751 269.505 644.263 266.66L647.907 261.464L641.333 256.842L637.682 262.038C633.834 260.539 629.569 260.503 625.696 261.935C621.822 263.368 618.608 266.17 616.66 269.813C614.713 273.455 614.168 277.684 615.128 281.701C616.088 285.718 618.487 289.244 621.871 291.612C623.305 292.619 624.409 294.028 625.043 295.661C625.677 297.295 625.812 299.08 625.432 300.79C625.051 302.501 624.172 304.06 622.905 305.271C621.639 306.482 620.042 307.29 618.316 307.593C616.59 307.896 614.813 307.681 613.209 306.974C611.606 306.267 610.248 305.101 609.307 303.623C608.366 302.144 607.885 300.42 607.925 298.668C607.964 296.916 608.522 295.215 609.528 293.78L602.947 289.158C600.78 292.254 599.713 295.987 599.916 299.76C600.119 303.534 601.58 307.131 604.066 309.977L600.702 314.767L607.283 319.39L610.646 314.592C614.498 316.107 618.771 316.155 622.655 314.726C626.539 313.298 629.763 310.492 631.715 306.842C633.666 303.192 634.209 298.953 633.24 294.93C632.27 290.906 629.857 287.379 626.458 285.018Z" fill="#ECC047"/>
</g>
<path d="M738.034 250.484C742.503 255.183 731.88 291.255 703.544 299.703C685.144 305.192 652.297 303.031 652.297 303.031C652.577 300.185 652.779 295.989 652.779 295.989C657.898 296.332 688.333 289.36 697.438 285.199C710.6 279.191 727.489 239.4 738.034 250.484Z" fill="#FEFAD7"/>
<path d="M652.781 295.989C650.851 296.038 651.047 294.367 648.991 293.269C646.935 292.171 646.124 289.647 645.494 290.045C644.865 290.444 646.124 293.353 646.599 293.912C645.355 293.577 639.04 291.318 638.403 292.759C637.886 293.933 636.718 294.157 637.005 295.661C637.291 297.164 639.103 299.857 642.047 300.752C644.991 301.647 646.942 302.255 648.627 301.976C649.878 301.813 651.146 301.855 652.383 302.102C652.467 301.109 652.781 295.989 652.781 295.989Z" fill="#CD9D91"/>
<path d="M880.069 413.462C877.643 420.281 873.293 428.295 873.293 439.338C873.293 450.38 877.762 508.333 877.762 511.48H883.279C883.279 507.802 890.147 459.548 885.552 442.079C889.2 433.593 893.529 425.417 898.497 417.63L880.069 413.462Z" fill="#CD9D91"/>
<path d="M880.257 518.732C880.746 518.799 881.201 519.018 881.557 519.359C881.914 519.699 882.154 520.143 882.244 520.627H883.761C884.672 518.863 884.92 516.831 884.46 514.9C883.964 512.872 883.446 513.361 882.915 513.886C881.712 514.865 876.81 515.187 876.425 513.536C875.159 513.725 862.131 517.481 862.131 518.683C862.131 520.634 863.662 520.627 864.704 520.627C877.027 520.627 875.418 519.872 880.257 518.732Z" fill="#003E7A"/>
<path d="M877.761 511.466C878.181 509.613 883.551 508.215 883.279 511.466C883.194 512.178 883.29 512.9 883.558 513.564C882.356 514.543 871.138 518.012 869.285 515.606C870.572 514.886 877.761 513.439 877.761 511.466ZM937.288 425.918L937.637 412.323L916.231 415.868C916.231 415.868 923.056 429.736 925.693 433.659C926.295 434.556 927.067 435.326 927.966 435.925C937.141 442.058 982.842 467.269 985.464 469.017L988.527 464.437C985.513 462.409 952.435 432.729 937.288 425.918Z" fill="#CD9D91"/>
<path d="M992.905 470.983C993.23 470.612 993.664 470.354 994.146 470.245C994.627 470.137 995.13 470.185 995.583 470.381C996.233 469.416 996.401 469.157 996.422 469.123C995.466 467.384 993.917 466.047 992.058 465.353C990.093 464.654 990.212 465.353 990.352 466.052C990.499 467.591 988.037 471.85 986.457 471.248C985.911 472.409 981.778 485.326 982.785 485.99C984.408 487.081 985.254 485.801 985.834 484.934C992.681 474.717 991.142 475.647 992.905 470.983Z" fill="#003E7A"/>
<path d="M985.473 469.01C984.165 467.611 985.99 462.387 988.536 464.429C989.079 464.883 989.725 465.197 990.417 465.346C990.557 466.891 987.2 478.15 984.172 478.346C984.312 476.885 987.109 470.108 985.473 469.01Z" fill="#F7D3C9"/>
<path d="M929.267 358.334H903.525C894.727 365.034 886.741 392.748 865.181 406.406C882.251 416.896 894.601 421.246 910.749 422.428C925.68 423.519 933.736 421.903 951.855 410.868C945.883 407.651 938.072 398.182 936.624 385.126C935.078 371.412 932.764 358.334 929.267 358.334Z" fill="#F1F5D8"/>
<path d="M905.279 273.198C905.754 276.108 901.656 296.878 896.146 307.116C899.076 307.857 909.013 307.948 912.342 305.151C914.44 299.017 911.027 276.128 909.279 270.96C906.125 270.96 905.279 273.198 905.279 273.198Z" fill="#573831"/>
<path d="M860.815 237.764C861.514 237.064 863.305 244.288 863.27 243.631C862.906 237.603 863.095 233.687 863.557 233.687C864.2 233.687 865.039 241.379 865.039 243.435C865.039 241.407 865.144 235.882 866.333 234.575C866.738 234.12 867.074 241.624 867.074 243.722C867.074 241.421 867.515 234.868 868.606 234.987C869.697 235.106 869.165 241.981 868.738 244.225C868.738 244.225 872.088 240.029 872.088 241.652C872.088 242.68 870.074 244.645 870.074 248.778C870.074 251.666 869.207 251.925 869.186 253.016C874.438 281.8 896.789 300.165 902.054 302.13C902.054 302.13 905.327 311.536 898.509 316.116C871.424 294.983 862.403 260.072 862.263 252.673L862.144 252.617C861.724 249.016 860.27 238.281 860.815 237.764Z" fill="#CD9D91"/>
<path d="M902.336 359.349C900.539 359.349 899.07 359.608 899.895 351.88C900.72 344.153 901.574 341.628 900.259 337.425C898.944 333.222 895.447 329.285 894.482 323.949C895.182 318.515 899.825 308.62 901.049 303.808C902.273 298.997 914.798 297.417 922.497 297.417C930.197 297.417 932.568 305.298 933.533 313.263C934.498 321.229 936.596 360.118 931.001 359.489C923.393 358.671 902.336 359.349 902.336 359.349Z" fill="#C1482F"/>
<path d="M845.347 228.672C841.167 219.553 839.785 209.398 841.376 199.494C842.967 189.589 847.459 180.378 854.285 173.026C861.11 165.675 869.963 160.512 879.722 158.191C889.482 155.87 899.71 156.495 909.115 159.988C918.519 163.48 926.676 169.683 932.555 177.811C938.435 185.94 941.771 195.629 942.144 205.654C942.516 215.679 939.908 225.589 934.648 234.131C929.388 242.673 921.714 249.464 912.595 253.645C906.54 256.422 899.997 257.979 893.34 258.227C886.683 258.474 880.042 257.408 873.798 255.089C867.553 252.77 861.826 249.244 856.945 244.711C852.063 240.178 848.122 234.728 845.347 228.672Z" fill="#ECC047"/>
<path d="M852.383 225.428C855.928 233.16 861.686 239.667 868.93 244.126C876.173 248.586 884.576 250.797 893.076 250.481C901.576 250.165 909.792 247.336 916.684 242.351C923.576 237.365 928.835 230.449 931.796 222.475C934.757 214.501 935.287 205.828 933.32 197.552C931.352 189.277 926.974 181.771 920.741 175.984C914.507 170.196 906.697 166.387 898.299 165.038C889.901 163.689 881.291 164.861 873.558 168.405C863.194 173.165 855.143 181.844 851.173 192.535C847.203 203.227 847.638 215.057 852.383 225.428Z" fill="#BFA049"/>
<path d="M855.913 223.813C859.138 230.845 864.376 236.764 870.965 240.82C877.553 244.876 885.197 246.887 892.928 246.599C900.66 246.312 908.133 243.738 914.401 239.203C920.67 234.668 925.454 228.377 928.147 221.124C930.84 213.87 931.322 205.981 929.532 198.454C927.742 190.927 923.76 184.1 918.089 178.836C912.419 173.572 905.316 170.108 897.676 168.881C890.037 167.654 882.206 168.72 875.173 171.944C865.747 176.276 858.426 184.17 854.815 193.895C851.205 203.619 851.599 214.379 855.913 223.813Z" fill="#FFE49A"/>
<path d="M890.103 204.524C888.72 205.157 887.18 205.366 885.679 205.124C884.177 204.882 882.781 204.2 881.666 203.165C880.552 202.13 879.769 200.787 879.418 199.307C879.066 197.827 879.161 196.276 879.691 194.85C880.221 193.425 881.161 192.188 882.394 191.296C883.626 190.405 885.095 189.899 886.615 189.842C888.136 189.785 889.638 190.181 890.934 190.978C892.229 191.775 893.259 192.938 893.894 194.321L900.244 191.412C898.871 188.434 896.542 186.002 893.628 184.501C890.713 183.001 887.38 182.519 884.159 183.132L881.858 178.125L875.515 181.034L877.809 186.048C875.049 188.293 873.198 191.464 872.6 194.971C872.002 198.478 872.697 202.084 874.557 205.117C876.416 208.15 879.314 210.405 882.711 211.462C886.108 212.52 889.774 212.309 893.027 210.867C894.409 210.233 895.949 210.023 897.451 210.264C898.953 210.504 900.35 211.185 901.465 212.22C902.581 213.254 903.364 214.597 903.717 216.076C904.069 217.556 903.975 219.107 903.446 220.534C902.917 221.96 901.977 223.198 900.745 224.09C899.513 224.982 898.044 225.489 896.524 225.546C895.004 225.604 893.501 225.209 892.205 224.412C890.909 223.616 889.878 222.453 889.243 221.07L882.893 223.979C884.265 226.957 886.594 229.39 889.509 230.89C892.424 232.391 895.757 232.873 898.978 232.259L901.076 236.875L907.426 233.973L905.328 229.35C908.098 227.108 909.958 223.934 910.562 220.422C911.165 216.909 910.47 213.296 908.607 210.258C906.744 207.22 903.839 204.962 900.435 203.908C897.03 202.853 893.358 203.072 890.103 204.524Z" fill="#ECC047"/>
<path d="M923.673 302.046C941.072 281.318 935.799 253.68 932.268 243.044L932.107 242.547C930.009 239.603 924.029 232.057 924.246 231.288C924.526 230.309 929.093 234.659 928.736 234.085C925.939 229.84 923.26 227.875 924.134 226.679C924.512 226.162 929.204 231.281 930.19 233.057C929.211 231.281 925.708 226.4 926.477 224.861C926.617 224.267 931.093 230.456 932.072 232.323C930.967 230.316 927.736 224.735 928.687 224.106C929.638 223.476 932.988 229.589 933.771 231.966C934.261 231.798 932.652 229.582 933.275 228.337C933.792 227.309 936.002 230.295 936.624 235.057C937.009 237.952 937.261 239.631 937.806 240.652C943.401 253.408 946.331 273.115 945.184 280.479C943.855 294.248 939.513 306.836 935.191 312.648C926.792 323.914 916.973 310.004 923.673 302.046Z" fill="#CD9D91"/>
<path d="M909.832 298.703C910.874 299.745 919.86 299.829 921.56 297.423C921.525 294.479 921.832 291.541 922.476 288.668C923.175 285.682 925.105 282.43 923.986 275.472C922.867 268.513 918.392 262.485 910.769 264.569C904.027 266.408 904.825 279.143 905.104 282.989C905.538 288.801 906.391 292.018 911.902 291.619C911.846 294.121 911.132 296.564 909.832 298.703Z" fill="#CD9D91"/>
<path d="M912.279 270.542C912.279 275.094 914.377 284.626 920.888 285.081C919.552 290.801 919.02 298.822 910.677 311.655C916.454 313.578 922.566 307.053 927.734 299.067C929.447 296.424 931.93 285.899 930.944 277.975C929.636 267.73 922.496 258.101 911.817 260.031C901.139 261.961 900.481 270.667 902.726 272.199C905.943 274.402 909.908 272.905 912.279 270.542Z" fill="#573831"/>
<path d="M215.462 188.496C214.09 180.637 215.08 172.548 218.306 165.252C221.532 157.956 226.849 151.781 233.585 147.507C240.321 143.233 248.173 141.053 256.148 141.242C264.124 141.432 271.863 143.982 278.389 148.57C284.915 153.159 289.933 159.579 292.809 167.02C295.685 174.461 296.29 182.588 294.547 190.372C292.805 198.157 288.792 205.25 283.018 210.754C277.243 216.258 269.966 219.926 262.107 221.294C251.573 223.128 240.741 220.703 231.994 214.552C223.247 208.402 217.301 199.029 215.462 188.496Z" fill="#ECC047"/>
<path d="M221.506 187.447C222.669 194.109 225.781 200.278 230.449 205.171C235.118 210.065 241.133 213.465 247.733 214.941C254.333 216.416 261.223 215.901 267.531 213.461C273.839 211.021 279.282 206.766 283.171 201.232C287.06 195.699 289.222 189.137 289.381 182.375C289.541 175.614 287.693 168.957 284.069 163.246C280.445 157.535 275.21 153.027 269.024 150.292C262.839 147.556 255.981 146.717 249.318 147.879C240.386 149.444 232.441 154.49 227.226 161.909C222.012 169.327 219.954 178.512 221.506 187.447Z" fill="#BFA049"/>
<path d="M224.547 186.916C225.605 192.976 228.436 198.586 232.683 203.037C236.929 207.488 242.4 210.58 248.404 211.922C254.407 213.264 260.674 212.796 266.412 210.577C272.149 208.357 277.1 204.487 280.637 199.454C284.175 194.421 286.141 188.452 286.287 182.302C286.433 176.152 284.751 170.097 281.456 164.902C278.16 159.708 273.399 155.607 267.773 153.118C262.147 150.63 255.909 149.865 249.849 150.921C241.725 152.349 234.499 156.94 229.756 163.687C225.012 170.435 223.139 178.789 224.547 186.916Z" fill="#FFE49A"/>
<path d="M254.744 179.02C253.551 179.229 252.324 179.08 251.217 178.591C250.109 178.102 249.172 177.296 248.523 176.274C247.873 175.252 247.542 174.061 247.57 172.851C247.598 171.64 247.985 170.466 248.681 169.475C249.377 168.485 250.351 167.723 251.48 167.286C252.609 166.849 253.842 166.757 255.023 167.021C256.204 167.286 257.281 167.894 258.116 168.77C258.952 169.646 259.508 170.75 259.716 171.943L265.192 170.985C264.737 168.416 263.436 166.073 261.496 164.329C259.556 162.585 257.088 161.541 254.485 161.362L253.716 157.026L248.247 157.977L249.002 162.299C246.392 163.443 244.29 165.504 243.096 168.092C241.901 170.68 241.696 173.615 242.519 176.344C243.342 179.073 245.137 181.406 247.563 182.902C249.99 184.397 252.88 184.952 255.688 184.461C256.88 184.254 258.107 184.405 259.213 184.894C260.319 185.384 261.256 186.191 261.904 187.213C262.552 188.234 262.882 189.425 262.854 190.635C262.825 191.845 262.438 193.018 261.742 194.008C261.047 194.998 260.073 195.76 258.945 196.196C257.816 196.633 256.584 196.725 255.403 196.462C254.222 196.198 253.146 195.59 252.31 194.715C251.475 193.84 250.917 192.737 250.709 191.545L245.24 192.496C245.699 195.064 247.004 197.403 248.947 199.143C250.89 200.883 253.359 201.923 255.961 202.098L256.66 206.077L262.129 205.126L261.429 201.14C263.999 199.971 266.057 197.909 267.221 195.337C268.385 192.765 268.577 189.859 267.76 187.156C266.943 184.454 265.174 182.14 262.78 180.644C260.386 179.147 257.531 178.571 254.744 179.02Z" fill="#ECC047"/>
<path d="M234.387 223.526C234.59 221.589 230.891 219.7 232.52 215.19C234.15 210.679 234.297 208.749 235.807 208.644C237.318 208.539 236.276 214.511 236.723 216.232C237.017 217.33 240.702 217.588 242.234 219.728C242.654 219.728 245.178 220.826 245.794 220.784C244.863 222.882 242.689 223.889 241.793 225.617C238.164 226.666 234.387 223.526 234.387 223.526Z" fill="#CD9D91"/>
<path d="M178.027 282.94L185.986 306.941C185.986 306.941 224.351 282.367 231.155 273.772L217.036 263.751C211.903 268.254 189.266 275.849 178.027 282.94ZM233.673 223.525C233.673 223.525 220.602 260.974 217.036 263.751L231.155 273.772C238.785 256.827 241.358 235.694 242.142 225.784C242.142 225.784 237.26 223.539 233.673 223.525Z" fill="#C6D4F5"/>
<path d="M63.6871 353.153C63.3164 354.321 62.8479 355.79 62.2884 355.867C61.5225 355.918 60.7946 356.219 60.2171 356.725C59.6395 357.23 59.2443 357.912 59.0925 358.664C57.7637 364.322 59.0925 365.168 60.1904 364.804C60.4841 365.762 61.4282 366.28 62.1905 365.811C62.708 367.035 63.5891 366.979 64.2116 366.587C64.2481 366.817 64.351 367.03 64.5076 367.202C64.6642 367.373 64.8676 367.495 65.0927 367.552C66.6592 367.727 67.3935 366.685 68.6453 366.035C69.1838 365.762 69.2887 366.734 70.0439 366.301C71.3797 365.559 72.1419 363.825 72.4636 362.664C72.9601 361.035 71.3167 359.216 71.2188 358.084C71.1939 357.302 71.3697 356.526 71.7293 355.832L63.6871 353.153Z" fill="#CD9D91"/>
<path d="M184.951 282.31C176.923 277.415 154.286 275.037 145.894 274.667L134.404 273.771C126.201 277.38 93.2835 295.639 85.2622 304.941C77.1151 314.381 62.8418 352.865 62.8418 352.865L72.3107 356.047C75.9122 347.984 92.0037 322.13 96.6683 317.542C101.333 312.955 128.075 304.402 129.6 303.913C125.404 314.549 119.809 331.487 117.194 341.131C121.131 342.802 158.608 355.607 158.608 355.607C162.384 349.264 201.169 297.206 184.951 282.31Z" fill="#C6D4F5"/>
<path d="M164.859 346.216C171.426 336.306 181.23 320.676 186.035 306.907C187.37 306.053 216.637 287.242 227.854 277.136C221.148 281.199 192.189 301.389 189.979 301.403C186.958 301.403 188.147 293.955 186.398 294.018C183.279 294.13 182.468 313.012 172.307 332.18C171.195 334.348 168.139 340.006 164.859 346.216ZM138.592 302.906C137.669 300.291 129.599 303.914 129.599 303.914C126.102 312.767 121.633 325.984 118.738 335.733C122.011 329.53 139.515 305.522 138.592 302.906Z" fill="#96A3C2"/>
<path d="M143.923 377.629C126.544 406.099 115.628 418.337 101.166 435.59C99.014 438.299 96.0862 440.288 92.7739 441.289C67.3953 448.562 28.5336 453.639 17.8339 455.464C17.8339 455.464 17.0507 449.989 16.708 447.569C31.3939 437.841 52.9611 423.414 82.5777 418.701C89.3052 397.553 105.858 357.16 117.194 341.131C127.027 345.698 143.923 377.629 143.923 377.629Z" fill="#C1482F"/>
<path d="M103.696 400.134C101.815 430.855 88.0735 434.548 77.0171 437.086C65.9607 439.625 43.4913 450.024 33.5889 453.024C50.2958 450.45 74.8492 446.415 92.759 441.296C96.0713 440.295 98.9991 438.307 101.151 435.597C115.634 418.344 126.55 406.106 143.922 377.629C143.922 377.629 139.985 370.189 134.831 361.978L117.207 341.125C114.399 345.247 111.847 349.537 109.564 353.971C105.459 366.783 104.606 385.252 103.696 400.134Z" fill="#822410"/>
<path d="M13.8474 447.982L16.7426 447.569L17.8685 455.465C16.0926 455.782 14.3682 456.34 12.7424 457.122C11.6235 455.185 13.232 451.891 13.8474 447.982Z" fill="#FCCCC0"/>
<path d="M13.8468 447.982C13.2664 451.891 11.6579 455.185 12.7419 457.122C12.1055 458.325 8.6368 475.165 7.74866 476.955C6.86051 478.745 5.04226 478.794 4.78351 477.032C4.41986 474.444 2.32187 453.045 2.32187 453.045C1.79038 452.681 1.27288 452.394 1.27288 452.394L0.55957 447.562C2.84637 445.73 10.4481 445.044 13.8468 447.982Z" fill="#20196F"/>
<path d="M190.574 496.172C190.574 494.563 190.679 490.703 190.679 490.703L198.47 492.375C198.043 495.305 199.169 497.27 199.512 498.368C197.463 499.214 194.386 497.214 190.574 496.172Z" fill="#FCCCC0"/>
<path d="M190.573 496.172C194.385 497.221 197.462 499.214 199.518 498.368C200.63 499.145 216.931 504.62 218.602 505.718C220.274 506.816 220.106 508.627 218.323 508.662C215.714 508.718 194.21 508.229 194.21 508.229C193.783 508.711 193.441 509.194 193.441 509.194L188.545 509.292C187.014 506.788 187.28 499.165 190.573 496.172Z" fill="#20196F"/>
<path d="M158.608 355.607C187.637 380.287 199.519 391.882 208.729 404.379C210.778 407.176 211.792 409.861 211.142 413.421C204.603 449.289 200.456 481.717 198.477 492.375L190.679 490.704C186.637 473.521 182.483 445.023 186.735 422.512C155.203 409.686 129.453 391.273 119.97 375.867C112.648 363.978 113.39 352.034 117.173 341.131L158.608 355.607Z" fill="#C1482F"/>
<path d="M175.069 272.793C174.901 275.149 175.992 278.926 175.992 278.926C173.796 282.618 167.334 280.01 160.978 275.884C163.145 270.988 164.551 262.191 164.551 262.191L175.069 272.793Z" fill="#C09388"/>
<path d="M186.951 250.932C186.706 255.338 184.741 268.73 181.125 272.612C178.167 275.828 173.81 275.409 167.614 271.444C161.418 267.478 164.201 255.135 164.201 251.373C164.201 245.408 187.314 244.541 186.951 250.932Z" fill="#CD9D91"/>
<path d="M190.371 247.086C192.685 245.61 199.742 238.911 193.476 240.442C195.378 238.344 193.755 231.232 186.951 237.463C180.146 243.694 175.062 239.645 175.062 239.645C177.16 238.904 180.559 233.009 172.419 237.218C164.279 241.428 161.272 243.582 162.439 249.429C163.607 255.275 159.642 267.828 161.453 270.017C162.286 271.045 164.048 269.045 164.74 263.842C165.398 258.947 168.496 262.254 168.663 258.093C168.521 258.29 168.334 258.45 168.118 258.56C167.901 258.669 167.661 258.725 167.419 258.723C166.509 258.681 165.817 257.674 165.88 256.485C165.943 255.296 166.726 254.387 167.642 254.387C167.835 254.401 168.023 254.455 168.194 254.545C168.365 254.635 168.515 254.76 168.635 254.911C168.573 251.163 168.67 247.96 170.852 247.219C173.552 246.296 185.398 252.681 190 250.45C194.601 248.219 193.224 246.534 190.371 247.086Z" fill="#573831"/>
<path d="M171.51 280.633C165.537 278.808 160.88 272.751 160.88 272.751L158.194 275.996C160.747 278.94 163.397 283.074 168.796 285.199C169.984 283.865 170.905 282.314 171.51 280.633ZM173.132 280.696L174.349 285.199C175.587 284.962 177.034 281.577 176.615 279.304C176.195 277.031 175.573 277.136 175.573 277.136C175.545 277.717 175.013 280.598 173.132 280.696Z" fill="white"/>
<defs>
<linearGradient id="paint0_linear_439_1573" x1="504.695" y1="398.934" x2="373.141" y2="398.934" gradientUnits="userSpaceOnUse">
<stop stop-color="#C1482F"/>
<stop offset="1" stop-color="#B5341A"/>
</linearGradient>
<linearGradient id="paint1_linear_439_1573" x1="624.314" y1="240.112" x2="624.314" y2="336.136" gradientUnits="userSpaceOnUse">
<stop stop-color="#FFE49A"/>
<stop offset="1" stop-color="#FCD878"/>
</linearGradient>
</defs>
</svg>
