<svg width="25" height="25" viewBox="0 0 25 25" fill="none" xmlns="http://www.w3.org/2000/svg">
<path d="M5.94141 4.3584H23.9414V16.3584H5.94141V4.3584ZM14.9414 7.3584C15.7371 7.3584 16.5001 7.67447 17.0627 8.23708C17.6253 8.79969 17.9414 9.56275 17.9414 10.3584C17.9414 11.154 17.6253 11.9171 17.0627 12.4797C16.5001 13.0423 15.7371 13.3584 14.9414 13.3584C14.1458 13.3584 13.3827 13.0423 12.8201 12.4797C12.2575 11.9171 11.9414 11.154 11.9414 10.3584C11.9414 9.56275 12.2575 8.79969 12.8201 8.23708C13.3827 7.67447 14.1458 7.3584 14.9414 7.3584ZM9.94141 6.3584C9.94141 6.88883 9.73069 7.39754 9.35562 7.77261C8.98055 8.14768 8.47184 8.3584 7.94141 8.3584V12.3584C8.47184 12.3584 8.98055 12.5691 9.35562 12.9442C9.73069 13.3193 9.94141 13.828 9.94141 14.3584H19.9414C19.9414 13.828 20.1521 13.3193 20.5272 12.9442C20.9023 12.5691 21.411 12.3584 21.9414 12.3584V8.3584C21.411 8.3584 20.9023 8.14768 20.5272 7.77261C20.1521 7.39754 19.9414 6.88883 19.9414 6.3584H9.94141ZM1.94141 8.3584H3.94141V18.3584H19.9414V20.3584H1.94141V8.3584Z" fill="black"/>
</svg>
