<svg width="23" height="31" viewBox="0 0 23 31" fill="none" xmlns="http://www.w3.org/2000/svg">
<path d="M20.073 10.6554H18.6461V7.80164C18.6461 3.86345 15.4499 0.667236 11.5117 0.667236C7.57353 0.667236 4.37732 3.86345 4.37732 7.80164V10.6554H2.95044C1.38087 10.6554 0.0966797 11.9396 0.0966797 13.5092V27.778C0.0966797 29.3475 1.38087 30.6317 2.95044 30.6317H20.073C21.6426 30.6317 22.9268 29.3475 22.9268 27.778V13.5092C22.9268 11.9396 21.6426 10.6554 20.073 10.6554ZM11.5117 23.4973C9.94215 23.4973 8.65796 22.2131 8.65796 20.6436C8.65796 19.074 9.94215 17.7898 11.5117 17.7898C13.0813 17.7898 14.3655 19.074 14.3655 20.6436C14.3655 22.2131 13.0813 23.4973 11.5117 23.4973ZM15.935 10.6554H7.08839V7.80164C7.08839 5.36167 9.07175 3.37831 11.5117 3.37831C13.9517 3.37831 15.935 5.36167 15.935 7.80164V10.6554Z" fill="#BEBCBB"/>
</svg>
