<svg width="24" height="27" viewBox="0 0 24 27" fill="none" xmlns="http://www.w3.org/2000/svg">
<path d="M20.0439 19.0624L12.1479 26.9583L4.25199 19.0624C2.69034 17.5007 1.62685 15.511 1.196 13.3449C0.765151 11.1788 0.986293 8.93364 1.83146 6.89323C2.67663 4.85283 4.10787 3.10887 5.94419 1.88189C7.78051 0.6549 9.93943 0 12.1479 0C14.3565 0 16.5154 0.6549 18.3517 1.88189C20.188 3.10887 21.6193 4.85283 22.4644 6.89323C23.3096 8.93364 23.5307 11.1788 23.0999 13.3449C22.669 15.511 21.6056 17.5007 20.0439 19.0624V19.0624ZM12.1479 13.6478C12.8061 13.6478 13.4372 13.3864 13.9026 12.921C14.368 12.4557 14.6294 11.8245 14.6294 11.1664C14.6294 10.5083 14.368 9.87712 13.9026 9.41176C13.4372 8.9464 12.8061 8.68496 12.1479 8.68496C11.4898 8.68496 10.8587 8.9464 10.3933 9.41176C9.92794 9.87712 9.66651 10.5083 9.66651 11.1664C9.66651 11.8245 9.92794 12.4557 10.3933 12.921C10.8587 13.3864 11.4898 13.6478 12.1479 13.6478Z" fill="#C1482F"/>
</svg>
