<svg width="398" height="291" viewBox="0 0 398 291" fill="none" xmlns="http://www.w3.org/2000/svg">
<path d="M360.529 249.01C359.743 251.053 358.8 252.939 358.014 254.825C351.257 270.225 344.5 283.111 338.842 290.969H49.6889C24.3879 276.354 11.1875 261.896 5.21582 248.853H360.529V249.01Z" fill="#E6C7AA"/>
<path d="M362.573 244.139C362.416 244.139 362.258 244.924 362.101 245.396C361.63 246.496 361.158 247.439 360.687 248.696C360.687 248.853 360.53 249.01 360.53 249.01H5.21684C4.74539 247.596 4.1168 246.653 3.8025 245.396C3.64535 244.924 3.4882 244.139 3.33105 244.139H362.573Z" fill="#286148"/>
<path d="M397.144 114.805C397.144 124.548 394.944 138.063 391.487 153.621C391.015 155.664 390.544 157.707 390.072 159.907C383.472 186.622 373.257 218.052 362.728 244.295H3.32962C-6.25645 213.651 15.1158 186.308 15.1158 159.907C15.1158 60.5887 97.6188 -18.6142 194.265 4.48666C290.597 27.5875 397.144 15.4871 397.144 114.805Z" fill="#C2D3D8"/>
<path d="M14.4873 165.407H16.8445V152.364H20.3018V146.078H23.1305V143.092H41.0454V146.549H47.3314V151.892H49.8457V139.32H65.2463V132.406H86.9328V140.263H108.305V119.991H133.449V147.964H150.264V119.991H170.064V146.078H175.879V139.32H194.737V143.092H200.08V144.978H202.594V207.837H14.4873V165.407Z" fill="#6A340F"/>
<path d="M195.644 151.971H199.729V147.885H195.644V151.971Z" fill="white"/>
<path d="M189.579 151.971H193.665V147.885H189.579V151.971Z" fill="white"/>
<path d="M183.357 151.971H187.442V147.885H183.357V151.971Z" fill="white"/>
<path d="M177.294 151.971H181.38V147.885H177.294V151.971Z" fill="white"/>
<path d="M127.726 127.638H131.812V123.552H127.726V127.638Z" fill="white"/>
<path d="M121.663 127.638H125.749V123.552H121.663V127.638Z" fill="white"/>
<path d="M115.597 127.638H119.683V123.552H115.597V127.638Z" fill="white"/>
<path d="M109.374 127.638H113.46V123.552H109.374V127.638Z" fill="white"/>
<path d="M39.5382 152.367H43.624V148.281H39.5382V152.367Z" fill="white"/>
<path d="M33.3136 152.367H37.3994V148.281H33.3136V152.367Z" fill="white"/>
<path d="M27.2471 152.367H31.333V148.281H27.2471V152.367Z" fill="white"/>
<path d="M21.1846 152.367H25.2705V148.281H21.1846V152.367Z" fill="white"/>
<path d="M39.5382 159.712H43.624V155.626H39.5382V159.712Z" fill="white"/>
<path d="M33.3136 159.712H37.3994V155.626H33.3136V159.712Z" fill="white"/>
<path d="M27.2471 159.712H31.333V155.626H27.2471V159.712Z" fill="white"/>
<path d="M21.1846 159.712H25.2705V155.626H21.1846V159.712Z" fill="white"/>
<path d="M39.5382 167.211H43.624V163.126H39.5382V167.211Z" fill="white"/>
<path d="M33.3136 167.211H37.3994V163.126H33.3136V167.211Z" fill="white"/>
<path d="M27.2471 167.211H31.333V163.126H27.2471V167.211Z" fill="white"/>
<path d="M21.1846 167.211H25.2705V163.126H21.1846V167.211Z" fill="white"/>
<path d="M39.5382 174.71H43.624V170.624H39.5382V174.71Z" fill="white"/>
<path d="M33.3136 174.71H37.3994V170.624H33.3136V174.71Z" fill="white"/>
<path d="M27.2471 174.71H31.333V170.624H27.2471V174.71Z" fill="white"/>
<path d="M21.1846 174.71H25.2705V170.624H21.1846V174.71Z" fill="white"/>
<path d="M127.726 134.164H131.812V130.078H127.726V134.164Z" fill="white"/>
<path d="M121.663 134.164H125.749V130.078H121.663V134.164Z" fill="white"/>
<path d="M115.597 134.164H119.683V130.078H115.597V134.164Z" fill="white"/>
<path d="M109.374 134.164H113.46V130.078H109.374V134.164Z" fill="white"/>
<path d="M127.726 140.53H131.812V136.444H127.726V140.53Z" fill="white"/>
<path d="M121.663 140.53H125.749V136.444H121.663V140.53Z" fill="white"/>
<path d="M115.597 140.53H119.683V136.444H115.597V140.53Z" fill="white"/>
<path d="M109.374 140.53H113.46V136.444H109.374V140.53Z" fill="white"/>
<path d="M127.726 147.055H131.812V142.969H127.726V147.055Z" fill="white"/>
<path d="M121.663 147.055H125.749V142.969H121.663V147.055Z" fill="white"/>
<path d="M115.597 147.055H119.683V142.969H115.597V147.055Z" fill="white"/>
<path d="M109.374 147.055H113.46V142.969H109.374V147.055Z" fill="white"/>
<path d="M127.726 153.584H131.812V149.498H127.726V153.584Z" fill="white"/>
<path d="M121.663 153.584H125.749V149.498H121.663V153.584Z" fill="white"/>
<path d="M115.597 153.584H119.683V149.498H115.597V153.584Z" fill="white"/>
<path d="M109.374 153.584H113.46V149.498H109.374V153.584Z" fill="white"/>
<path d="M127.726 160.107H131.812V156.022H127.726V160.107Z" fill="white"/>
<path d="M121.664 160.107H125.75V156.022H121.664V160.107Z" fill="white"/>
<path d="M115.597 160.107H119.683V156.022H115.597V160.107Z" fill="white"/>
<path d="M109.374 160.107H113.46V156.022H109.374V160.107Z" fill="white"/>
<path d="M127.726 166.476H131.812V162.39H127.726V166.476Z" fill="white"/>
<path d="M121.664 166.476H125.75V162.39H121.664V166.476Z" fill="white"/>
<path d="M115.598 166.476H119.684V162.39H115.598V166.476Z" fill="white"/>
<path d="M109.374 166.476H113.46V162.39H109.374V166.476Z" fill="white"/>
<path d="M189.58 145.613H193.666V141.527H189.58V145.613Z" fill="white"/>
<path d="M183.357 145.613H187.443V141.527H183.357V145.613Z" fill="white"/>
<path d="M177.294 145.613H181.38V141.527H177.294V145.613Z" fill="white"/>
<path d="M164.209 127.638H168.295V123.552H164.209V127.638Z" fill="white"/>
<path d="M158.146 127.638H162.232V123.552H158.146V127.638Z" fill="white"/>
<path d="M151.923 127.638H156.009V123.552H151.923V127.638Z" fill="white"/>
<path d="M101.464 147.055H105.55V142.969H101.464V147.055Z" fill="white"/>
<path d="M95.2403 147.055H99.3262V142.969H95.2403V147.055Z" fill="white"/>
<path d="M89.1749 147.055H93.2607V142.969H89.1749V147.055Z" fill="white"/>
<path d="M101.464 153.583H105.55V149.498H101.464V153.583Z" fill="white"/>
<path d="M95.2408 153.583H99.3267V149.498H95.2408V153.583Z" fill="white"/>
<path d="M89.1749 153.583H93.2607V149.498H89.1749V153.583Z" fill="white"/>
<path d="M101.464 160.107H105.55V156.022H101.464V160.107Z" fill="white"/>
<path d="M95.2408 160.107H99.3267V156.022H95.2408V160.107Z" fill="white"/>
<path d="M89.1749 160.107H93.2607V156.022H89.1749V160.107Z" fill="white"/>
<path d="M101.464 166.476H105.55V162.39H101.464V166.476Z" fill="white"/>
<path d="M95.2403 166.476H99.3262V162.39H95.2403V166.476Z" fill="white"/>
<path d="M89.1749 166.476H93.2607V162.39H89.1749V166.476Z" fill="white"/>
<path d="M80.0089 139.317H84.0947V135.232H80.0089V139.317Z" fill="white"/>
<path d="M73.9434 139.317H78.0293V135.232H73.9434V139.317Z" fill="white"/>
<path d="M67.88 139.317H71.9658V135.232H67.88V139.317Z" fill="white"/>
<path d="M80.0089 145.842H84.0947V141.756H80.0089V145.842Z" fill="white"/>
<path d="M73.9434 145.842H78.0293V141.756H73.9434V145.842Z" fill="white"/>
<path d="M67.88 145.842H71.9658V141.756H67.88V145.842Z" fill="white"/>
<path d="M58.8883 145.842H62.9741V141.756H58.8883V145.842Z" fill="white"/>
<path d="M52.8253 145.842H56.9111V141.756H52.8253V145.842Z" fill="white"/>
<path d="M58.8883 152.857H62.9741V148.771H58.8883V152.857Z" fill="white"/>
<path d="M52.8253 152.857H56.9111V148.771H52.8253V152.857Z" fill="white"/>
<path d="M58.8883 159.711H62.9741V155.626H58.8883V159.711Z" fill="white"/>
<path d="M52.8253 159.711H56.9111V155.626H52.8253V159.711Z" fill="white"/>
<path d="M58.8883 166.728H62.9741V162.642H58.8883V166.728Z" fill="white"/>
<path d="M52.8253 166.728H56.9111V162.642H52.8253V166.728Z" fill="white"/>
<path d="M58.8883 173.735H62.9741V169.649H58.8883V173.735Z" fill="white"/>
<path d="M52.8253 173.735H56.9111V169.649H52.8253V173.735Z" fill="white"/>
<path d="M80.0089 152.367H84.0947V148.281H80.0089V152.367Z" fill="white"/>
<path d="M73.9434 152.367H78.0293V148.281H73.9434V152.367Z" fill="white"/>
<path d="M67.88 152.367H71.9658V148.281H67.88V152.367Z" fill="white"/>
<path d="M80.0089 158.737H84.0947V154.651H80.0089V158.737Z" fill="white"/>
<path d="M73.9429 158.737H78.0288V154.651H73.9429V158.737Z" fill="white"/>
<path d="M67.88 158.737H71.9658V154.651H67.88V158.737Z" fill="white"/>
<path d="M164.209 134.162H168.295V130.076H164.209V134.162Z" fill="white"/>
<path d="M158.146 134.162H162.232V130.076H158.146V134.162Z" fill="white"/>
<path d="M151.923 134.162H156.009V130.076H151.923V134.162Z" fill="white"/>
<path d="M164.209 140.53H168.295V136.444H164.209V140.53Z" fill="white"/>
<path d="M158.146 140.53H162.232V136.444H158.146V140.53Z" fill="white"/>
<path d="M151.923 140.53H156.009V136.444H151.923V140.53Z" fill="white"/>
<path d="M164.209 147.055H168.295V142.969H164.209V147.055Z" fill="white"/>
<path d="M158.146 147.055H162.232V142.969H158.146V147.055Z" fill="white"/>
<path d="M151.923 147.055H156.009V142.969H151.923V147.055Z" fill="white"/>
<path d="M164.209 153.583H168.295V149.498H164.209V153.583Z" fill="white"/>
<path d="M158.146 153.583H162.232V149.498H158.146V153.583Z" fill="white"/>
<path d="M151.923 153.583H156.009V149.498H151.923V153.583Z" fill="white"/>
<path d="M164.209 160.107H168.295V156.022H164.209V160.107Z" fill="white"/>
<path d="M158.146 160.107H162.232V156.022H158.146V160.107Z" fill="white"/>
<path d="M151.923 160.107H156.009V156.022H151.923V160.107Z" fill="white"/>
<path d="M164.209 166.476H168.295V162.39H164.209V166.476Z" fill="white"/>
<path d="M158.146 166.476H162.232V162.39H158.146V166.476Z" fill="white"/>
<path d="M151.923 166.476H156.009V162.39H151.923V166.476Z" fill="white"/>
<path d="M164.209 173H168.295V168.915H164.209V173Z" fill="white"/>
<path d="M158.146 173H162.232V168.915H158.146V173Z" fill="white"/>
<path d="M151.923 173H156.009V168.915H151.923V173Z" fill="white"/>
<path d="M195.643 158.329H199.729V154.243H195.643V158.329Z" fill="white"/>
<path d="M189.58 158.329H193.666V154.243H189.58V158.329Z" fill="white"/>
<path d="M183.357 158.329H187.443V154.243H183.357V158.329Z" fill="white"/>
<path d="M177.294 158.329H181.38V154.243H177.294V158.329Z" fill="white"/>
<path d="M195.643 164.848H199.729V160.762H195.643V164.848Z" fill="white"/>
<path d="M189.58 164.848H193.666V160.762H189.58V164.848Z" fill="white"/>
<path d="M183.357 164.848H187.443V160.762H183.357V164.848Z" fill="white"/>
<path d="M177.294 164.848H181.38V160.762H177.294V164.848Z" fill="white"/>
<path d="M195.643 171.206H199.729V167.12H195.643V171.206Z" fill="white"/>
<path d="M189.58 171.206H193.666V167.12H189.58V171.206Z" fill="white"/>
<path d="M183.357 171.206H187.443V167.12H183.357V171.206Z" fill="white"/>
<path d="M177.294 171.206H181.38V167.12H177.294V171.206Z" fill="white"/>
<path d="M195.643 177.567H199.729V173.481H195.643V177.567Z" fill="white"/>
<path d="M189.58 177.567H193.666V173.481H189.58V177.567Z" fill="white"/>
<path d="M183.357 177.567H187.443V173.481H183.357V177.567Z" fill="white"/>
<path d="M177.294 177.567H181.38V173.481H177.294V177.567Z" fill="white"/>
<path d="M360.686 248.538C360.686 248.538 360.529 248.853 360.529 249.01C359.743 251.053 358.8 252.939 358.015 254.824H231.039V248.538H360.686ZM391.487 153.778C391.016 155.664 390.544 157.707 390.073 160.064H226.167V153.778H391.487Z" fill="#422D24"/>
<path d="M389.916 160.064C383.316 186.622 373.101 218.052 362.572 244.296C362.415 244.296 362.258 244.924 362.101 245.396C361.629 246.496 361.158 247.596 360.686 248.539H236.382V160.064H389.916Z" fill="#573B30"/>
<path d="M236.382 175.307H385.673" stroke="#35241D" stroke-width="0.484018" stroke-miterlimit="10"/>
<path d="M236.382 203.751H377.501" stroke="#35241D" stroke-width="0.484018" stroke-miterlimit="10"/>
<path d="M236.382 232.352H367.287" stroke="#35241D" stroke-width="0.484018" stroke-miterlimit="10"/>
<path opacity="0.5" d="M194.266 4.48717C97.7765 -18.6137 15.1163 60.7464 15.1163 159.907C15.1163 164.464 14.4877 169.179 13.3877 173.893V206.423H203.38V6.68725C200.395 5.90151 197.252 5.27291 194.266 4.48717Z" fill="white"/>
<path opacity="0.5" d="M203.537 63.8892L48.5889 206.423H124.334L203.537 133.663V63.8892Z" fill="white" fill-opacity="0.54"/>
<path opacity="0.5" d="M13.5459 206.423H14.4888L203.539 32.4594V7.78711L13.5459 182.536V206.423Z" fill="white" fill-opacity="0.54"/>
<path opacity="0.5" d="M158.436 0.557617C137.535 0.871914 117.892 5.90067 100.291 14.701L40.7318 69.5459C29.4171 87.4608 21.5597 108.047 17.7881 130.048L158.436 0.557617Z" fill="white" fill-opacity="0.54"/>
<path d="M181.065 1.97239C167.079 -0.0705397 153.564 0.0866088 140.521 1.97239H181.065ZM201.023 6.05825V132.877H110.662V9.98697C109.091 10.6156 107.362 11.2442 105.791 12.0299V132.877H17.1591C16.8448 134.449 16.6876 136.02 16.5305 137.749H105.791V203.908H15.9019V143.563C15.4304 148.906 15.1161 154.407 15.1161 159.907C15.1161 167.45 13.3875 175.15 11.0303 183.008V208.78H205.737V7.1583C204.166 6.844 202.594 6.5297 201.023 6.05825ZM201.023 203.908H110.662V137.749H201.023V203.908Z" fill="#573B30"/>
<path d="M177.294 160.693C167.708 163.05 165.979 166.822 165.979 166.822C165.979 166.822 166.765 156.136 172.736 152.207C176.822 149.693 180.122 149.535 181.851 151.735C183.422 153.778 181.851 159.593 177.294 160.693ZM155.293 155.036C157.964 157.864 165.665 160.85 165.665 160.85C165.665 160.85 163.779 153.621 159.85 150.793C157.179 148.907 153.721 147.964 152.464 149.378C151.207 150.635 153.25 152.836 155.293 155.036ZM157.179 164.464C159.85 167.293 166.293 170.75 166.293 170.75C166.293 170.75 164.407 163.522 160.479 160.693C157.807 158.807 154.664 157.236 153.407 158.493C152.307 159.907 155.136 162.264 157.179 164.464ZM175.408 171.379C173.051 174.522 166.922 179.079 166.922 179.079C166.922 179.079 168.022 171.222 171.636 167.922C173.994 165.722 176.979 163.836 178.394 165.093C179.808 166.35 177.294 168.865 175.408 171.379ZM158.279 175.622C161.736 177.508 167.236 180.808 167.236 180.808C167.236 180.808 165.35 173.265 161.422 170.279C158.75 168.393 155.136 168.236 154.35 169.965C153.093 172.636 155.607 174.051 158.279 175.622ZM162.05 191.023C164.407 194.166 168.65 198.251 168.65 198.251C168.65 198.251 167.708 190.865 165.193 186.78C163.465 184.108 160.793 182.065 159.85 183.637C158.122 185.994 160.322 188.98 162.05 191.023ZM175.094 187.565C173.522 191.18 168.808 195.58 168.808 195.58C168.808 195.58 168.65 188.665 170.222 184.108C171.165 181.122 174.622 177.036 176.036 178.294C178.237 180.179 176.194 185.051 175.094 187.565Z" fill="#286148"/>
<path d="M167.708 205.166C167.708 205.166 170.065 193.694 168.179 186.936C166.293 180.179 165.036 155.507 165.822 152.364" stroke="#388259" stroke-width="0.484018" stroke-miterlimit="10"/>
<path d="M162.207 142.149C163.464 146.863 165.822 153.306 165.822 153.306C165.822 153.306 172.893 147.963 170.379 140.42C169.122 136.492 168.65 135.077 165.822 135.234C163.464 135.234 161.107 138.22 162.207 142.149Z" fill="#286148"/>
<path d="M188.294 191.651C188.294 191.651 178.236 193.38 172.264 198.408C168.65 201.551 166.45 204.223 164.093 215.38H176.35C180.436 212.237 184.679 207.523 185.465 201.866C185.465 201.866 183.579 201.866 183.108 201.394C183.108 201.394 186.251 200.451 186.722 199.823C186.879 199.98 186.565 194.008 188.294 191.651Z" fill="#286148"/>
<path d="M169.593 215.537C169.593 215.537 171.636 201.237 183.422 195.108" stroke="#388259" stroke-width="0.484018" stroke-miterlimit="10"/>
<path d="M142.878 188.037C142.878 188.037 154.507 189.922 161.421 195.894C165.507 199.508 168.179 202.494 170.85 215.538H156.707C151.993 211.766 147.121 206.423 146.178 199.98C146.178 199.98 148.378 199.98 148.85 199.508C148.85 199.508 145.078 198.408 144.607 197.623C144.607 197.466 144.921 190.708 142.878 188.037Z" fill="#286148"/>
<path d="M164.407 215.538C164.407 215.538 162.05 199.038 148.378 191.966" stroke="#388259" stroke-width="0.484018" stroke-miterlimit="10"/>
<path d="M181.851 215.066H153.564C152.307 215.066 151.364 216.009 151.521 217.266L156.235 247.281C156.393 248.224 157.336 248.853 158.278 248.853H177.293C178.393 248.853 179.179 248.224 179.336 247.281L184.051 217.266C184.051 216.009 183.108 215.066 181.851 215.066Z" fill="url(#paint0_linear_439_1969)"/>
<path d="M284.311 131.62H242.824V148.278H284.311V131.62Z" fill="#D7BA6D"/>
<path d="M281.169 131.62H246.125V148.278H281.169V131.62Z" fill="#A58D4E"/>
<path d="M285.726 149.064C285.726 147.964 284.783 147.021 283.683 147.021H243.925C242.825 147.021 241.882 147.964 241.882 149.064V151.578C241.882 152.678 242.825 153.621 243.925 153.621H283.683C284.783 153.621 285.726 152.678 285.726 151.578V149.064Z" fill="#EBCE81"/>
<path d="M259.797 132.091H251.154V136.334H259.797V132.091Z" fill="#806726"/>
<path d="M254.768 136.334H253.039V137.277H254.768V136.334Z" fill="#806726"/>
<path d="M254.454 137.12H253.197V137.749H254.454V137.12Z" fill="#806726"/>
<path d="M258.068 136.334H256.339V137.277H258.068V136.334Z" fill="#806726"/>
<path d="M257.754 137.12H256.497V137.749H257.754V137.12Z" fill="#806726"/>
<path d="M276.14 132.092H267.497V136.335H276.14V132.092Z" fill="#806726"/>
<path d="M271.112 136.335H269.383V137.278H271.112V136.335Z" fill="#806726"/>
<path d="M270.798 137.121H269.541V137.749H270.798V137.121Z" fill="#806726"/>
<path d="M274.412 136.335H272.683V137.278H274.412V136.335Z" fill="#806726"/>
<path d="M274.098 137.121H272.84V137.749H274.098V137.121Z" fill="#806726"/>
<path d="M285.726 125.177C285.726 123.291 284.155 121.877 282.426 121.877H245.182C243.296 121.877 241.882 123.448 241.882 125.177V129.106C241.882 130.992 243.453 132.406 245.182 132.406H282.269C284.155 132.406 285.569 130.834 285.569 129.106V125.177H285.726Z" fill="#EBCE81"/>
<path d="M279.125 130.677C280.948 130.677 282.425 129.2 282.425 127.377C282.425 125.555 280.948 124.077 279.125 124.077C277.303 124.077 275.825 125.555 275.825 127.377C275.825 129.2 277.303 130.677 279.125 130.677Z" fill="#FFE7AF"/>
<path d="M248.167 130.677C249.99 130.677 251.467 129.2 251.467 127.377C251.467 125.555 249.99 124.077 248.167 124.077C246.345 124.077 244.867 125.555 244.867 127.377C244.867 129.2 246.345 130.677 248.167 130.677Z" fill="#FFE7AF"/>
<path d="M273.154 124.706C273.154 124.549 272.997 124.392 272.84 124.392H267.811C267.654 124.392 267.497 124.549 267.497 124.706V129.735C267.497 129.892 267.654 130.049 267.811 130.049H272.84C272.997 130.049 273.154 129.892 273.154 129.735V124.706Z" fill="#806726"/>
<path d="M255.867 127.849C256.735 127.849 257.439 127.145 257.439 126.277C257.439 125.409 256.735 124.706 255.867 124.706C254.999 124.706 254.296 125.409 254.296 126.277C254.296 127.145 254.999 127.849 255.867 127.849Z" fill="#FFE7AF"/>
<path d="M256.967 128.792H254.61V130.049H256.967V128.792Z" fill="#806726"/>
<path d="M259.953 127.849C260.821 127.849 261.525 127.145 261.525 126.277C261.525 125.409 260.821 124.706 259.953 124.706C259.085 124.706 258.382 125.409 258.382 126.277C258.382 127.145 259.085 127.849 259.953 127.849Z" fill="#FFE7AF"/>
<path d="M260.897 128.792H258.54V130.049H260.897V128.792Z" fill="#806726"/>
<path d="M263.881 127.849C264.748 127.849 265.452 127.145 265.452 126.278C265.452 125.41 264.748 124.706 263.881 124.706C263.013 124.706 262.309 125.41 262.309 126.278C262.309 127.145 263.013 127.849 263.881 127.849Z" fill="#FFE7AF"/>
<path d="M264.98 128.792H262.623V130.049H264.98V128.792Z" fill="#806726"/>
<path d="M260.268 140.735H250.996C250.996 142.778 251.939 146.078 253.353 147.021H257.911C259.325 146.078 260.268 142.778 260.268 140.735Z" fill="white"/>
<path d="M259.01 145.764C258.696 145.764 258.539 145.607 258.382 145.449C258.067 145.135 258.067 144.349 258.067 143.721C258.067 143.564 258.067 143.564 258.067 143.407C258.067 142.464 259.167 141.049 260.425 141.049C260.896 141.049 261.367 141.206 261.682 141.678C261.839 141.992 262.153 142.621 261.839 143.564C261.21 145.607 259.639 145.764 259.01 145.764ZM260.267 141.678C259.482 141.678 258.539 142.621 258.539 143.407C258.539 143.564 258.539 143.564 258.539 143.721C258.539 144.349 258.539 144.821 258.696 145.135C258.696 145.135 258.853 145.292 259.01 145.292C259.639 145.292 260.739 144.978 261.21 143.407C261.368 142.778 261.367 142.307 261.053 142.149C260.896 141.835 260.582 141.678 260.267 141.678Z" fill="white"/>
<path d="M382.372 177.193H346.542C345.914 177.193 345.442 177.665 345.442 178.293V180.336H383.472V178.293C383.472 177.822 383.001 177.193 382.372 177.193Z" fill="#ED3900"/>
<path d="M345.442 180.336L347.328 183.322C347.642 183.794 348.114 184.108 348.743 184.108H380.015C380.644 184.108 381.115 183.794 381.429 183.322L383.315 180.336H345.442Z" fill="#9D9D9D"/>
<path d="M379.701 256.554H377.501V190.237C377.501 186.623 374.515 183.637 370.9 183.637H358.171C354.557 183.637 351.571 186.623 351.571 190.237V256.554H349.371V190.237C349.371 185.366 353.3 181.437 358.171 181.437H370.9C375.772 181.437 379.701 185.366 379.701 190.237V256.554Z" fill="#BBBAB7"/>
<path d="M379.544 224.338H349.528V226.696H379.544V224.338Z" fill="#BBBAB7"/>
<path d="M295.469 177.194H259.639C259.011 177.194 258.539 177.665 258.539 178.294V180.337H296.569V178.294C296.569 177.822 296.098 177.194 295.469 177.194Z" fill="#ED3900"/>
<path d="M258.382 180.336L260.268 183.322C260.582 183.794 261.053 184.108 261.682 184.108H292.955C293.583 184.108 294.055 183.794 294.369 183.322L296.255 180.336H258.382Z" fill="#9D9D9D"/>
<path d="M292.64 256.554H290.44V190.237C290.44 186.623 287.454 183.637 283.84 183.637H271.111C267.496 183.637 264.511 186.623 264.511 190.237V256.554H262.311V190.237C262.311 185.366 266.239 181.437 271.111 181.437H283.84C288.712 181.437 292.64 185.366 292.64 190.237V256.554Z" fill="#BBBAB7"/>
<path d="M292.483 224.338H262.468V226.696H292.483V224.338Z" fill="#BBBAB7"/>
<path d="M140.679 243.981H137.85V287.983H140.679V243.981Z" fill="#E0DFDC"/>
<path d="M170.694 241.153C170.694 240.367 170.066 239.896 169.437 239.896H108.62C107.835 239.896 107.363 240.524 107.363 241.153V242.881C107.363 243.667 107.992 244.139 108.62 244.139H169.28C170.066 244.139 170.537 243.51 170.537 242.881V241.153H170.694Z" fill="#422D24"/>
<path d="M155.294 290.969C155.294 288.769 148.065 287.04 139.265 287.04C130.464 287.04 123.235 288.769 123.235 290.969H155.294Z" fill="#E0DFDC"/>
<path d="M76.0908 266.296H69.1763L74.3622 290.183C74.3622 290.497 74.6765 290.969 75.1479 290.969H77.348C77.8194 290.969 78.1337 290.34 78.1337 290.026L76.0908 266.296ZM12.1313 266.296H19.0459L13.8599 290.183C13.8599 290.497 13.5457 290.969 13.0742 290.969H10.8741C10.4027 290.969 10.0884 290.34 10.0884 290.026L12.1313 266.296Z" fill="#573B30"/>
<path d="M77.9762 220.881H51.5752C38.5319 220.881 26.1172 215.695 16.8454 206.737L8.83082 198.88C6.31644 196.365 1.91629 198.251 2.07343 201.866L3.48777 260.011C3.64492 263.625 6.47359 266.297 10.088 266.297H75.9333C79.2334 266.297 82.0621 263.939 82.5335 260.796L86.7765 230.938C87.5623 225.595 83.4764 220.881 77.9762 220.881Z" fill="#ED3900"/>
<path d="M202.752 266.296H209.666L204.481 290.183C204.481 290.497 204.166 290.969 203.695 290.969H201.495C201.023 290.969 200.709 290.34 200.709 290.026L202.752 266.296ZM266.554 266.296H259.64L264.826 290.183C264.826 290.497 265.14 290.969 265.611 290.969H267.811C268.283 290.969 268.597 290.34 268.597 290.026L266.554 266.296Z" fill="#573B30"/>
<path d="M200.709 220.881H227.11C240.154 220.881 252.568 215.695 261.84 206.737L269.855 198.88C272.369 196.365 276.769 198.251 276.612 201.866L275.198 260.011C275.041 263.625 272.212 266.297 268.598 266.297H202.752C199.452 266.297 196.623 263.939 196.152 260.796L191.909 230.938C191.123 225.595 195.366 220.881 200.709 220.881Z" fill="#ED3900"/>
<path d="M341.033 86.2295H351.091V83.0865H341.033V86.2295Z" fill="#422D24"/>
<path d="M341.033 83.1963H351.091V70.7815H341.033V83.1963Z" fill="white"/>
<path d="M341.828 67.8179H350.471L351.1 70.6465H341.2L341.828 67.8179Z" fill="#422D24"/>
<path d="M341.819 67.8589H350.462V66.2874H341.819V67.8589Z" fill="white"/>
<path d="M346.228 69.8609C346.836 69.8609 347.328 69.4387 347.328 68.918C347.328 68.3972 346.836 67.9751 346.228 67.9751C345.621 67.9751 345.128 68.3972 345.128 68.918C345.128 69.4387 345.621 69.8609 346.228 69.8609Z" fill="white"/>
<path d="M326.041 86.2295H336.099V83.0865H326.041V86.2295Z" fill="#422D24"/>
<path d="M326.041 83.1963H336.099V70.7815H326.041V83.1963Z" fill="white"/>
<path d="M326.743 67.8179H335.386L336.172 70.6465H326.114L326.743 67.8179Z" fill="#422D24"/>
<path d="M326.827 67.8589H335.47V66.2874H326.827V67.8589Z" fill="white"/>
<path d="M331.143 69.8609C331.751 69.8609 332.243 69.4387 332.243 68.918C332.243 68.3972 331.751 67.9751 331.143 67.9751C330.535 67.9751 330.043 68.3972 330.043 68.918C330.043 69.4387 330.535 69.8609 331.143 69.8609Z" fill="white"/>
<path d="M311.052 86.2295H321.109V83.0865H311.052V86.2295Z" fill="#422D24"/>
<path d="M311.052 83.1963H321.109V70.7815H311.052V83.1963Z" fill="white"/>
<path d="M311.655 67.8179H320.456L321.084 70.6465H311.027L311.655 67.8179Z" fill="#422D24"/>
<path d="M311.681 67.8584H320.324V66.2869H311.681V67.8584Z" fill="white"/>
<path d="M316.056 69.8609C316.663 69.8609 317.156 69.4387 317.156 68.918C317.156 68.3972 316.663 67.9751 316.056 67.9751C315.448 67.9751 314.956 68.3972 314.956 68.918C314.956 69.4387 315.448 69.8609 316.056 69.8609Z" fill="white"/>
<path d="M350 38.2744C350 38.2744 346.857 53.2035 350 54.3036H343.086C339.943 53.3607 343.086 38.2744 343.086 38.2744H350Z" fill="#573B30"/>
<path d="M342.929 38.4316C342.929 38.4316 346.072 53.2036 342.929 54.3037H353.301C356.444 53.3608 353.301 38.4316 353.301 38.4316H342.929Z" fill="#6B4C40"/>
<path d="M346.858 45.0315H351.729C352.201 45.0315 352.515 44.5601 352.515 44.2458L352.201 42.2028C352.201 41.8885 351.887 41.5742 351.415 41.5742H346.544C346.072 41.5742 345.758 42.0457 345.758 42.36L346.072 44.4029C346.072 44.7172 346.386 45.0315 346.858 45.0315Z" fill="white"/>
<path d="M342.982 38.5103H353.354V37.2531H342.982V38.5103Z" fill="#573B30"/>
<path d="M350.315 43.4719C350.512 42.8972 350.405 42.3401 350.076 42.2276C349.748 42.1152 349.322 42.49 349.125 43.0647C348.929 43.6395 349.035 44.1966 349.364 44.3091C349.692 44.4215 350.118 44.0467 350.315 43.4719Z" fill="#573B30"/>
<path d="M350.158 42.3604C350.629 43.1461 349.686 43.6175 349.529 44.2461C349.058 43.6175 349.844 43.1461 350.158 42.3604Z" fill="#1F0F04"/>
<path d="M349.081 44.3608C349.41 44.2484 349.516 43.6913 349.32 43.1165C349.123 42.5417 348.697 42.1669 348.369 42.2793C348.04 42.3918 347.933 42.9489 348.13 43.5237C348.327 44.0985 348.753 44.4733 349.081 44.3608Z" fill="#6B4C40"/>
<path d="M348.429 42.3599C348.586 43.1456 349.529 43.4599 349.057 44.2457C348.9 43.6171 347.957 43.1456 348.429 42.3599Z" fill="#1F0F04"/>
<path d="M332.243 38.2744C332.243 38.2744 329.1 53.2035 332.243 54.3036H325.328C322.185 53.3607 325.328 38.2744 325.328 38.2744H332.243Z" fill="#573B30"/>
<path d="M325.171 38.4316C325.171 38.4316 328.314 53.2036 325.171 54.3037H335.543C338.686 53.3608 335.543 38.4316 335.543 38.4316H325.171Z" fill="#6B4C40"/>
<path d="M329.1 45.0315H333.971C334.443 45.0315 334.757 44.5601 334.757 44.2458L334.443 42.2028C334.443 41.8885 334.128 41.5742 333.657 41.5742H328.785C328.314 41.5742 328 42.0457 328 42.36L328.314 44.4029C328.314 44.7172 328.628 45.0315 329.1 45.0315Z" fill="white"/>
<path d="M325.24 38.5103H335.612V37.2531H325.24V38.5103Z" fill="#573B30"/>
<path d="M332.562 43.4793C332.759 42.9045 332.652 42.3474 332.323 42.2349C331.995 42.1225 331.569 42.4973 331.372 43.0721C331.176 43.6468 331.282 44.2039 331.611 44.3164C331.939 44.4288 332.365 44.054 332.562 43.4793Z" fill="#573B30"/>
<path d="M332.4 42.3604C332.871 43.1461 331.929 43.6175 331.771 44.2461C331.3 43.6175 332.243 43.1461 332.4 42.3604Z" fill="#1F0F04"/>
<path d="M331.322 44.3623C331.651 44.2499 331.758 43.6928 331.561 43.118C331.364 42.5432 330.938 42.1684 330.61 42.2808C330.281 42.3932 330.175 42.9503 330.371 43.5251C330.568 44.0999 330.994 44.4747 331.322 44.3623Z" fill="#6B4C40"/>
<path d="M330.67 42.3599C330.827 43.1456 331.77 43.4599 331.298 44.2457C331.141 43.6171 330.198 43.1456 330.67 42.3599Z" fill="#1F0F04"/>
<path d="M314.485 38.2739C314.485 38.2739 311.342 53.2031 314.485 54.3031H307.57C304.427 53.3602 307.57 38.2739 307.57 38.2739H314.485Z" fill="#573B30"/>
<path d="M307.57 38.4316C307.57 38.4316 310.713 53.2036 307.57 54.3037H317.942C321.085 53.3608 317.942 38.4316 317.942 38.4316H307.57Z" fill="#6B4C40"/>
<path d="M311.342 45.0315H316.213C316.685 45.0315 316.999 44.5601 316.999 44.2458L316.685 42.2028C316.685 41.8885 316.37 41.5742 315.899 41.5742H311.027C310.556 41.5742 310.242 42.0457 310.242 42.36L310.556 44.4029C310.556 44.7172 310.87 45.0315 311.342 45.0315Z" fill="white"/>
<path d="M307.341 38.5103H317.713V37.2531H307.341V38.5103Z" fill="#573B30"/>
<path d="M314.81 43.4881C315.007 42.9133 314.9 42.3561 314.572 42.2437C314.244 42.1312 313.818 42.5061 313.621 43.0808C313.424 43.6556 313.531 44.2127 313.859 44.3252C314.188 44.4376 314.614 44.0628 314.81 43.4881Z" fill="#573B30"/>
<path d="M314.642 42.3604C315.114 43.1461 314.171 43.6175 314.014 44.2461C313.542 43.6175 314.485 43.1461 314.642 42.3604Z" fill="#1F0F04"/>
<path d="M313.565 44.3647C313.894 44.2523 314 43.6952 313.804 43.1204C313.607 42.5456 313.181 42.1708 312.853 42.2832C312.524 42.3957 312.417 42.9528 312.614 43.5276C312.811 44.1024 313.237 44.4772 313.565 44.3647Z" fill="#6B4C40"/>
<path d="M312.913 42.3599C313.07 43.1456 314.013 43.4599 313.541 44.2457C313.384 43.6171 312.441 43.1456 312.913 42.3599Z" fill="#1F0F04"/>
<path d="M285.218 58.3169L371.807 58.3169V54.231L285.218 54.231V58.3169Z" fill="#573B30"/>
<path d="M285.218 90.1963L371.807 90.1963V86.1104L285.218 86.1104V90.1963Z" fill="#573B30"/>
<path d="M56.4468 45.0317C56.4468 45.0317 54.2467 50.2176 54.561 52.1034C54.7182 53.2035 56.1325 55.4035 57.2325 56.0321C57.704 56.3464 58.804 56.1893 59.2755 56.0321C60.3755 55.4035 61.7898 53.3606 61.947 52.1034C62.2613 50.3748 60.0612 45.0317 60.0612 45.0317H56.4468Z" fill="#FFDD95"/>
<path d="M60.3757 41.731H55.9756V45.0311H60.3757V41.731Z" fill="#573B30"/>
<path d="M61.0041 40.7886H55.5039V41.7315H61.0041V40.7886Z" fill="#573B30"/>
<path d="M59.1184 29.9453H57.5469V40.7886H59.1184V29.9453Z" fill="#573B30"/>
<path d="M58.4899 1.50146H57.8613V29.9454H58.4899V1.50146Z" fill="#573B30"/>
<path d="M263.725 45.0317C263.725 45.0317 260.893 50.2176 261.207 52.1034C261.364 53.2035 263.411 55.4035 264.511 56.0321C264.982 56.3464 266.083 56.1893 266.554 56.0321C267.654 55.4035 269.532 53.3606 269.689 52.1034C270.004 50.3748 267.34 45.0317 267.34 45.0317H263.725Z" fill="#FFDD95"/>
<path d="M267.811 41.731H263.411V45.0311H267.811V41.731Z" fill="#573B30"/>
<path d="M268.283 40.7886H262.783V41.7315H268.283V40.7886Z" fill="#573B30"/>
<path d="M266.398 29.9453H264.826V40.7886H266.398V29.9453Z" fill="#573B30"/>
<path d="M265.926 1.50146H265.297V29.9454H265.926V1.50146Z" fill="#573B30"/>
<defs>
<linearGradient id="paint0_linear_439_1969" x1="167.777" y1="215.066" x2="167.777" y2="248.853" gradientUnits="userSpaceOnUse">
<stop stop-color="#C1482F"/>
<stop offset="1" stop-color="#B43B22"/>
</linearGradient>
</defs>
</svg>
