<svg width="397" height="292" viewBox="0 0 397 292" fill="none" xmlns="http://www.w3.org/2000/svg">
<path d="M360.059 249.451C359.273 251.494 358.33 253.38 357.545 255.266C350.787 270.666 344.03 283.552 338.373 291.41H49.2191C23.9182 276.795 10.7177 262.337 4.74609 249.294H360.059V249.451Z" fill="#E6C7AA"/>
<path d="M362.102 244.58C361.945 244.58 361.788 245.366 361.631 245.837C361.159 246.937 360.688 247.88 360.216 249.137C360.216 249.295 360.059 249.452 360.059 249.452H4.74614C4.27469 248.037 3.64609 247.094 3.3318 245.837C3.17465 245.366 3.0175 244.58 2.86035 244.58H362.102Z" fill="#286148"/>
<path d="M396.674 115.246C396.674 124.99 394.474 138.504 391.017 154.062C390.546 156.105 390.074 158.148 389.603 160.348C383.002 187.063 372.788 218.493 362.259 244.737H2.85989C-6.72617 214.093 14.646 186.749 14.646 160.348C14.646 61.0301 97.149 -18.1728 193.795 4.92806C290.128 28.0289 396.674 15.9285 396.674 115.246Z" fill="#458C6D"/>
<path d="M14.0176 165.849H16.3748V152.805H19.8321V146.519H22.6608V143.533H40.5757V146.991H46.8616V152.334H49.376V139.762H64.7766V132.847H86.4631V140.705H107.835V120.433H132.979V148.405H149.794V120.433H169.595V146.519H175.409V139.762H194.267V143.533H199.61V145.419H202.124V208.279H14.0176V165.849Z" fill="#6A340F"/>
<path d="M195.173 152.413H199.259V148.327H195.173V152.413Z" fill="white"/>
<path d="M189.11 152.413H193.196V148.327H189.11V152.413Z" fill="white"/>
<path d="M182.887 152.413H186.973V148.327H182.887V152.413Z" fill="white"/>
<path d="M176.824 152.413H180.91V148.327H176.824V152.413Z" fill="white"/>
<path d="M127.256 128.079H131.342V123.993H127.256V128.079Z" fill="white"/>
<path d="M121.193 128.079H125.279V123.993H121.193V128.079Z" fill="white"/>
<path d="M115.128 128.079H119.213V123.993H115.128V128.079Z" fill="white"/>
<path d="M108.905 128.079H112.991V123.993H108.905V128.079Z" fill="white"/>
<path d="M39.0675 152.809H43.1533V148.723H39.0675V152.809Z" fill="white"/>
<path d="M32.8448 152.809H36.9307V148.723H32.8448V152.809Z" fill="white"/>
<path d="M26.7779 152.809H30.8638V148.723H26.7779V152.809Z" fill="white"/>
<path d="M20.7154 152.809H24.8013V148.723H20.7154V152.809Z" fill="white"/>
<path d="M39.0675 160.153H43.1533V156.067H39.0675V160.153Z" fill="white"/>
<path d="M32.8448 160.153H36.9307V156.067H32.8448V160.153Z" fill="white"/>
<path d="M26.7779 160.153H30.8638V156.067H26.7779V160.153Z" fill="white"/>
<path d="M20.7154 160.153H24.8013V156.067H20.7154V160.153Z" fill="white"/>
<path d="M39.0675 167.652H43.1533V163.566H39.0675V167.652Z" fill="white"/>
<path d="M32.8448 167.652H36.9307V163.566H32.8448V167.652Z" fill="white"/>
<path d="M26.7779 167.652H30.8638V163.566H26.7779V167.652Z" fill="white"/>
<path d="M20.7154 167.652H24.8013V163.566H20.7154V167.652Z" fill="white"/>
<path d="M39.0675 175.151H43.1533V171.066H39.0675V175.151Z" fill="white"/>
<path d="M32.8448 175.151H36.9307V171.066H32.8448V175.151Z" fill="white"/>
<path d="M26.7779 175.151H30.8638V171.066H26.7779V175.151Z" fill="white"/>
<path d="M20.7154 175.151H24.8013V171.066H20.7154V175.151Z" fill="white"/>
<path d="M127.256 134.604H131.342V130.519H127.256V134.604Z" fill="white"/>
<path d="M121.193 134.604H125.279V130.519H121.193V134.604Z" fill="white"/>
<path d="M115.128 134.604H119.213V130.519H115.128V134.604Z" fill="white"/>
<path d="M108.905 134.604H112.991V130.519H108.905V134.604Z" fill="white"/>
<path d="M127.256 140.972H131.342V136.886H127.256V140.972Z" fill="white"/>
<path d="M121.193 140.972H125.279V136.886H121.193V140.972Z" fill="white"/>
<path d="M115.128 140.972H119.213V136.886H115.128V140.972Z" fill="white"/>
<path d="M108.905 140.972H112.991V136.886H108.905V140.972Z" fill="white"/>
<path d="M127.256 147.496H131.342V143.41H127.256V147.496Z" fill="white"/>
<path d="M121.193 147.496H125.279V143.41H121.193V147.496Z" fill="white"/>
<path d="M115.128 147.496H119.213V143.41H115.128V147.496Z" fill="white"/>
<path d="M108.905 147.496H112.991V143.41H108.905V147.496Z" fill="white"/>
<path d="M127.256 154.025H131.342V149.94H127.256V154.025Z" fill="white"/>
<path d="M121.193 154.025H125.279V149.94H121.193V154.025Z" fill="white"/>
<path d="M115.128 154.025H119.213V149.94H115.128V154.025Z" fill="white"/>
<path d="M108.905 154.025H112.991V149.94H108.905V154.025Z" fill="white"/>
<path d="M127.256 160.549H131.342V156.463H127.256V160.549Z" fill="white"/>
<path d="M121.194 160.549H125.28V156.463H121.194V160.549Z" fill="white"/>
<path d="M115.128 160.549H119.213V156.463H115.128V160.549Z" fill="white"/>
<path d="M108.904 160.549H112.99V156.463H108.904V160.549Z" fill="white"/>
<path d="M127.255 166.917H131.341V162.831H127.255V166.917Z" fill="white"/>
<path d="M121.193 166.917H125.279V162.831H121.193V166.917Z" fill="white"/>
<path d="M115.127 166.917H119.213V162.831H115.127V166.917Z" fill="white"/>
<path d="M108.903 166.917H112.989V162.831H108.903V166.917Z" fill="white"/>
<path d="M189.11 146.055H193.196V141.969H189.11V146.055Z" fill="white"/>
<path d="M182.887 146.055H186.973V141.969H182.887V146.055Z" fill="white"/>
<path d="M176.824 146.055H180.91V141.969H176.824V146.055Z" fill="white"/>
<path d="M163.74 128.079H167.826V123.993H163.74V128.079Z" fill="white"/>
<path d="M157.677 128.079H161.763V123.993H157.677V128.079Z" fill="white"/>
<path d="M151.454 128.079H155.54V123.993H151.454V128.079Z" fill="white"/>
<path d="M100.993 147.497H105.079V143.411H100.993V147.497Z" fill="white"/>
<path d="M94.7696 147.497H98.8555V143.411H94.7696V147.497Z" fill="white"/>
<path d="M88.7042 147.497H92.79V143.411H88.7042V147.497Z" fill="white"/>
<path d="M100.993 154.025H105.079V149.94H100.993V154.025Z" fill="white"/>
<path d="M94.7701 154.025H98.856V149.94H94.7701V154.025Z" fill="white"/>
<path d="M88.7042 154.025H92.79V149.94H88.7042V154.025Z" fill="white"/>
<path d="M100.994 160.549H105.08V156.463H100.994V160.549Z" fill="white"/>
<path d="M94.7701 160.549H98.856V156.463H94.7701V160.549Z" fill="white"/>
<path d="M88.7042 160.549H92.79V156.463H88.7042V160.549Z" fill="white"/>
<path d="M100.993 166.917H105.079V162.831H100.993V166.917Z" fill="white"/>
<path d="M94.7696 166.917H98.8555V162.831H94.7696V166.917Z" fill="white"/>
<path d="M88.7042 166.917H92.79V162.831H88.7042V166.917Z" fill="white"/>
<path d="M79.5391 139.759H83.625V135.673H79.5391V139.759Z" fill="white"/>
<path d="M73.4737 139.759H77.5596V135.673H73.4737V139.759Z" fill="white"/>
<path d="M67.4102 139.759H71.4961V135.673H67.4102V139.759Z" fill="white"/>
<path d="M79.5391 146.284H83.625V142.198H79.5391V146.284Z" fill="white"/>
<path d="M73.4737 146.284H77.5596V142.198H73.4737V146.284Z" fill="white"/>
<path d="M67.4102 146.284H71.4961V142.198H67.4102V146.284Z" fill="white"/>
<path d="M58.418 146.284H62.5039V142.198H58.418V146.284Z" fill="white"/>
<path d="M52.3551 146.284H56.4409V142.198H52.3551V146.284Z" fill="white"/>
<path d="M58.418 153.299H62.5039V149.213H58.418V153.299Z" fill="white"/>
<path d="M52.3551 153.299H56.4409V149.213H52.3551V153.299Z" fill="white"/>
<path d="M58.418 160.153H62.5039V156.067H58.418V160.153Z" fill="white"/>
<path d="M52.3551 160.153H56.4409V156.067H52.3551V160.153Z" fill="white"/>
<path d="M58.418 167.169H62.5039V163.083H58.418V167.169Z" fill="white"/>
<path d="M52.3551 167.169H56.4409V163.083H52.3551V167.169Z" fill="white"/>
<path d="M58.418 174.177H62.5039V170.091H58.418V174.177Z" fill="white"/>
<path d="M52.3551 174.177H56.4409V170.091H52.3551V174.177Z" fill="white"/>
<path d="M79.5391 152.809H83.625V148.723H79.5391V152.809Z" fill="white"/>
<path d="M73.4737 152.809H77.5596V148.723H73.4737V152.809Z" fill="white"/>
<path d="M67.4102 152.809H71.4961V148.723H67.4102V152.809Z" fill="white"/>
<path d="M79.5391 159.179H83.625V155.093H79.5391V159.179Z" fill="white"/>
<path d="M73.4732 159.179H77.5591V155.093H73.4732V159.179Z" fill="white"/>
<path d="M67.4102 159.179H71.4961V155.093H67.4102V159.179Z" fill="white"/>
<path d="M163.74 134.604H167.826V130.518H163.74V134.604Z" fill="white"/>
<path d="M157.677 134.604H161.763V130.518H157.677V134.604Z" fill="white"/>
<path d="M151.454 134.604H155.54V130.518H151.454V134.604Z" fill="white"/>
<path d="M163.74 140.972H167.826V136.886H163.74V140.972Z" fill="white"/>
<path d="M157.677 140.972H161.763V136.886H157.677V140.972Z" fill="white"/>
<path d="M151.454 140.972H155.54V136.886H151.454V140.972Z" fill="white"/>
<path d="M163.74 147.497H167.826V143.411H163.74V147.497Z" fill="white"/>
<path d="M157.677 147.497H161.763V143.411H157.677V147.497Z" fill="white"/>
<path d="M151.454 147.497H155.54V143.411H151.454V147.497Z" fill="white"/>
<path d="M163.74 154.025H167.826V149.94H163.74V154.025Z" fill="white"/>
<path d="M157.677 154.025H161.763V149.94H157.677V154.025Z" fill="white"/>
<path d="M151.454 154.025H155.54V149.94H151.454V154.025Z" fill="white"/>
<path d="M163.74 160.549H167.826V156.463H163.74V160.549Z" fill="white"/>
<path d="M157.677 160.549H161.763V156.463H157.677V160.549Z" fill="white"/>
<path d="M151.454 160.549H155.54V156.463H151.454V160.549Z" fill="white"/>
<path d="M163.74 166.917H167.826V162.831H163.74V166.917Z" fill="white"/>
<path d="M157.677 166.917H161.763V162.831H157.677V166.917Z" fill="white"/>
<path d="M151.454 166.917H155.54V162.831H151.454V166.917Z" fill="white"/>
<path d="M163.74 173.442H167.826V169.357H163.74V173.442Z" fill="white"/>
<path d="M157.677 173.442H161.763V169.357H157.677V173.442Z" fill="white"/>
<path d="M151.454 173.442H155.54V169.357H151.454V173.442Z" fill="white"/>
<path d="M195.172 158.771H199.258V154.685H195.172V158.771Z" fill="white"/>
<path d="M189.11 158.771H193.196V154.685H189.11V158.771Z" fill="white"/>
<path d="M182.887 158.771H186.973V154.685H182.887V158.771Z" fill="white"/>
<path d="M176.824 158.771H180.91V154.685H176.824V158.771Z" fill="white"/>
<path d="M195.172 165.289H199.258V161.203H195.172V165.289Z" fill="white"/>
<path d="M189.11 165.289H193.196V161.203H189.11V165.289Z" fill="white"/>
<path d="M182.887 165.289H186.973V161.203H182.887V165.289Z" fill="white"/>
<path d="M176.824 165.289H180.91V161.203H176.824V165.289Z" fill="white"/>
<path d="M195.172 171.647H199.258V167.562H195.172V171.647Z" fill="white"/>
<path d="M189.11 171.647H193.196V167.562H189.11V171.647Z" fill="white"/>
<path d="M182.887 171.647H186.973V167.562H182.887V171.647Z" fill="white"/>
<path d="M176.824 171.647H180.91V167.562H176.824V171.647Z" fill="white"/>
<path d="M195.172 178.009H199.258V173.923H195.172V178.009Z" fill="white"/>
<path d="M189.11 178.009H193.196V173.923H189.11V178.009Z" fill="white"/>
<path d="M182.887 178.009H186.973V173.923H182.887V178.009Z" fill="white"/>
<path d="M176.824 178.009H180.91V173.923H176.824V178.009Z" fill="white"/>
<path d="M360.216 248.979C360.216 248.979 360.059 249.294 360.059 249.451C359.273 251.494 358.33 253.38 357.544 255.265H230.568V248.979H360.216ZM391.017 154.219C390.546 156.105 390.074 158.147 389.603 160.505H225.697V154.219H391.017Z" fill="#422D24"/>
<path d="M389.446 160.505C382.846 187.063 372.631 218.493 362.102 244.737C361.945 244.737 361.788 245.365 361.631 245.837C361.159 246.937 360.688 248.037 360.216 248.98H235.912V160.505H389.446Z" fill="#573B30"/>
<path d="M235.912 175.748H385.203" stroke="#35241D" stroke-width="0.484018" stroke-miterlimit="10"/>
<path d="M235.912 204.192H377.031" stroke="#35241D" stroke-width="0.484018" stroke-miterlimit="10"/>
<path d="M235.912 232.793H366.816" stroke="#35241D" stroke-width="0.484018" stroke-miterlimit="10"/>
<path opacity="0.5" d="M193.796 4.92809C97.3068 -18.1728 14.6466 61.1873 14.6466 160.348C14.6466 164.905 14.018 169.62 12.918 174.334V206.864H202.911V7.12817C199.925 6.34243 196.782 5.71383 193.796 4.92809Z" fill="white"/>
<path opacity="0.5" d="M203.068 64.3301L48.1191 206.864H123.865L203.068 134.104V64.3301Z" fill="white" fill-opacity="0.54"/>
<path opacity="0.5" d="M13.0752 206.864H14.0181L203.068 32.9008V8.22852L13.0752 182.978V206.864Z" fill="white" fill-opacity="0.54"/>
<path opacity="0.5" d="M157.966 0.999023C137.065 1.31332 117.422 6.34208 99.8209 15.1424L40.2616 69.9873C28.9469 87.9022 21.0894 108.489 17.3179 130.489L157.966 0.999023Z" fill="white" fill-opacity="0.54"/>
<path d="M180.595 2.41429C166.609 0.371355 153.094 0.528503 140.051 2.41429H180.595ZM200.553 6.50015V133.319H110.193V10.4289C108.621 11.0575 106.893 11.6861 105.321 12.4718V133.319H16.6893C16.375 134.891 16.2179 136.462 16.0608 138.191H105.321V204.35H15.4322V144.005C14.9607 149.348 14.6464 154.848 14.6464 160.349C14.6464 167.892 12.9178 175.592 10.5605 183.449V209.222H205.268V7.60019C203.696 7.28589 202.125 6.97159 200.553 6.50015ZM200.553 204.35H110.193V138.191H200.553V204.35Z" fill="#573B30"/>
<path d="M176.824 161.134C167.238 163.492 165.509 167.263 165.509 167.263C165.509 167.263 166.295 156.577 172.267 152.648C176.352 150.134 179.653 149.977 181.381 152.177C182.953 154.22 181.381 160.034 176.824 161.134ZM154.823 155.477C157.495 158.306 165.195 161.292 165.195 161.292C165.195 161.292 163.309 154.063 159.38 151.234C156.709 149.348 153.252 148.405 151.994 149.82C150.737 151.077 152.78 153.277 154.823 155.477ZM156.709 164.906C159.38 167.735 165.824 171.192 165.824 171.192C165.824 171.192 163.938 163.963 160.009 161.134C157.338 159.249 154.195 157.677 152.937 158.934C151.837 160.349 154.666 162.706 156.709 164.906ZM174.938 171.82C172.581 174.963 166.452 179.521 166.452 179.521C166.452 179.521 167.552 171.663 171.167 168.363C173.524 166.163 176.51 164.277 177.924 165.535C179.338 166.792 176.824 169.306 174.938 171.82ZM157.809 176.063C161.266 177.949 166.766 181.249 166.766 181.249C166.766 181.249 164.881 173.706 160.952 170.72C158.28 168.835 154.666 168.677 153.88 170.406C152.623 173.078 155.137 174.492 157.809 176.063ZM161.581 191.464C163.938 194.607 168.181 198.693 168.181 198.693C168.181 198.693 167.238 191.307 164.723 187.221C162.995 184.549 160.323 182.507 159.38 184.078C157.652 186.435 159.852 189.421 161.581 191.464ZM174.624 188.007C173.052 191.621 168.338 196.021 168.338 196.021C168.338 196.021 168.181 189.107 169.752 184.549C170.695 181.564 174.152 177.478 175.567 178.735C177.767 180.621 175.724 185.492 174.624 188.007Z" fill="#286148"/>
<path d="M167.238 205.608C167.238 205.608 169.595 194.136 167.709 187.378C165.824 180.621 164.566 155.949 165.352 152.806" stroke="#388259" stroke-width="0.484018" stroke-miterlimit="10"/>
<path d="M161.737 142.59C162.995 147.305 165.352 153.748 165.352 153.748C165.352 153.748 172.424 148.405 169.909 140.862C168.652 136.933 168.18 135.519 165.352 135.676C162.995 135.676 160.637 138.662 161.737 142.59Z" fill="#286148"/>
<path d="M187.824 192.092C187.824 192.092 177.766 193.82 171.795 198.849C168.18 201.992 165.98 204.664 163.623 215.821H175.881C179.967 212.678 184.21 207.964 184.995 202.306C184.995 202.306 183.109 202.306 182.638 201.835C182.638 201.835 185.781 200.892 186.252 200.264C186.41 200.421 186.095 194.449 187.824 192.092Z" fill="#286148"/>
<path d="M169.123 215.978C169.123 215.978 171.166 201.678 182.952 195.549" stroke="#388259" stroke-width="0.484018" stroke-miterlimit="10"/>
<path d="M142.408 188.478C142.408 188.478 154.037 190.363 160.952 196.335C165.038 199.949 167.709 202.935 170.381 215.979H156.237C151.523 212.207 146.651 206.864 145.708 200.421C145.708 200.421 147.908 200.421 148.38 199.949C148.38 199.949 144.608 198.849 144.137 198.064C144.137 197.906 144.451 191.149 142.408 188.478Z" fill="#286148"/>
<path d="M163.937 215.979C163.937 215.979 161.58 199.478 147.908 192.406" stroke="#388259" stroke-width="0.484018" stroke-miterlimit="10"/>
<path d="M181.381 215.508H153.094C151.837 215.508 150.894 216.451 151.051 217.708L155.766 247.723C155.923 248.666 156.866 249.295 157.809 249.295H176.824C177.924 249.295 178.709 248.666 178.867 247.723L183.581 217.708C183.581 216.451 182.638 215.508 181.381 215.508Z" fill="url(#paint0_linear_439_2582)"/>
<path d="M283.842 132.062H242.354V148.719H283.842V132.062Z" fill="#D7BA6D"/>
<path d="M280.699 132.062H245.655V148.719H280.699V132.062Z" fill="#A58D4E"/>
<path d="M285.257 149.506C285.257 148.406 284.314 147.463 283.214 147.463H243.455C242.355 147.463 241.412 148.406 241.412 149.506V152.02C241.412 153.12 242.355 154.063 243.455 154.063H283.214C284.314 154.063 285.257 153.12 285.257 152.02V149.506Z" fill="#EBCE81"/>
<path d="M259.327 132.533H250.684V136.776H259.327V132.533Z" fill="#806726"/>
<path d="M254.298 136.776H252.569V137.719H254.298V136.776Z" fill="#806726"/>
<path d="M253.984 137.562H252.727V138.19H253.984V137.562Z" fill="#806726"/>
<path d="M257.598 136.776H255.87V137.719H257.598V136.776Z" fill="#806726"/>
<path d="M257.284 137.562H256.027V138.19H257.284V137.562Z" fill="#806726"/>
<path d="M275.671 132.533H267.027V136.776H275.671V132.533Z" fill="#806726"/>
<path d="M270.642 136.776H268.914V137.719H270.642V136.776Z" fill="#806726"/>
<path d="M270.328 137.562H269.071V138.191H270.328V137.562Z" fill="#806726"/>
<path d="M273.942 136.776H272.213V137.719H273.942V136.776Z" fill="#806726"/>
<path d="M273.628 137.562H272.371V138.19H273.628V137.562Z" fill="#806726"/>
<path d="M285.257 125.618C285.257 123.733 283.685 122.318 281.956 122.318H244.712C242.826 122.318 241.412 123.89 241.412 125.618V129.547C241.412 131.433 242.984 132.847 244.712 132.847H281.799C283.685 132.847 285.099 131.276 285.099 129.547V125.618H285.257Z" fill="#EBCE81"/>
<path d="M278.656 131.119C280.478 131.119 281.956 129.641 281.956 127.819C281.956 125.996 280.478 124.519 278.656 124.519C276.833 124.519 275.355 125.996 275.355 127.819C275.355 129.641 276.833 131.119 278.656 131.119Z" fill="#FFE7AF"/>
<path d="M247.698 131.119C249.52 131.119 250.998 129.641 250.998 127.819C250.998 125.996 249.52 124.519 247.698 124.519C245.875 124.519 244.397 125.996 244.397 127.819C244.397 129.641 245.875 131.119 247.698 131.119Z" fill="#FFE7AF"/>
<path d="M272.685 125.147C272.685 124.99 272.528 124.833 272.37 124.833H267.342C267.184 124.833 267.027 124.99 267.027 125.147V130.176C267.027 130.333 267.184 130.49 267.342 130.49H272.37C272.528 130.49 272.685 130.333 272.685 130.176V125.147Z" fill="#806726"/>
<path d="M255.398 128.29C256.266 128.29 256.969 127.587 256.969 126.719C256.969 125.851 256.266 125.147 255.398 125.147C254.53 125.147 253.826 125.851 253.826 126.719C253.826 127.587 254.53 128.29 255.398 128.29Z" fill="#FFE7AF"/>
<path d="M256.497 129.233H254.14V130.491H256.497V129.233Z" fill="#806726"/>
<path d="M259.484 128.29C260.352 128.29 261.055 127.587 261.055 126.719C261.055 125.851 260.352 125.147 259.484 125.147C258.616 125.147 257.912 125.851 257.912 126.719C257.912 127.587 258.616 128.29 259.484 128.29Z" fill="#FFE7AF"/>
<path d="M260.427 129.233H258.07V130.491H260.427V129.233Z" fill="#806726"/>
<path d="M263.411 128.29C264.279 128.29 264.982 127.587 264.982 126.719C264.982 125.851 264.279 125.147 263.411 125.147C262.543 125.147 261.839 125.851 261.839 126.719C261.839 127.587 262.543 128.29 263.411 128.29Z" fill="#FFE7AF"/>
<path d="M264.511 129.233H262.153V130.491H264.511V129.233Z" fill="#806726"/>
<path d="M259.798 141.176H250.526C250.526 143.219 251.469 146.519 252.884 147.462H257.441C258.855 146.519 259.798 143.219 259.798 141.176Z" fill="white"/>
<path d="M258.541 146.205C258.226 146.205 258.069 146.048 257.912 145.89C257.598 145.576 257.598 144.79 257.598 144.162C257.598 144.005 257.598 144.005 257.598 143.847C257.598 142.905 258.698 141.49 259.955 141.49C260.426 141.49 260.898 141.647 261.212 142.119C261.369 142.433 261.684 143.062 261.369 144.005C260.741 146.048 259.169 146.205 258.541 146.205ZM259.798 142.119C259.012 142.119 258.069 143.062 258.069 143.847C258.069 144.005 258.069 144.005 258.069 144.162C258.069 144.79 258.069 145.262 258.226 145.576C258.226 145.576 258.383 145.733 258.541 145.733C259.169 145.733 260.269 145.419 260.741 143.847C260.898 143.219 260.898 142.747 260.583 142.59C260.426 142.276 260.112 142.119 259.798 142.119Z" fill="white"/>
<path d="M381.902 177.635H346.072C345.444 177.635 344.972 178.106 344.972 178.735V180.778H383.002V178.735C383.002 178.263 382.531 177.635 381.902 177.635Z" fill="#C1482F"/>
<path d="M344.972 180.777L346.858 183.763C347.172 184.235 347.644 184.549 348.272 184.549H379.545C380.173 184.549 380.645 184.235 380.959 183.763L382.845 180.777H344.972Z" fill="#9D9D9D"/>
<path d="M379.231 256.995H377.03V190.678C377.03 187.064 374.045 184.078 370.43 184.078H357.701C354.087 184.078 351.101 187.064 351.101 190.678V256.995H348.901V190.678C348.901 185.807 352.83 181.878 357.701 181.878H370.43C375.302 181.878 379.231 185.807 379.231 190.678V256.995Z" fill="#BBBAB7"/>
<path d="M379.073 224.779H349.058V227.137H379.073V224.779Z" fill="#BBBAB7"/>
<path d="M295 177.635H259.17C258.541 177.635 258.07 178.106 258.07 178.735V180.778H296.1V178.735C296.1 178.263 295.628 177.635 295 177.635Z" fill="#C1482F"/>
<path d="M257.913 180.777L259.798 183.763C260.113 184.235 260.584 184.549 261.213 184.549H292.485C293.114 184.549 293.585 184.235 293.9 183.763L295.785 180.777H257.913Z" fill="#9D9D9D"/>
<path d="M292.171 256.995H289.971V190.678C289.971 187.064 286.985 184.078 283.371 184.078H270.642C267.027 184.078 264.041 187.064 264.041 190.678V256.995H261.841V190.678C261.841 185.807 265.77 181.878 270.642 181.878H283.371C288.242 181.878 292.171 185.807 292.171 190.678V256.995Z" fill="#BBBAB7"/>
<path d="M292.014 224.779H261.999V227.137H292.014V224.779Z" fill="#BBBAB7"/>
<path d="M140.208 244.422H137.379V288.423H140.208V244.422Z" fill="#E0DFDC"/>
<path d="M170.223 241.593C170.223 240.807 169.595 240.336 168.966 240.336H108.15C107.364 240.336 106.893 240.965 106.893 241.593V243.322C106.893 244.108 107.521 244.579 108.15 244.579H168.809C169.595 244.579 170.066 243.95 170.066 243.322V241.593H170.223Z" fill="#422D24"/>
<path d="M154.823 291.41C154.823 289.21 147.594 287.481 138.794 287.481C129.993 287.481 122.765 289.21 122.765 291.41H154.823Z" fill="#E0DFDC"/>
<path d="M75.6201 266.737H68.7056L73.8915 290.624C73.8915 290.938 74.2058 291.41 74.6772 291.41H76.8773C77.3487 291.41 77.663 290.781 77.663 290.467L75.6201 266.737ZM11.6606 266.737H18.5751L13.3892 290.624C13.3892 290.938 13.0749 291.41 12.6035 291.41H10.4034C9.93197 291.41 9.61768 290.781 9.61768 290.467L11.6606 266.737Z" fill="#573B30"/>
<path d="M77.5055 221.321H51.1045C38.0612 221.321 25.6465 216.136 16.3747 207.178L8.36012 199.321C5.84574 196.806 1.44558 198.692 1.60273 202.306L3.01707 260.451C3.17422 264.066 6.00289 266.737 9.61731 266.737H75.4626C78.7627 266.737 81.5914 264.38 82.0628 261.237L86.3058 231.379C87.0916 226.036 83.0057 221.321 77.5055 221.321Z" fill="#C1482F"/>
<path d="M202.281 266.737H209.196L204.01 290.624C204.01 290.938 203.696 291.41 203.224 291.41H201.024C200.553 291.41 200.238 290.781 200.238 290.467L202.281 266.737ZM266.084 266.737H259.169L264.355 290.624C264.355 290.938 264.669 291.41 265.141 291.41H267.341C267.812 291.41 268.126 290.781 268.126 290.467L266.084 266.737Z" fill="#573B30"/>
<path d="M200.239 221.321H226.64C239.683 221.321 252.098 216.136 261.369 207.178L269.384 199.321C271.898 196.806 276.299 198.692 276.141 202.306L274.727 260.451C274.57 264.066 271.741 266.737 268.127 266.737H202.282C198.981 266.737 196.153 264.38 195.681 261.237L191.438 231.379C190.653 226.036 194.896 221.321 200.239 221.321Z" fill="#C1482F"/>
<path d="M340.564 86.6709H350.622V83.5279H340.564V86.6709Z" fill="#422D24"/>
<path d="M340.564 83.6377H350.622V71.223H340.564V83.6377Z" fill="white"/>
<path d="M341.359 68.2588H350.002L350.631 71.0875H340.73L341.359 68.2588Z" fill="#422D24"/>
<path d="M341.35 68.2998H349.993V66.7283H341.35V68.2998Z" fill="white"/>
<path d="M345.759 70.3028C346.367 70.3028 346.859 69.8806 346.859 69.3599C346.859 68.8391 346.367 68.417 345.759 68.417C345.152 68.417 344.659 68.8391 344.659 69.3599C344.659 69.8806 345.152 70.3028 345.759 70.3028Z" fill="white"/>
<path d="M325.572 86.6709H335.629V83.5279H325.572V86.6709Z" fill="#422D24"/>
<path d="M325.572 83.6377H335.629V71.223H325.572V83.6377Z" fill="white"/>
<path d="M326.273 68.2588H334.916L335.702 71.0875H325.645L326.273 68.2588Z" fill="#422D24"/>
<path d="M326.358 68.2998H335.001V66.7283H326.358V68.2998Z" fill="white"/>
<path d="M330.674 70.3028C331.281 70.3028 331.774 69.8806 331.774 69.3599C331.774 68.8391 331.281 68.417 330.674 68.417C330.066 68.417 329.574 68.8391 329.574 69.3599C329.574 69.8806 330.066 70.3028 330.674 70.3028Z" fill="white"/>
<path d="M310.583 86.6709H320.64V83.5279H310.583V86.6709Z" fill="#422D24"/>
<path d="M310.583 83.6377H320.64V71.223H310.583V83.6377Z" fill="white"/>
<path d="M311.186 68.2598H319.987L320.615 71.0884H310.558L311.186 68.2598Z" fill="#422D24"/>
<path d="M311.212 68.2998H319.855V66.7283H311.212V68.2998Z" fill="white"/>
<path d="M315.586 70.3018C316.194 70.3018 316.686 69.8796 316.686 69.3589C316.686 68.8382 316.194 68.416 315.586 68.416C314.979 68.416 314.486 68.8382 314.486 69.3589C314.486 69.8796 314.979 70.3018 315.586 70.3018Z" fill="white"/>
<path d="M349.531 38.7158C349.531 38.7158 346.388 53.6449 349.531 54.745H342.617C339.474 53.8021 342.617 38.7158 342.617 38.7158H349.531Z" fill="#573B30"/>
<path d="M342.46 38.873C342.46 38.873 345.603 53.645 342.46 54.7451H352.832C355.975 53.8022 352.832 38.873 352.832 38.873H342.46Z" fill="#6B4C40"/>
<path d="M346.389 45.4729H351.26C351.732 45.4729 352.046 45.0015 352.046 44.6872L351.732 42.6442C351.732 42.3299 351.417 42.0156 350.946 42.0156H346.074C345.603 42.0156 345.289 42.4871 345.289 42.8014L345.603 44.8443C345.603 45.1586 345.917 45.4729 346.389 45.4729Z" fill="white"/>
<path d="M342.512 38.9512H352.884V37.694H342.512V38.9512Z" fill="#573B30"/>
<path d="M349.846 43.9133C350.042 43.3386 349.936 42.7815 349.607 42.669C349.279 42.5566 348.853 42.9314 348.656 43.5061C348.459 44.0809 348.566 44.638 348.895 44.7505C349.223 44.8629 349.649 44.4881 349.846 43.9133Z" fill="#573B30"/>
<path d="M349.689 42.8018C350.16 43.5875 349.217 44.059 349.06 44.6875C348.589 44.059 349.374 43.5875 349.689 42.8018Z" fill="#1F0F04"/>
<path d="M348.612 44.8017C348.94 44.6893 349.047 44.1322 348.85 43.5574C348.654 42.9826 348.228 42.6078 347.899 42.7202C347.571 42.8327 347.464 43.3898 347.661 43.9646C347.858 44.5394 348.284 44.9142 348.612 44.8017Z" fill="#6B4C40"/>
<path d="M347.959 42.8008C348.117 43.5865 349.059 43.9008 348.588 44.6866C348.431 44.058 347.488 43.5865 347.959 42.8008Z" fill="#1F0F04"/>
<path d="M331.773 38.7158C331.773 38.7158 328.63 53.6449 331.773 54.745H324.859C321.716 53.8021 324.859 38.7158 324.859 38.7158H331.773Z" fill="#573B30"/>
<path d="M324.702 38.873C324.702 38.873 327.845 53.645 324.702 54.7451H335.073C338.216 53.8022 335.073 38.873 335.073 38.873H324.702Z" fill="#6B4C40"/>
<path d="M328.63 45.4729H333.502C333.973 45.4729 334.288 45.0015 334.288 44.6872L333.973 42.6442C333.973 42.3299 333.659 42.0156 333.188 42.0156H328.316C327.845 42.0156 327.53 42.4871 327.53 42.8014L327.845 44.8443C327.845 45.1586 328.159 45.4729 328.63 45.4729Z" fill="white"/>
<path d="M324.771 38.9512H335.143V37.694H324.771V38.9512Z" fill="#573B30"/>
<path d="M332.093 43.9202C332.289 43.3454 332.183 42.7883 331.854 42.6758C331.526 42.5634 331.1 42.9382 330.903 43.513C330.706 44.0878 330.813 44.6449 331.142 44.7573C331.47 44.8698 331.896 44.495 332.093 43.9202Z" fill="#573B30"/>
<path d="M331.931 42.8018C332.402 43.5875 331.459 44.059 331.302 44.6875C330.831 44.059 331.774 43.5875 331.931 42.8018Z" fill="#1F0F04"/>
<path d="M330.853 44.8037C331.182 44.6913 331.288 44.1342 331.092 43.5594C330.895 42.9846 330.469 42.6098 330.141 42.7222C329.812 42.8346 329.705 43.3917 329.902 43.9665C330.099 44.5413 330.525 44.9161 330.853 44.8037Z" fill="#6B4C40"/>
<path d="M330.201 42.8008C330.358 43.5865 331.301 43.9008 330.829 44.6866C330.672 44.058 329.729 43.5865 330.201 42.8008Z" fill="#1F0F04"/>
<path d="M314.016 38.7158C314.016 38.7158 310.873 53.6449 314.016 54.745H307.101C303.958 53.8021 307.101 38.7158 307.101 38.7158H314.016Z" fill="#573B30"/>
<path d="M307.101 38.873C307.101 38.873 310.244 53.645 307.101 54.7451H317.473C320.616 53.8022 317.473 38.873 317.473 38.873H307.101Z" fill="#6B4C40"/>
<path d="M310.872 45.4729H315.744C316.216 45.4729 316.53 45.0015 316.53 44.6872L316.216 42.6442C316.216 42.3299 315.901 42.0156 315.43 42.0156H310.558C310.087 42.0156 309.772 42.4871 309.772 42.8014L310.087 44.8443C310.087 45.1586 310.401 45.4729 310.872 45.4729Z" fill="white"/>
<path d="M306.872 38.9512H317.244V37.694H306.872V38.9512Z" fill="#573B30"/>
<path d="M314.341 43.929C314.538 43.3542 314.431 42.7971 314.103 42.6846C313.774 42.5722 313.348 42.947 313.152 43.5218C312.955 44.0966 313.062 44.6537 313.39 44.7661C313.719 44.8785 314.144 44.5038 314.341 43.929Z" fill="#573B30"/>
<path d="M314.173 42.8018C314.644 43.5875 313.701 44.059 313.544 44.6875C313.073 44.059 314.016 43.5875 314.173 42.8018Z" fill="#1F0F04"/>
<path d="M313.096 44.8057C313.424 44.6932 313.531 44.1361 313.334 43.5613C313.138 42.9865 312.712 42.6117 312.383 42.7242C312.055 42.8366 311.948 43.3937 312.145 43.9685C312.342 44.5433 312.767 44.9181 313.096 44.8057Z" fill="#6B4C40"/>
<path d="M312.443 42.8008C312.6 43.5865 313.543 43.9008 313.072 44.6866C312.915 44.058 311.972 43.5865 312.443 42.8008Z" fill="#1F0F04"/>
<path d="M284.749 58.7588L371.337 58.7588V54.6729L284.749 54.6729V58.7588Z" fill="#573B30"/>
<path d="M284.749 90.6377L371.337 90.6377V86.5518L284.749 86.5518V90.6377Z" fill="#573B30"/>
<path d="M55.9761 45.4727C55.9761 45.4727 53.776 50.6586 54.0903 52.5443C54.2475 53.6444 55.6618 55.8445 56.7618 56.4731C57.2333 56.7874 58.3333 56.6302 58.8048 56.4731C59.9048 55.8445 61.3191 53.8015 61.4763 52.5443C61.7906 50.8157 59.5905 45.4727 59.5905 45.4727H55.9761Z" fill="#FFDD95"/>
<path d="M59.905 42.1719H55.5049V45.472H59.905V42.1719Z" fill="#573B30"/>
<path d="M60.5334 41.2295H55.0332V42.1724H60.5334V41.2295Z" fill="#573B30"/>
<path d="M58.6477 30.3857H57.0762V41.229H58.6477V30.3857Z" fill="#573B30"/>
<path d="M58.0192 1.94238H57.3906V30.3863H58.0192V1.94238Z" fill="#573B30"/>
<path d="M263.255 45.4727C263.255 45.4727 260.422 50.6586 260.737 52.5443C260.894 53.6444 262.941 55.8445 264.041 56.4731C264.512 56.7874 265.612 56.6302 266.084 56.4731C267.184 55.8445 269.062 53.8015 269.219 52.5443C269.533 50.8157 266.87 45.4727 266.87 45.4727H263.255Z" fill="#FFDD95"/>
<path d="M267.341 42.1719H262.941V45.472H267.341V42.1719Z" fill="#573B30"/>
<path d="M267.813 41.2295H262.312V42.1724H267.813V41.2295Z" fill="#573B30"/>
<path d="M265.927 30.3857H264.356V41.229H265.927V30.3857Z" fill="#573B30"/>
<path d="M265.456 1.94238H264.827V30.3863H265.456V1.94238Z" fill="#573B30"/>
<defs>
<linearGradient id="paint0_linear_439_2582" x1="167.308" y1="215.508" x2="167.308" y2="249.295" gradientUnits="userSpaceOnUse">
<stop stop-color="#C1482F"/>
<stop offset="1" stop-color="#B43B22"/>
</linearGradient>
</defs>
</svg>
