<svg width="66" height="19" viewBox="0 0 66 19" fill="none" xmlns="http://www.w3.org/2000/svg">
<path d="M7.26494 5.56445C8.79991 5.56445 10.0403 6.05285 10.9861 7.02965C11.9319 7.99094 12.4048 9.33986 12.4048 11.0764V17.6349C12.4048 18.1872 11.9571 18.6349 11.4048 18.6349H9.14876V11.5183C9.14876 10.4949 8.89294 9.71201 8.38128 9.1693C7.86962 8.61113 7.17191 8.33205 6.28814 8.33205C5.38886 8.33205 4.67564 8.61113 4.14848 9.1693C3.63682 9.71201 3.381 10.4949 3.381 11.5183V17.6349C3.381 18.1872 2.93329 18.6349 2.381 18.6349H0.125V5.7505H1.77625C2.66253 5.7505 3.381 6.46897 3.381 7.35525V7.35525C3.81513 6.79708 4.36555 6.36294 5.03225 6.05285C5.71446 5.72725 6.45869 5.56445 7.26494 5.56445ZM19.9432 18.8443C18.7028 18.8443 17.5864 18.5729 16.5941 18.0303C15.6018 17.4721 14.8188 16.6891 14.2452 15.6813C13.687 14.6735 13.4079 13.5106 13.4079 12.1927C13.4079 10.8748 13.6947 9.71201 14.2684 8.70416C14.8576 7.69635 15.6561 6.92111 16.6639 6.37845C17.6717 5.82028 18.7958 5.54119 20.0362 5.54119C21.2766 5.54119 22.4007 5.82028 23.4085 6.37845C24.4163 6.92111 25.207 7.69635 25.7807 8.70416C26.3699 9.71201 26.6645 10.8748 26.6645 12.1927C26.6645 13.5106 26.3621 14.6735 25.7574 15.6813C25.1683 16.6891 24.362 17.4721 23.3387 18.0303C22.3309 18.5729 21.199 18.8443 19.9432 18.8443ZM19.9432 16.0069C20.5323 16.0069 21.0828 15.8673 21.5944 15.5883C22.1216 15.2937 22.5402 14.8595 22.8503 14.2859C23.1604 13.7122 23.3154 13.0145 23.3154 12.1927C23.3154 10.9678 22.9898 10.0298 22.3386 9.37862C21.703 8.71191 20.92 8.37856 19.9897 8.37856C19.0594 8.37856 18.2764 8.71191 17.6407 9.37862C17.0205 10.0298 16.7104 10.9678 16.7104 12.1927C16.7104 13.4176 17.0128 14.3634 17.6174 15.0301C18.2376 15.6813 19.0129 16.0069 19.9432 16.0069ZM33.495 18.8443C32.2546 18.8443 31.1383 18.5729 30.146 18.0303C29.1537 17.4721 28.3707 16.6891 27.797 15.6813C27.2388 14.6735 26.9597 13.5106 26.9597 12.1927C26.9597 10.8748 27.2466 9.71201 27.8202 8.70416C28.4094 7.69635 29.2079 6.92111 30.2157 6.37845C31.2235 5.82028 32.3476 5.54119 33.588 5.54119C34.8284 5.54119 35.9525 5.82028 36.9603 6.37845C37.9681 6.92111 38.7589 7.69635 39.3325 8.70416C39.9217 9.71201 40.2163 10.8748 40.2163 12.1927C40.2163 13.5106 39.914 14.6735 39.3093 15.6813C38.7201 16.6891 37.9138 17.4721 36.8905 18.0303C35.8827 18.5729 34.7509 18.8443 33.495 18.8443ZM33.495 16.0069C34.0842 16.0069 34.6346 15.8673 35.1462 15.5883C35.6734 15.2937 36.092 14.8595 36.4021 14.2859C36.7122 13.7122 36.8673 13.0145 36.8673 12.1927C36.8673 10.9678 36.5417 10.0298 35.8905 9.37862C35.2548 8.71191 34.4718 8.37856 33.5415 8.37856C32.6112 8.37856 31.8282 8.71191 31.1925 9.37862C30.5723 10.0298 30.2622 10.9678 30.2622 12.1927C30.2622 13.4176 30.5646 14.3634 31.1693 15.0301C31.7895 15.6813 32.5647 16.0069 33.495 16.0069ZM49.1949 18.6349C49.0426 18.6349 48.8986 18.5655 48.8038 18.4465L45.4727 14.2649C45.1779 13.8948 44.5816 14.1033 44.5816 14.5764V17.6349C44.5816 18.1872 44.1339 18.6349 43.5816 18.6349H42.3256C41.7733 18.6349 41.3256 18.1872 41.3256 17.6349V1.92469C41.3256 1.64854 41.5495 1.42468 41.8256 1.42468H44.0816C44.3577 1.42468 44.5816 1.64854 44.5816 1.92468V9.77854C44.5816 10.2525 45.1795 10.4605 45.4737 10.0888L48.7573 5.9402C48.8521 5.82038 48.9965 5.7505 49.1493 5.7505H52.0361C52.466 5.7505 52.6955 6.2572 52.4119 6.58033L47.4654 12.216L52.4445 17.8022C52.7318 18.1245 52.503 18.6349 52.0713 18.6349H49.1949ZM55.2795 4.21553C54.7058 4.21553 54.2251 4.03723 53.8375 3.68062C53.4654 3.3085 53.2794 2.85111 53.2794 2.30845C53.2794 1.76578 53.4654 1.31614 53.8375 0.959534C54.2251 0.587424 54.7058 0.401367 55.2795 0.401367C55.8531 0.401367 56.326 0.587424 56.6982 0.959534C57.0858 1.31614 57.2796 1.76578 57.2796 2.30845C57.2796 2.85111 57.0858 3.3085 56.6982 3.68062C56.326 4.03723 55.8531 4.21553 55.2795 4.21553ZM56.3842 5.7505C56.6603 5.7505 56.8842 5.97436 56.8842 6.2505V18.1349C56.8842 18.4111 56.6603 18.6349 56.3842 18.6349H54.1282C53.8521 18.6349 53.6282 18.4111 53.6282 18.1349V6.2505C53.6282 5.97436 53.8521 5.7505 54.1282 5.7505H56.3842ZM62.6129 8.42508V14.658C62.6129 15.0921 62.7137 15.41 62.9153 15.6115C63.1323 15.7976 63.4889 15.8906 63.9851 15.8906V15.8906C64.82 15.8906 65.4968 16.5674 65.4968 17.4023V18.6257C65.4968 18.6308 65.4927 18.6349 65.4876 18.6349H63.4502C60.7058 18.6349 59.3337 17.3015 59.3337 14.6347V8.42508H58.0987C57.933 8.42508 57.7987 8.29077 57.7987 8.12508V6.0505C57.7987 5.88482 57.933 5.7505 58.0987 5.7505H59.3337V5.7505C59.3337 3.9908 60.7602 2.56428 62.5199 2.56428H62.6129V5.7505H65.1968C65.3625 5.7505 65.4968 5.88482 65.4968 6.0505V8.12508C65.4968 8.29077 65.3625 8.42508 65.1968 8.42508H62.6129Z" fill="black"/>
</svg>
