<svg width="25" height="25" viewBox="0 0 25 25" fill="none" xmlns="http://www.w3.org/2000/svg">
<path d="M21.9414 11.3584C21.9414 16.9084 18.1014 22.0984 12.9414 23.3584C7.78141 22.0984 3.94141 16.9084 3.94141 11.3584V5.3584L12.9414 1.3584L21.9414 5.3584V11.3584ZM12.9414 21.3584C16.6914 20.3584 19.9414 15.8984 19.9414 11.5784V6.6584L12.9414 3.5384L5.94141 6.6584V11.5784C5.94141 15.8984 9.19141 20.3584 12.9414 21.3584ZM15.7414 11.3584V9.8584C15.7414 8.4584 14.3414 7.3584 12.9414 7.3584C11.5414 7.3584 10.1414 8.4584 10.1414 9.8584V11.3584C9.54141 11.3584 8.94141 11.9584 8.94141 12.5584V16.0584C8.94141 16.7584 9.54141 17.3584 10.1414 17.3584H15.6414C16.3414 17.3584 16.9414 16.7584 16.9414 16.1584V12.6584C16.9414 11.9584 16.3414 11.3584 15.7414 11.3584ZM14.4414 11.3584H11.4414V9.8584C11.4414 9.0584 12.1414 8.5584 12.9414 8.5584C13.7414 8.5584 14.4414 9.0584 14.4414 9.8584V11.3584Z" fill="black"/>
</svg>
