<svg width="14" height="15" viewBox="0 0 14 15" fill="none" xmlns="http://www.w3.org/2000/svg">
<path d="M6.21112 11.3555H7.59137V9.97522H6.21112V11.3555ZM6.90125 0.313477C5.99496 0.313477 5.09755 0.491983 4.26025 0.838803C3.42296 1.18562 2.66217 1.69396 2.02133 2.3348C0.727093 3.62904 0 5.3844 0 7.21472C0 9.04505 0.727093 10.8004 2.02133 12.0946C2.66217 12.7355 3.42296 13.2438 4.26025 13.5906C5.09755 13.9375 5.99496 14.116 6.90125 14.116C8.73157 14.116 10.4869 13.3889 11.7812 12.0946C13.0754 10.8004 13.8025 9.04505 13.8025 7.21472C13.8025 6.30844 13.624 5.41103 13.2772 4.57373C12.9303 3.73643 12.422 2.97564 11.7812 2.3348C11.1403 1.69396 10.3795 1.18562 9.54224 0.838803C8.70494 0.491983 7.80753 0.313477 6.90125 0.313477ZM6.90125 12.7357C3.8578 12.7357 1.38025 10.2582 1.38025 7.21472C1.38025 4.17127 3.8578 1.69373 6.90125 1.69373C9.94469 1.69373 12.4222 4.17127 12.4222 7.21472C12.4222 10.2582 9.94469 12.7357 6.90125 12.7357ZM6.90125 3.07397C6.16912 3.07397 5.46697 3.36481 4.94928 3.88251C4.43158 4.4002 4.14075 5.10234 4.14075 5.83447H5.521C5.521 5.46841 5.66642 5.11734 5.92526 4.85849C6.18411 4.59964 6.53518 4.45422 6.90125 4.45422C7.26731 4.45422 7.61838 4.59964 7.87723 4.85849C8.13608 5.11734 8.28149 5.46841 8.28149 5.83447C8.28149 7.21472 6.21112 7.04219 6.21112 9.2851H7.59137C7.59137 7.73232 9.66174 7.55978 9.66174 5.83447C9.66174 5.10234 9.37091 4.4002 8.85321 3.88251C8.33552 3.36481 7.63337 3.07397 6.90125 3.07397Z" fill="#A09996"/>
</svg>
