<svg width="211" height="136" viewBox="0 0 211 136" fill="none" xmlns="http://www.w3.org/2000/svg">
<rect x="0.669922" y="0.5" width="209" height="135" rx="24.5" fill="#006FCF"/>
<path fill-rule="evenodd" clip-rule="evenodd" d="M209.249 25.2613H192.032L183.033 51.0859L173.643 25.2613H156.035V65.4722L138.036 25.2613H123.56L105.561 66.3451H118.081L121.603 58.1288H140.384L143.906 66.3451H167.382V37.7817L177.947 66.3451H187.728L198.293 37.7817V66.3451H209.249V72.6053H194.771L183.033 85.5176L170.904 72.6053H121.212V113.689H170.513L182.641 100.386L194.771 113.689H209.249V118.775H192.032L182.641 108.602L173.251 118.775H114.952V71.8226H96.1699L119.646 19H142.34L150.557 36.9991V19H178.729L183.424 32.695L188.12 19H209.249V25.2613ZM209.249 81.6043L198.684 92.9513L209.249 104.298V113.689L190.076 92.9513L209.249 72.6053V81.6043ZM156.035 113.689V103.907H132.559V97.6472H155.643V88.2564H132.559V81.9962H156.035V72.6053L175.599 92.9513L156.035 113.689ZM125.124 49.1287L130.603 35.8256L136.08 49.1287H125.124Z" fill="white"/>
<rect x="0.669922" y="0.5" width="209" height="135" rx="24.5" stroke="#D6DCE5"/>
</svg>
