<svg width="210" height="136" viewBox="0 0 210 136" fill="none" xmlns="http://www.w3.org/2000/svg">
<rect x="0.5" y="0.5" width="209" height="135" rx="24.5" fill="#000008"/>
<path d="M67.2764 50.4478C68.664 48.7121 69.6057 46.3815 69.3574 44C67.326 44.101 64.8471 45.3402 63.4119 47.0772C62.1233 48.5648 60.9827 50.9929 61.2801 53.2746C63.5604 53.4724 65.8386 52.1348 67.2764 50.4478Z" fill="white"/>
<path d="M69.3315 53.7201C66.0199 53.5229 63.2043 55.5996 61.6228 55.5996C60.0405 55.5996 57.6188 53.8195 54.9995 53.8675C51.5903 53.9176 48.427 55.8452 46.697 58.9109C43.1386 65.0439 45.7579 74.1413 49.2182 79.1363C50.8986 81.6075 52.9238 84.3285 55.5923 84.2307C58.1135 84.1318 59.1017 82.5982 62.1664 82.5982C65.2289 82.5982 66.1191 84.2307 68.788 84.1813C71.5557 84.1318 73.286 81.7089 74.9664 79.2353C76.8941 76.4183 77.6832 73.6982 77.7329 73.5489C77.6832 73.4994 72.3959 71.4711 72.3469 65.389C72.297 60.2964 76.498 57.8741 76.6957 57.7239C74.3234 54.2152 70.6166 53.8195 69.3315 53.7201Z" fill="white"/>
<path d="M98.1662 46.8281C105.364 46.8281 110.376 51.7896 110.376 59.0131C110.376 66.2623 105.261 71.2496 97.9858 71.2496H90.0165V83.9229H84.2588V46.8281L98.1662 46.8281ZM90.0165 66.4165H96.6232C101.636 66.4165 104.489 63.7177 104.489 59.0388C104.489 54.3605 101.636 51.6869 96.6489 51.6869H90.0165V66.4165Z" fill="white"/>
<path d="M111.88 76.2367C111.88 71.5063 115.505 68.6017 121.932 68.2417L129.335 67.8048V65.7228C129.335 62.715 127.304 60.9156 123.911 60.9156C120.697 60.9156 118.692 62.4576 118.204 64.8744H112.96C113.269 59.9898 117.433 56.391 124.117 56.391C130.672 56.391 134.862 59.8614 134.862 65.2855V83.9228H129.54V79.4756H129.412C127.844 82.4834 124.425 84.3855 120.878 84.3855C115.582 84.3855 111.88 81.095 111.88 76.2367ZM129.335 73.7947V71.6611L122.677 72.0721C119.361 72.3037 117.484 73.7689 117.484 76.0825C117.484 78.4472 119.438 79.9898 122.42 79.9898C126.301 79.9898 129.335 77.3162 129.335 73.7947Z" fill="white"/>
<path d="M139.886 93.8715V89.3727C140.296 89.4753 141.221 89.4753 141.685 89.4753C144.255 89.4753 145.643 88.3959 146.491 85.6196C146.491 85.5681 146.98 83.9744 146.98 83.9486L137.212 56.8794H143.227L150.065 78.8845H150.167L157.006 56.8794H162.867L152.738 85.3365C150.425 91.8921 147.752 93.9999 142.148 93.9999C141.685 93.9999 140.296 93.9483 139.886 93.8715Z" fill="white"/>
<rect x="0.5" y="0.5" width="209" height="135" rx="24.5" stroke="#D6DCE5"/>
</svg>
