<svg width="210" height="136" viewBox="0 0 210 136" fill="none" xmlns="http://www.w3.org/2000/svg">
<rect x="0.5" y="0.5" width="209" height="135" rx="24.5" fill="white"/>
<path fill-rule="evenodd" clip-rule="evenodd" d="M117.617 28.0186C125.687 28.0186 129.657 28.0186 134.016 29.3883C136.356 30.2354 138.48 31.5864 140.239 33.3457C141.999 35.1049 143.349 37.2294 144.197 39.5688C145.566 43.8908 145.566 47.8982 145.566 55.9316V80.1055C145.566 88.1296 145.566 92.137 144.197 96.4683C143.349 98.8077 141.999 100.932 140.239 102.691C138.48 104.451 136.356 105.802 134.016 106.649C129.694 108.019 125.687 108.019 117.654 108.019H93.4065C85.3827 108.019 81.3754 108.019 77.0441 106.649C74.7049 105.802 72.5804 104.451 70.8212 102.691C69.062 100.932 67.711 98.8077 66.8639 96.4683C65.5312 92.1463 65.5312 88.1759 65.5312 80.1055V55.8945C65.5312 47.8705 65.5312 43.8631 66.901 39.5317C67.748 37.1924 69.099 35.0679 70.8582 33.3086C72.6174 31.5494 74.7419 30.1984 77.0812 29.3513C81.3661 28.0186 85.3827 28.0186 93.4065 28.0186H117.617Z" fill="url(#paint0_linear_366_1221)"/>
<path d="M107.549 54.2385C111.48 54.2446 115.283 55.6412 118.284 58.1811C118.594 58.4619 119 58.6136 119.418 58.605C119.836 58.5964 120.235 58.4282 120.533 58.1348L123.624 55.0344C123.779 54.8806 123.9 54.6964 123.981 54.4933C124.061 54.2903 124.098 54.0729 124.091 53.8547C124.083 53.6365 124.03 53.4223 123.935 53.2255C123.841 53.0288 123.706 52.8537 123.541 52.7114C121.113 50.6461 118.306 49.0743 115.276 48.0839L116.202 43.5212C116.25 43.2867 116.245 43.0444 116.188 42.812C116.131 42.5796 116.022 42.3628 115.871 42.1775C115.719 41.9923 115.528 41.8431 115.312 41.7409C115.095 41.6388 114.859 41.5862 114.619 41.5869H108.668C108.3 41.5866 107.942 41.712 107.654 41.9426C107.366 42.1731 107.166 42.4949 107.086 42.8549L106.253 46.9363C98.3309 47.325 91.612 51.2491 91.612 59.2917C91.612 66.2422 97.1648 69.2315 103.032 71.3232C108.585 73.387 111.528 74.1552 111.528 77.0612C111.528 79.9673 108.594 81.7998 104.272 81.7998C100.078 81.8667 96.0259 80.281 92.9909 77.3852C92.6897 77.089 92.2843 76.923 91.8618 76.923C91.4394 76.923 91.0339 77.089 90.7328 77.3852L87.4196 80.6244C87.2648 80.7737 87.1417 80.9527 87.0576 81.1507C86.9735 81.3487 86.9302 81.5616 86.9302 81.7766C86.9302 81.9917 86.9735 82.2046 87.0576 82.4026C87.1417 82.6006 87.2648 82.7795 87.4196 82.9289C90.1192 85.4575 93.4141 87.2626 96.9982 88.1765L96.0728 92.406C96.0239 92.6423 96.0275 92.8864 96.0834 93.1211C96.1393 93.3558 96.246 93.5754 96.3961 93.7643C96.5461 93.9533 96.7359 94.1069 96.9519 94.2144C97.1679 94.3219 97.4049 94.3807 97.6461 94.3865H103.615C103.987 94.3886 104.348 94.2628 104.638 94.0302C104.928 93.7977 105.129 93.4726 105.207 93.1094L106.068 89.102C115.563 88.5189 121.366 83.4101 121.366 75.9321C121.366 69.0464 115.582 66.1404 108.557 63.7711C104.541 62.2625 101.07 61.2723 101.07 58.2921C101.07 55.312 104.309 54.2385 107.549 54.2385Z" fill="white"/>
<rect x="0.5" y="0.5" width="209" height="135" rx="24.5" stroke="#D6DCE5"/>
<defs>
<linearGradient id="paint0_linear_366_1221" x1="105.512" y1="107.982" x2="105.512" y2="28.0186" gradientUnits="userSpaceOnUse">
<stop stop-color="#00C244"/>
<stop offset="1" stop-color="#00D64B"/>
</linearGradient>
</defs>
</svg>
