<svg width="211" height="136" viewBox="0 0 211 136" fill="none" xmlns="http://www.w3.org/2000/svg">
<rect x="0.669922" y="0.5" width="209" height="135" rx="24.5" fill="#006699"/>
<path d="M51.4835 91.1028C51.4835 92.9731 52.8198 93.1893 54.0079 93.1893C59.2514 93.1893 60.9709 89.2355 60.9709 85.6185C60.9709 81.083 58.0603 77.8069 53.3769 77.8069C52.3815 77.8069 51.9229 77.8764 51.4835 77.9028V91.1028ZM49.1069 79.7205C49.1069 77.5384 47.9651 77.6822 46.8755 77.6576V77.0306C47.8198 77.0744 48.7906 77.0744 49.7379 77.0744C50.7565 77.0744 52.1406 77.0306 53.937 77.0306C60.2192 77.0306 63.6417 81.2253 63.6417 85.5229C63.6417 87.9253 62.2359 93.967 53.6454 93.967C52.4105 93.967 51.2658 93.9203 50.1269 93.9203C49.0344 93.9203 47.9651 93.9454 46.8755 93.967V93.3342C48.3276 93.1893 49.0344 93.1411 49.1069 91.4919V79.7205Z" fill="white"/>
<path d="M67.0906 79.141C66.4566 79.141 65.8995 78.5574 65.8995 77.9279C65.8995 77.32 66.4817 76.7599 67.0906 76.7599C67.7191 76.7599 68.2806 77.2707 68.2806 77.9279C68.2806 78.5824 67.7452 79.141 67.0906 79.141ZM64.4922 93.3349H64.9537C65.6326 93.3349 66.1172 93.3349 66.1172 92.5311V85.9587C66.1172 84.8908 65.7558 84.7444 64.8548 84.2623V83.8736C65.997 83.5313 67.355 83.0742 67.4536 82.9974C67.6234 82.9029 67.7669 82.8782 67.8904 82.8782C68.0107 82.8782 68.0585 83.022 68.0585 83.2165V92.5311C68.0585 93.3349 68.5954 93.3349 69.2712 93.3349H69.6849V93.9674C68.8594 93.9674 68.0107 93.9196 67.1373 93.9196C66.2636 93.9196 65.3902 93.9443 64.4922 93.9674V93.3349Z" fill="white"/>
<path d="M71.9906 86.1028C71.9906 85.2078 71.7236 84.964 70.5848 84.5054V84.0413C71.6265 83.7019 72.6201 83.3838 73.7869 82.8775C73.8594 82.8775 73.9304 82.9256 73.9304 83.1169V84.6985C75.316 83.7019 76.5059 82.8775 78.1324 82.8775C80.1939 82.8775 80.9223 84.3807 80.9223 86.2742V92.5318C80.9223 93.3357 81.4578 93.3357 82.1351 93.3357H82.572V93.9667C81.7203 93.9667 80.8716 93.9203 80.0008 93.9203C79.126 93.9203 78.2526 93.945 77.3793 93.9667V93.3357H77.8158C78.4964 93.3357 78.9782 93.3357 78.9782 92.5318V86.251C78.9782 84.8654 78.1324 84.1877 76.7468 84.1877C75.9705 84.1877 74.7342 84.8176 73.9304 85.3527V92.5318C73.9304 93.3357 74.4687 93.3357 75.1475 93.3357H75.5844V93.9667C74.7342 93.9667 73.8825 93.9203 73.0077 93.9203C72.1369 93.9203 71.2625 93.945 70.3888 93.9667V93.3357H70.8286C71.5059 93.3357 71.9906 93.3357 71.9906 92.5318V86.1028Z" fill="white"/>
<path d="M88.7141 86.4919C89.3176 86.4919 89.3886 86.1775 89.3886 85.887C89.3886 84.6466 88.6373 83.6526 87.2793 83.6526C85.8006 83.6526 84.7809 84.7437 84.4893 86.4919H88.7141ZM84.418 87.2711C84.3672 87.4888 84.3672 87.8517 84.418 88.6769C84.5603 90.984 86.043 92.876 87.9827 92.876C89.3176 92.876 90.3652 92.1461 91.2603 91.2495L91.6001 91.589C90.4829 93.0691 89.1017 94.3296 87.1123 94.3296C83.2515 94.3296 82.4767 90.5939 82.4767 89.0413C82.4767 84.2851 85.6789 82.8778 87.3749 82.8778C89.3422 82.8778 91.4563 84.1141 91.478 86.6849C91.478 86.8346 91.478 86.978 91.4563 87.1247L91.2342 87.2711H84.418Z" fill="white"/>
<path d="M92.0358 93.3349H92.693C93.3718 93.3349 93.8539 93.3349 93.8539 92.5311V85.7149C93.8539 84.9651 92.9585 84.8183 92.5944 84.6223V84.2627C94.3639 83.5081 95.338 82.8786 95.5568 82.8786C95.7006 82.8786 95.7731 82.9481 95.7731 83.1934V85.3755H95.8253C96.4287 84.4308 97.4488 82.8786 98.9289 82.8786C99.5353 82.8786 100.31 83.2879 100.31 84.1627C100.31 84.8183 99.853 85.403 99.1712 85.403C98.4167 85.403 98.4167 84.8183 97.5694 84.8183C97.1572 84.8183 95.7977 85.3755 95.7977 86.835V92.5311C95.7977 93.3349 96.2824 93.3349 96.9616 93.3349H98.3207V93.9678C96.9862 93.9446 95.9691 93.9196 94.9258 93.9196C93.9289 93.9196 92.9107 93.9446 92.0358 93.9678V93.3349Z" fill="white"/>
<path d="M101.377 90.5943C101.695 92.1946 102.666 93.5552 104.437 93.5552C105.868 93.5552 106.399 92.6807 106.399 91.8317C106.399 88.9693 101.113 89.8875 101.113 85.9833C101.113 84.6223 102.206 82.8782 104.875 82.8782C105.65 82.8782 106.694 83.0959 107.64 83.5806L107.811 86.0558H107.254C107.011 84.5282 106.159 83.6515 104.607 83.6515C103.635 83.6515 102.715 84.2116 102.715 85.2548C102.715 88.0959 108.343 87.2207 108.343 91.0307C108.343 92.6311 107.058 94.33 104.172 94.33C103.197 94.33 102.058 93.9921 101.209 93.5078L100.942 90.716L101.377 90.5943Z" fill="white"/>
<path d="M130.255 81.4202H129.649C129.189 78.5824 127.173 77.4421 124.459 77.4421C121.664 77.4421 117.611 79.309 117.611 85.1302C117.611 90.0357 121.112 93.5552 124.845 93.5552C127.247 93.5552 129.238 91.9059 129.724 89.3565L130.28 89.5003L129.724 93.0448C128.704 93.6773 125.959 94.33 124.357 94.33C118.68 94.33 115.092 90.6667 115.092 85.207C115.092 80.232 119.53 76.664 124.287 76.664C126.254 76.664 128.144 77.2954 130.013 77.9495L130.255 81.4202Z" fill="white"/>
<path d="M131.128 93.3349H131.591C132.272 93.3349 132.757 93.3349 132.757 92.5311V79.0222C132.757 77.4421 132.393 77.3928 131.471 77.1273V76.7383C132.44 76.4224 133.46 75.9888 133.97 75.6935C134.236 75.5486 134.432 75.4251 134.503 75.4251C134.651 75.4251 134.697 75.5718 134.697 75.7674V92.5311C134.697 93.3349 135.233 93.3349 135.912 93.3349H136.324V93.9678C135.503 93.9678 134.651 93.9196 133.775 93.9196C132.904 93.9196 132.031 93.9446 131.128 93.9678V93.3349Z" fill="white"/>
<path d="M146.712 92.6307C146.712 93.0705 146.976 93.0922 147.391 93.0922C147.68 93.0922 148.047 93.0705 148.363 93.0705V93.5809C147.315 93.6769 145.328 94.1862 144.863 94.3311L144.745 94.2587V92.2957C143.291 93.4839 142.171 94.3311 140.446 94.3311C139.137 94.3311 137.781 93.4839 137.781 91.447V85.2328C137.781 84.5999 137.682 83.9921 136.327 83.8733V83.4118C137.201 83.3857 139.137 83.2434 139.454 83.2434C139.725 83.2434 139.725 83.4118 139.725 83.9457V90.2048C139.725 90.9318 139.725 93.0194 141.834 93.0194C142.657 93.0194 143.749 92.3869 144.768 91.5441V85.0107C144.768 84.5275 143.604 84.262 142.732 84.0171V83.5802C144.916 83.4335 146.277 83.2434 146.517 83.2434C146.712 83.2434 146.712 83.4118 146.712 83.6802V92.6307Z" fill="white"/>
<path d="M151.539 91.2245C151.539 92.1472 152.412 93.6997 154.04 93.6997C156.639 93.6997 157.73 91.1503 157.73 88.9899C157.73 86.3713 155.739 84.1877 153.847 84.1877C152.945 84.1877 152.195 84.7709 151.539 85.331V91.2245ZM151.539 84.6227C152.509 83.8001 153.823 82.8789 155.156 82.8789C157.971 82.8789 159.67 85.3309 159.67 87.9731C159.67 91.1502 157.341 94.3307 153.868 94.3307C152.071 94.3307 151.128 93.749 150.495 93.4835L149.768 94.0391L149.261 93.7736C149.474 92.3432 149.597 90.9329 149.597 89.4543V79.0222C149.597 77.4425 149.235 77.3917 148.312 77.1262V76.7375C149.286 76.4224 150.301 75.9888 150.812 75.6928C151.078 75.549 151.272 75.4258 151.347 75.4258C151.492 75.4258 151.539 75.5722 151.539 75.7682V84.6227Z" fill="white"/>
<path d="M46.8479 108.075H47.0325C47.5069 108.075 48.0103 108.012 48.0103 107.323V100.407C48.0103 99.7179 47.5069 99.6554 47.0325 99.6554H46.8479V99.2535C47.3646 99.2535 48.1555 99.3087 48.8038 99.3087C49.4639 99.3087 50.2549 99.2535 50.8745 99.2535V99.6554H50.6899C50.2156 99.6554 49.7121 99.7179 49.7121 100.407V107.323C49.7121 108.012 50.2156 108.075 50.6899 108.075H50.8745V108.474C50.2417 108.474 49.4481 108.422 48.7895 108.422C48.1408 108.422 47.3646 108.474 46.8479 108.474V108.075Z" fill="white"/>
<path d="M50.8179 108.417L50.8194 108.135H50.6918C50.2203 108.135 49.6573 108.053 49.6544 107.323V100.406C49.6573 99.6768 50.2203 99.5955 50.6918 99.5955H50.8179V99.3157C50.2086 99.3157 49.4441 99.3664 48.8042 99.3664C48.1776 99.3664 47.4171 99.3168 46.9064 99.3157V99.5955H47.0325C47.5028 99.5955 48.0654 99.6768 48.0654 100.406V107.323C48.0654 108.053 47.5028 108.135 47.0325 108.135H46.9064V108.417C47.4171 108.41 48.1644 108.363 48.7899 108.363C49.4323 108.363 50.1972 108.413 50.8179 108.417ZM50.8745 108.53C50.2376 108.53 49.4455 108.478 48.7899 108.478C48.1427 108.478 47.3664 108.53 46.8483 108.53H46.7905V108.021H47.0325C47.5116 108.009 47.9481 107.97 47.9511 107.323V100.406C47.9481 99.761 47.5116 99.7172 47.0325 99.7088H46.7905V99.2009H46.8483C47.3664 99.2009 48.157 99.2517 48.8042 99.2517C49.4613 99.2517 50.2509 99.2009 50.8745 99.2009H50.9326V99.7088H50.6918C50.2115 99.7172 49.7721 99.761 49.7706 100.406V107.323C49.7721 107.97 50.2115 108.009 50.6918 108.021H50.9326V108.53H50.8745Z" fill="white"/>
<path d="M59.9471 105.872L59.9732 105.846V100.894C59.9732 99.8117 59.2201 99.6547 58.8226 99.6547H58.5339V99.2546C59.1532 99.2546 59.7629 99.3083 60.3825 99.3083C60.922 99.3083 61.4662 99.2546 62.0046 99.2546V99.6547H61.81C61.2529 99.6547 60.6304 99.758 60.6304 101.329V107.339C60.6304 107.8 60.6462 108.261 60.7116 108.671H60.2097L53.4093 101.093V106.53C53.4093 107.683 53.6328 108.074 54.65 108.074H54.8732V108.473C54.3076 108.473 53.7387 108.421 53.1699 108.421C52.5793 108.421 51.97 108.473 51.3765 108.473V108.074H51.5607C52.4719 108.074 52.7507 107.458 52.7507 106.4V100.84C52.7507 100.1 52.1399 99.6547 51.5478 99.6547H51.3765V99.2546C51.8758 99.2546 52.3921 99.3083 52.8926 99.3083C53.2901 99.3083 53.6748 99.2546 54.0693 99.2546L59.9471 105.872Z" fill="white"/>
<path d="M59.9155 105.845V105.841L59.9037 105.832L59.9155 105.845ZM60.2086 108.613H60.6469C60.5873 108.217 60.577 107.776 60.577 107.339V101.329C60.577 99.744 61.2404 99.5962 61.8089 99.5962H61.9483V99.3146C61.4272 99.3175 60.9065 99.3668 60.3829 99.3668C59.778 99.3668 59.1885 99.3175 58.5909 99.3146V99.5962H58.8215C59.2293 99.5962 60.0288 99.776 60.0288 100.895L60.0126 105.886L59.9854 105.91L59.9401 105.952L54.0701 99.3146C53.6766 99.3146 53.2938 99.3668 52.8933 99.3668C52.4102 99.3668 51.9122 99.3175 51.4338 99.3146L51.4324 99.5962H51.5482C52.1678 99.5962 52.8062 100.069 52.8062 100.841V106.401C52.8062 107.459 52.5116 108.132 51.5614 108.136L51.4338 108.132V108.417C52.0053 108.41 52.5929 108.363 53.1702 108.363C53.7233 108.363 54.2716 108.41 54.8155 108.417V108.136H54.6489C53.6101 108.132 53.3515 107.682 53.3515 106.531V100.944L60.2086 108.613ZM60.7105 108.729L60.1666 108.709L53.4648 101.241V106.531C53.4821 107.682 53.6564 108.007 54.6489 108.021H54.9331V108.529H54.8736C54.3036 108.529 53.7347 108.478 53.1702 108.478C52.5811 108.478 51.9748 108.529 51.3743 108.529H51.3162V108.021H51.5614C52.4348 108.014 52.683 107.454 52.6944 106.401V100.841C52.6915 100.139 52.1141 99.7106 51.5482 99.7091H51.3162V99.2002H51.3743C51.8803 99.2002 52.3954 99.2524 52.8933 99.2524C53.285 99.2524 53.6682 99.2002 54.1135 99.2204L59.9155 105.751V100.895C59.9085 99.8441 59.2091 99.7179 58.8215 99.7091H58.4733V99.2002H58.5328C59.1554 99.2002 59.7647 99.2524 60.3829 99.2524C60.9183 99.2524 61.4607 99.2002 62.0049 99.2002H62.0641V99.7091H61.8089C61.2621 99.7253 60.705 99.7746 60.6888 101.329V107.339C60.6888 107.798 60.7021 108.259 60.7657 108.663L60.7774 108.729H60.7105Z" fill="white"/>
<path d="M63.982 99.9158C62.9909 99.9158 62.9545 100.154 62.7545 101.117H62.3599C62.4136 100.749 62.4772 100.378 62.5195 99.9941C62.5703 99.6256 62.5975 99.2542 62.5975 98.874H62.9156C63.0215 99.2701 63.3506 99.2542 63.7076 99.2542H70.5209C70.8765 99.2542 71.2075 99.2425 71.235 98.8464L71.5484 98.9016C71.5002 99.2542 71.4465 99.6124 71.406 99.9695C71.3785 100.325 71.3785 100.683 71.3785 101.039L70.9839 101.187C70.9578 100.696 70.8894 99.9158 70.0057 99.9158H67.8413V106.941C67.8413 107.961 68.3042 108.075 68.9367 108.075H69.1861V108.473C68.6727 108.473 67.7468 108.421 67.0345 108.421C66.2439 108.421 65.3168 108.473 64.8016 108.473V108.075H65.0528C65.7809 108.075 66.1479 108.012 66.1479 106.97V99.9158H63.982Z" fill="white"/>
<path d="M69.1892 108.529C68.6682 108.529 67.7441 108.477 67.0347 108.477C66.2441 108.477 65.3226 108.529 64.8019 108.529H64.7467V108.02H65.0541C65.7826 108.003 66.0757 107.994 66.09 106.97V99.9721H63.9818V99.8603H66.2062V106.97C66.2062 108.027 65.7797 108.136 65.0541 108.136H64.8596V108.415C65.3821 108.41 66.2684 108.363 67.0347 108.363C67.7238 108.363 68.606 108.41 69.1282 108.415V108.136H68.9366C68.2982 108.136 67.7819 107.981 67.7819 106.941V99.8603H70.006C70.8926 99.8617 71.0088 100.613 71.0363 101.104L71.325 100.998C71.325 100.656 71.3265 100.31 71.3482 99.9603C71.3857 99.6238 71.4353 99.2859 71.4846 98.9479L71.2842 98.9145C71.2191 99.2976 70.8488 99.3193 70.5197 99.3149H63.6395C63.3276 99.3149 62.9908 99.2991 62.8735 98.9317H62.6529C62.6529 99.2976 62.6268 99.6499 62.5745 100.004C62.5367 100.366 62.4789 100.715 62.4293 101.06H62.711C62.8867 100.143 62.9982 99.8444 63.9818 99.8603V99.9721C63.007 99.9923 63.0287 100.155 62.811 101.131L62.804 101.176H62.2932L62.3017 101.108C62.3528 100.74 62.4223 100.37 62.4627 99.9853C62.515 99.6198 62.5411 99.2524 62.5411 98.8736V98.8159H62.9606L62.9691 98.8578C63.0607 99.1917 63.303 99.1932 63.6395 99.2002H70.5197C70.8852 99.1932 71.1551 99.1873 71.1768 98.8417L71.1812 98.781L71.2408 98.7927L71.6122 98.8505L71.6063 98.9071C71.5541 99.2627 71.5019 99.6198 71.464 99.9721C71.4368 100.326 71.4368 100.683 71.4368 101.038V101.079L71.3989 101.095L70.9304 101.266L70.929 101.186C70.8926 100.692 70.8403 99.9721 70.006 99.9721H67.8981V106.941C67.911 107.937 68.3071 108.007 68.9366 108.02H69.2429V108.529H69.1892Z" fill="white"/>
<path d="M71.9726 108.075H72.1568C72.6312 108.075 73.1331 108.012 73.1331 107.323V100.407C73.1331 99.7179 72.6312 99.6554 72.1568 99.6554H71.9726V99.2535C72.775 99.2535 74.1532 99.3087 75.259 99.3087C76.3702 99.3087 77.7415 99.2535 78.6365 99.2535C78.6149 99.8235 78.6277 100.697 78.6671 101.277L78.2681 101.383C78.2056 100.526 78.046 99.8397 76.6589 99.8397H74.828V103.296H76.3949C77.1884 103.296 77.3613 102.85 77.4381 102.136H77.8327C77.8081 102.651 77.7937 103.165 77.7937 103.68C77.7937 104.184 77.8081 104.684 77.8327 105.185L77.4381 105.264C77.3613 104.472 77.3204 103.957 76.4081 103.957H74.828V107.033C74.828 107.892 75.591 107.892 76.4339 107.892C78.0213 107.892 78.7193 107.786 79.1153 106.282L79.4838 106.375C79.3128 107.077 79.1543 107.772 79.0355 108.474C78.1927 108.474 76.6721 108.422 75.4836 108.422C74.294 108.422 72.7242 108.474 71.9726 108.474V108.075Z" fill="white"/>
<path d="M78.9877 108.415C79.1006 107.749 79.2518 107.081 79.4158 106.417L79.1543 106.351C78.7583 107.83 77.9938 107.961 76.4339 107.949C75.6013 107.949 74.7699 107.949 74.7655 107.034V103.901H76.4081C77.3307 103.889 77.4219 104.448 77.4874 105.2L77.7735 105.14C77.75 104.654 77.7371 104.164 77.7371 103.681C77.7371 103.186 77.75 102.691 77.7735 102.19H77.4874C77.4149 102.881 77.2017 103.363 76.3934 103.354H74.7655V99.779H76.6589C78.0331 99.7716 78.2622 100.481 78.3188 101.308L78.6031 101.231C78.5814 100.858 78.5685 100.384 78.5685 99.943C78.5685 99.7124 78.5726 99.5017 78.5784 99.3149C77.6819 99.3175 76.3441 99.3671 75.259 99.3671C74.1749 99.3671 72.8375 99.3175 72.0292 99.3149V99.5962H72.1568C72.6282 99.5962 73.1898 99.6775 73.1931 100.406V107.324C73.1898 108.052 72.6282 108.13 72.1568 108.136H72.0292V108.415C72.7966 108.412 74.3246 108.363 75.4836 108.363C76.6486 108.363 78.1346 108.412 78.9877 108.415ZM79.0355 108.529C78.1883 108.529 76.6707 108.476 75.4836 108.476C74.294 108.476 72.7272 108.529 71.9726 108.529H71.9145V108.022H72.1568C72.6341 108.013 73.071 107.969 73.0754 107.324V100.406C73.071 99.7632 72.6341 99.7194 72.1568 99.708H71.9145V99.2002H71.9726C72.7764 99.2002 74.1532 99.2524 75.259 99.2524C76.3673 99.2524 77.7386 99.2002 78.6365 99.2002H78.6961V99.2583C78.6844 99.4569 78.6799 99.6907 78.6799 99.943C78.6799 100.397 78.6961 100.896 78.7208 101.272V101.32L78.6785 101.333L78.2144 101.455L78.2129 101.385C78.1346 100.531 78.0213 99.9066 76.6589 99.8952H74.8802V103.238H76.3934C77.1564 103.232 77.2903 102.842 77.38 102.13L77.3859 102.079H77.8937V102.136C77.8662 102.652 77.8503 103.165 77.8503 103.681C77.8503 104.18 77.8662 104.682 77.8937 105.185V105.23L77.8459 105.242L77.3859 105.332L77.38 105.271C77.2903 104.465 77.2859 104.024 76.4081 104.014L74.8802 104.011V107.034C74.8817 107.836 75.5723 107.832 76.4339 107.836C78.0257 107.827 78.6612 107.749 79.0587 106.266L79.0719 106.212L79.1286 106.224L79.5507 106.333L79.539 106.388C79.368 107.084 79.2109 107.785 79.0922 108.481L79.0833 108.529H79.0355Z" fill="white"/>
<path d="M82.9581 103.718H83.6027C84.9243 103.718 85.6366 103.219 85.6366 101.66C85.6366 100.487 84.8835 99.7316 83.7086 99.7316C83.3093 99.7316 83.1409 99.7735 82.9581 99.7852V103.718ZM81.2676 100.656C81.2676 99.6907 80.7396 99.6543 80.3307 99.6543H80.0898V99.2542C80.512 99.2542 81.3316 99.3079 82.1384 99.3079C82.9276 99.3079 83.563 99.2542 84.2654 99.2542C85.9253 99.2542 87.4039 99.704 87.4039 101.581C87.4039 102.768 86.6144 103.493 85.5715 103.907L87.8305 107.283C88.199 107.843 88.46 107.998 89.1087 108.075V108.473C88.6733 108.473 88.2512 108.421 87.8158 108.421C87.4039 108.421 86.9829 108.473 86.574 108.473C85.5583 107.141 84.6849 105.713 83.8274 104.193H82.9581V107.019C82.9581 108.039 83.431 108.075 84.0377 108.075H84.2786V108.473C83.5226 108.473 82.758 108.421 82.0049 108.421C81.3724 108.421 80.7514 108.473 80.0898 108.473V108.075H80.3307C80.8153 108.075 81.2676 107.854 81.2676 107.363V100.656Z" fill="white"/>
<path d="M83.6031 103.662C84.9089 103.649 85.569 103.197 85.5804 101.661C85.5748 100.51 84.8567 99.7941 83.7075 99.7871C83.3505 99.7871 83.1835 99.8191 83.0151 99.8378V103.662H83.6031ZM83.6031 103.774H82.8993V99.7305L82.9485 99.726C83.1298 99.7117 83.3067 99.6768 83.7075 99.6768C84.9089 99.6768 85.6922 100.459 85.6951 101.661C85.6907 103.237 84.9335 103.774 83.6031 103.774ZM82.8993 104.137H83.8583L83.8741 104.166C84.7331 105.685 85.6024 107.11 86.5743 108.417C86.9777 108.417 87.4028 108.363 87.8121 108.363C88.2343 108.363 88.6421 108.408 89.0525 108.414V108.124C88.4314 108.05 88.1427 107.864 87.7831 107.317L85.4833 103.878L85.5498 103.851C86.5832 103.445 87.3477 102.74 87.3491 101.579C87.3477 99.7492 85.9231 99.3212 84.2661 99.3157C83.5682 99.3157 82.9309 99.3664 82.1388 99.3664C81.3596 99.3664 80.5789 99.3168 80.1468 99.3157V99.597H80.3296C80.7389 99.597 81.3206 99.6635 81.3206 100.656V107.363C81.3206 107.895 80.8271 108.135 80.3296 108.135H80.1468V108.414C80.7837 108.413 81.3827 108.363 82.0024 108.363C82.7422 108.363 83.4869 108.413 84.2179 108.414V108.135H84.0381C83.4358 108.135 82.8993 108.061 82.8993 107.02V104.137ZM89.1091 108.529C88.6667 108.529 88.2471 108.478 87.8121 108.478C87.4113 108.478 86.988 108.529 86.5265 108.51C85.5167 107.179 84.6489 105.762 83.7947 104.251H83.0151V107.02C83.0283 108.014 83.4273 108.005 84.0381 108.021H84.3341V108.529H84.2746C83.5185 108.529 82.7511 108.478 82.0024 108.478C81.3713 108.478 80.7532 108.529 80.0887 108.529H80.035V108.021H80.3296C80.8054 108.016 81.2029 107.809 81.2073 107.363V100.656C81.1989 99.7202 80.7389 99.7216 80.3296 99.7088H80.035V99.2009H80.0887C80.5197 99.2009 81.3335 99.2517 82.1388 99.2517C82.9254 99.2517 83.5608 99.2009 84.2661 99.2009C85.9271 99.2009 87.4609 99.6635 87.465 101.579C87.465 102.772 86.6758 103.516 85.6587 103.931L87.8757 107.252C88.2446 107.8 88.4737 107.938 89.1164 108.021L89.1642 108.025V108.529H89.1091Z" fill="white"/>
<path d="M98.0728 105.872L98.0975 105.846V100.894C98.0975 99.8117 97.3458 99.6547 96.9513 99.6547H96.6597V99.2546C97.2822 99.2546 97.8857 99.3083 98.5097 99.3083C99.0521 99.3083 99.5919 99.2546 100.135 99.2546V99.6547H99.9387C99.3831 99.6547 98.7605 99.758 98.7605 101.329V107.339C98.7605 107.8 98.7723 108.261 98.8373 108.671H98.3383L91.5379 101.093V106.53C91.5379 107.683 91.763 108.074 92.7801 108.074H93.0063V108.473C92.4363 108.473 91.8674 108.421 91.3 108.421C90.7054 108.421 90.0986 108.473 89.5051 108.473V108.074H89.6864C90.6006 108.074 90.8764 107.458 90.8764 106.4V100.84C90.8764 100.1 90.2685 99.6547 89.6765 99.6547H89.5051V99.2546C90.0045 99.2546 90.5237 99.3083 91.0231 99.3083C91.4177 99.3083 91.8009 99.2546 92.1969 99.2546L98.0728 105.872Z" fill="white"/>
<path d="M98.0412 105.845V105.841L98.0339 105.832L98.0412 105.845ZM98.3387 108.613H98.7697C98.7145 108.219 98.7028 107.776 98.7028 107.339V101.329C98.7028 99.744 99.3717 99.5992 99.9376 99.5962H100.075V99.3146C99.5559 99.3175 99.0333 99.3668 98.5097 99.3668C97.9048 99.3668 97.3127 99.3175 96.7181 99.3146V99.5962H96.9516C97.3576 99.5992 98.1589 99.776 98.1589 100.895L98.1398 105.886L98.1151 105.91L98.0732 105.955L92.1969 99.3146C91.8053 99.3146 91.4192 99.3668 91.0231 99.3668C90.5329 99.3668 90.0394 99.3175 89.5607 99.3146V99.5962H89.6754C90.2965 99.5992 90.9334 100.066 90.9334 100.841V106.399C90.9334 107.459 90.633 108.132 89.6857 108.136H89.5607V108.415C90.1325 108.41 90.7201 108.363 91.3004 108.363C91.8516 108.363 92.4003 108.41 92.9471 108.415V108.136H92.7805C91.7398 108.136 91.4802 107.683 91.4773 106.531V100.944L98.3387 108.613ZM98.8377 108.729L98.2949 108.709L91.5949 101.241V106.531C91.6107 107.683 91.785 108.007 92.7805 108.021H93.0603V108.529H93.0037C92.4319 108.529 91.8648 108.475 91.3004 108.475C90.7098 108.475 90.0975 108.529 89.5055 108.529H89.443V108.021H89.6857C90.5576 108.017 90.8098 107.454 90.8187 106.399V100.841C90.8157 100.136 90.2428 99.7106 89.6754 99.7091H89.443V99.2002H89.5055C90.0078 99.2002 90.5256 99.2524 91.0231 99.2524C91.4122 99.2524 91.7935 99.2002 92.2363 99.216L98.0412 105.751V100.895C98.0397 99.8441 97.3344 99.715 96.9516 99.7091H96.6019V99.2002H96.66C97.2852 99.2002 97.893 99.2524 98.5097 99.2524C99.0466 99.2524 99.5893 99.2002 100.133 99.2002H100.19V99.7091H99.9376C99.3933 99.7224 98.8318 99.7746 98.8175 101.329V107.339C98.8175 107.798 98.8289 108.255 98.8958 108.663L98.9017 108.729H98.8377Z" fill="white"/>
<path d="M104.187 100.735H104.161L102.932 104.472H105.399L104.187 100.735ZM102.261 106.585C102.126 107.033 101.965 107.38 101.965 107.613C101.965 108.011 102.524 108.075 102.958 108.075H103.104V108.472C102.573 108.446 102.034 108.422 101.504 108.422C101.028 108.422 100.555 108.446 100.081 108.472V108.075H100.157C100.672 108.075 101.111 107.772 101.304 107.217L103.419 101.16C103.59 100.67 103.831 100.011 103.908 99.519C104.33 99.3756 104.86 99.1127 105.111 98.9531C105.151 98.9387 105.172 98.9284 105.215 98.9284C105.253 98.9284 105.281 98.9284 105.308 98.9663C105.347 99.0722 105.387 99.191 105.429 99.2969L107.856 106.203C108.014 106.665 108.174 107.155 108.343 107.551C108.503 107.92 108.781 108.075 109.217 108.075H109.294V108.472C108.702 108.446 108.107 108.422 107.475 108.422C106.829 108.422 106.167 108.446 105.495 108.472V108.075H105.64C105.942 108.075 106.457 108.026 106.457 107.695C106.457 107.522 106.34 107.165 106.19 106.743L105.677 105.211H102.679L102.261 106.585Z" fill="white"/>
<path d="M103.008 104.416H105.319L104.17 100.876L103.008 104.416ZM102.85 104.531L104.115 100.679H104.225L105.479 104.531H102.85ZM105.55 108.41C106.201 108.39 106.844 108.363 107.474 108.363C108.089 108.363 108.662 108.39 109.237 108.41V108.136H109.216C108.766 108.141 108.456 107.959 108.291 107.573C108.119 107.173 107.958 106.682 107.803 106.221L105.373 99.3149C105.332 99.209 105.292 99.0899 105.26 98.9957C105.247 98.9825 105.251 98.9825 105.239 98.9825H105.215C105.189 98.9825 105.173 98.9899 105.139 99.0002C104.884 99.1638 104.353 99.4252 103.961 99.5282C103.881 100.03 103.644 100.687 103.471 101.176L101.36 107.238C101.158 107.811 100.695 108.136 100.157 108.136H100.137V108.41C100.588 108.39 101.047 108.363 101.505 108.363C102.016 108.363 102.536 108.39 103.041 108.41V108.136H102.957C102.526 108.13 101.926 108.084 101.911 107.615C101.911 107.353 102.071 107.013 102.203 106.569L102.261 106.585L102.203 106.568L102.638 105.156H105.714L106.243 106.725C106.393 107.15 106.513 107.501 106.513 107.695C106.493 108.1 105.937 108.129 105.64 108.136H105.55V108.41ZM109.29 108.529C108.7 108.505 108.106 108.476 107.474 108.476C106.828 108.476 106.171 108.505 105.495 108.529L105.435 108.534V108.016H105.64C105.943 108.016 106.396 107.949 106.396 107.695C106.399 107.544 106.284 107.182 106.138 106.763L105.636 105.269H102.722L102.31 106.601C102.175 107.054 102.02 107.402 102.02 107.615C102.024 107.937 102.519 108.016 102.957 108.016H103.159V108.534L103.099 108.529C102.571 108.505 102.03 108.476 101.505 108.476C101.03 108.476 100.555 108.505 100.082 108.529L100.024 108.534V108.016H100.157C100.649 108.016 101.058 107.734 101.248 107.199L103.364 101.14C103.538 100.65 103.774 99.9923 103.889 99.4672C104.303 99.3238 104.832 99.0579 105.088 98.8987C105.126 98.8854 105.161 98.8667 105.215 98.8667C105.247 98.8652 105.319 98.8751 105.359 98.9465C105.399 99.0538 105.44 99.1712 105.479 99.2774L107.912 106.185C108.067 106.646 108.225 107.134 108.396 107.523C108.549 107.877 108.793 108.016 109.216 108.016H109.353V108.534L109.29 108.529Z" fill="white"/>
<path d="M109.878 99.9158C108.885 99.9158 108.847 100.154 108.649 101.117H108.251C108.305 100.749 108.371 100.378 108.41 99.9941C108.464 99.6256 108.49 99.2542 108.49 98.874H108.807C108.913 99.2701 109.243 99.2542 109.599 99.2542H116.412C116.768 99.2542 117.096 99.2425 117.123 98.8464L117.441 98.9016C117.39 99.2542 117.34 99.6124 117.296 99.9695C117.264 100.325 117.264 100.683 117.264 101.039L116.872 101.187C116.851 100.696 116.781 99.9158 115.897 99.9158H113.731V106.941C113.731 107.961 114.194 108.075 114.828 108.075H115.077V108.473C114.564 108.473 113.64 108.421 112.926 108.421C112.135 108.421 111.208 108.473 110.691 108.473V108.075H110.944C111.674 108.075 112.044 108.012 112.044 106.97V99.9158H109.878Z" fill="white"/>
<path d="M115.076 108.529C114.561 108.529 113.637 108.477 112.926 108.477C112.137 108.477 111.214 108.529 110.692 108.529H110.636V108.02H110.944C111.673 108.003 111.963 107.994 111.982 106.97V99.9721H109.876V99.8603H112.096V106.97C112.096 108.027 111.671 108.13 110.944 108.136H110.75V108.416C111.272 108.41 112.158 108.363 112.926 108.363C113.615 108.363 114.499 108.41 115.021 108.416L115.018 108.136H114.825C114.19 108.13 113.676 107.981 113.675 106.941V99.8603H115.896C116.786 99.8617 116.898 100.613 116.925 101.104L117.212 100.998C117.212 100.656 117.212 100.31 117.239 99.9636C117.276 99.6238 117.328 99.2859 117.374 98.9505L117.177 98.9145C117.113 99.2976 116.744 99.3193 116.411 99.3149H109.531C109.219 99.3164 108.884 99.2991 108.763 98.9273H108.547C108.543 99.2976 108.52 99.6499 108.466 100.004C108.43 100.368 108.366 100.715 108.317 101.06H108.601C108.775 100.143 108.887 99.8415 109.876 99.8603V99.9721C108.896 99.9897 108.919 100.155 108.704 101.131L108.694 101.176H108.183L108.192 101.108C108.245 100.74 108.312 100.37 108.351 99.9897C108.405 99.6198 108.43 99.2524 108.43 98.8736V98.8159H108.848L108.859 98.8578C108.952 99.1917 109.196 99.1932 109.531 99.2002H116.411C116.777 99.1932 117.045 99.1873 117.067 98.8417L117.068 98.781L117.132 98.7927L117.508 98.8505L117.496 98.9071C117.44 99.2627 117.392 99.6198 117.353 99.9721C117.328 100.326 117.328 100.683 117.328 101.038V101.079L117.288 101.095L116.819 101.266V101.186C116.786 100.692 116.732 99.9721 115.896 99.9721H113.788V106.941C113.801 107.937 114.197 108.007 114.825 108.02H115.134V108.529H115.076Z" fill="white"/>
<path d="M117.928 108.075H118.112C118.591 108.075 119.09 108.012 119.09 107.323V100.407C119.09 99.7179 118.591 99.6554 118.112 99.6554H117.928V99.2535C118.443 99.2535 119.233 99.3087 119.881 99.3087C120.541 99.3087 121.333 99.2535 121.956 99.2535V99.6554H121.772C121.294 99.6554 120.79 99.7179 120.79 100.407V107.323C120.79 108.012 121.294 108.075 121.772 108.075H121.956V108.474C121.321 108.474 120.529 108.422 119.869 108.422C119.22 108.422 118.443 108.474 117.928 108.474V108.075Z" fill="white"/>
<path d="M121.895 108.415V108.136H121.772C121.298 108.136 120.736 108.052 120.736 107.324V100.406C120.736 99.6775 121.298 99.5962 121.772 99.5962H121.895V99.3149C121.286 99.3175 120.524 99.3671 119.88 99.3671C119.254 99.3671 118.496 99.3175 117.986 99.3149V99.5962H118.111C118.58 99.5962 119.146 99.6775 119.146 100.406V107.324C119.146 108.052 118.58 108.136 118.111 108.136H117.986V108.415C118.496 108.407 119.241 108.363 119.869 108.363C120.51 108.363 121.275 108.41 121.895 108.415ZM121.956 108.529C121.318 108.529 120.527 108.476 119.869 108.476C119.223 108.476 118.442 108.529 117.927 108.529H117.872V108.022H118.111C118.59 108.013 119.027 107.969 119.029 107.324V100.406C119.027 99.7632 118.59 99.7179 118.111 99.708H117.872V99.2002H117.927C118.442 99.2002 119.236 99.2524 119.88 99.2524C120.541 99.2524 121.331 99.2002 121.956 99.2002H122.01V99.708H121.772C121.289 99.7179 120.854 99.7632 120.85 100.406V107.324C120.854 107.969 121.289 108.013 121.772 108.022H122.01V108.529H121.956Z" fill="white"/>
<path d="M127.42 108.09C129.985 108.09 130.428 105.831 130.428 103.907C130.428 101.977 129.389 99.6407 127.196 99.6407C124.886 99.6407 124.2 101.699 124.2 103.467C124.2 105.831 125.283 108.09 127.42 108.09ZM127.223 99.0586C130.036 99.0586 132.28 100.803 132.28 103.616C132.28 106.653 130.103 108.671 127.289 108.671C124.486 108.671 122.353 106.772 122.353 103.93C122.353 101.187 124.478 99.0586 127.223 99.0586Z" fill="white"/>
<path d="M124.14 103.467C124.145 101.691 124.841 99.5812 127.196 99.5812C129.44 99.5852 130.485 101.966 130.487 103.907C130.485 105.831 130.031 108.146 127.419 108.146V108.034C129.934 108.032 130.367 105.831 130.373 103.907C130.373 101.992 129.342 99.6999 127.196 99.697C124.931 99.6999 124.261 101.71 124.256 103.467C124.259 105.821 125.331 108.028 127.419 108.034V108.146C125.23 108.143 124.145 105.844 124.14 103.467ZM122.292 103.931C122.299 101.154 124.448 99.0049 127.222 98.999V99.1167C124.504 99.1167 122.404 101.215 122.404 103.931C122.408 106.738 124.516 108.611 127.289 108.613C130.073 108.611 132.219 106.621 132.226 103.613C132.225 100.836 130.014 99.1197 127.222 99.1167V98.999C130.057 99.0049 132.33 100.766 132.335 103.613C132.333 106.682 130.13 108.723 127.289 108.729C124.465 108.723 122.299 106.799 122.292 103.931Z" fill="white"/>
<path d="M141.18 105.872L141.206 105.846V100.894C141.206 99.8117 140.453 99.6547 140.052 99.6547H139.768V99.2546C140.385 99.2546 140.996 99.3083 141.614 99.3083C142.159 99.3083 142.699 99.2546 143.239 99.2546V99.6547H143.041C142.485 99.6547 141.863 99.758 141.863 101.329V107.339C141.863 107.8 141.879 108.261 141.945 108.671H141.441L134.642 101.093V106.53C134.642 107.683 134.866 108.074 135.884 108.074H136.108V108.473C135.54 108.473 134.974 108.421 134.404 108.421C133.811 108.421 133.201 108.473 132.607 108.473V108.074H132.794C133.708 108.074 133.979 107.458 133.979 106.4V100.84C133.979 100.1 133.376 99.6547 132.778 99.6547H132.607V99.2546C133.11 99.2546 133.624 99.3083 134.127 99.3083C134.522 99.3083 134.905 99.2546 135.301 99.2546L141.18 105.872Z" fill="white"/>
<path d="M141.146 105.845V105.841L141.134 105.832L141.146 105.845ZM141.441 108.613H141.877C141.819 108.217 141.808 107.776 141.808 107.339V101.329C141.808 99.7426 142.475 99.5992 143.041 99.5962H143.183V99.3146C142.659 99.3175 142.138 99.3668 141.61 99.3668C141.013 99.3668 140.422 99.3175 139.823 99.3146V99.5962H140.052C140.464 99.5992 141.261 99.779 141.261 100.895L141.245 105.886L141.221 105.91L141.179 105.955L135.3 99.3146C134.912 99.3146 134.526 99.3668 134.127 99.3668C133.639 99.3668 133.141 99.3175 132.664 99.3146V99.5962H132.777C133.4 99.5992 134.038 100.066 134.038 100.841V106.401C134.038 107.459 133.744 108.132 132.793 108.136H132.664V108.415C133.237 108.41 133.823 108.363 134.405 108.363C134.957 108.363 135.505 108.41 136.051 108.415V108.136H135.879C134.843 108.136 134.585 107.683 134.585 106.531V100.944L141.441 108.613ZM141.944 108.729L141.397 108.709L134.697 101.241V106.531C134.713 107.683 134.888 108.005 135.879 108.017H136.167V108.529H136.109C135.537 108.529 134.97 108.478 134.405 108.478C133.813 108.478 133.207 108.529 132.606 108.529H132.553V108.017H132.793C133.664 108.014 133.915 107.454 133.922 106.401V100.841C133.922 100.136 133.348 99.7106 132.777 99.7091H132.553V99.2002H132.606C133.113 99.2002 133.628 99.2524 134.127 99.2524C134.517 99.2524 134.897 99.2002 135.347 99.2204L141.146 105.751V100.895C141.143 99.8441 140.443 99.7179 140.052 99.7091H139.709V99.2002H139.766C140.387 99.2002 140.999 99.2524 141.61 99.2524C142.154 99.2524 142.69 99.2002 143.238 99.2002H143.295V99.7091H143.041C142.498 99.7253 141.935 99.7746 141.923 101.329V107.339C141.923 107.798 141.935 108.259 141.996 108.663L142.008 108.729H141.944Z" fill="white"/>
<path d="M147.289 100.735H147.263L146.034 104.472H148.508L147.289 100.735ZM145.361 106.585C145.231 107.033 145.072 107.38 145.072 107.613C145.072 108.011 145.63 108.075 146.06 108.075H146.208V108.472C145.679 108.446 145.139 108.422 144.609 108.422C144.129 108.422 143.658 108.446 143.186 108.472V108.075H143.259C143.776 108.075 144.215 107.772 144.411 107.217L146.526 101.16C146.697 100.67 146.934 100.011 147.012 99.519C147.434 99.3756 147.962 99.1127 148.213 98.9531C148.254 98.9387 148.281 98.9284 148.321 98.9284C148.358 98.9284 148.383 98.9284 148.412 98.9663C148.453 99.0722 148.491 99.191 148.534 99.2969L150.961 106.203C151.117 106.665 151.279 107.155 151.45 107.551C151.607 107.92 151.887 108.075 152.322 108.075H152.4V108.472C151.807 108.446 151.211 108.422 150.578 108.422C149.931 108.422 149.269 108.446 148.597 108.472V108.075H148.743C149.044 108.075 149.563 108.026 149.563 107.695C149.563 107.522 149.442 107.165 149.296 106.743L148.783 105.211H145.789L145.361 106.585Z" fill="white"/>
<path d="M146.115 104.413H148.427L147.275 100.879L146.115 104.413ZM145.954 104.526L147.227 100.679H147.333L148.58 104.526H145.954ZM148.654 108.412C149.305 108.39 149.95 108.363 150.58 108.363C151.192 108.363 151.767 108.39 152.341 108.41V108.136H152.321C151.874 108.136 151.56 107.959 151.396 107.573C151.22 107.173 151.063 106.682 150.906 106.221L148.478 99.3149C148.44 99.209 148.396 99.0899 148.364 99.0001C148.354 98.9825 148.354 98.9825 148.344 98.9825H148.321C148.293 98.9825 148.278 98.9898 148.244 99.0001C147.988 99.1612 147.462 99.4267 147.066 99.5282C146.987 100.03 146.746 100.687 146.578 101.176L144.463 107.238C144.261 107.811 143.804 108.136 143.26 108.136H143.238V108.41C143.695 108.39 144.151 108.363 144.611 108.363C145.121 108.363 145.641 108.39 146.153 108.41V108.136H146.06C145.632 108.13 145.03 108.084 145.014 107.614C145.017 107.353 145.181 107.015 145.31 106.569L145.361 106.585L145.31 106.568L145.743 105.156H148.824L149.351 106.725C149.499 107.15 149.616 107.501 149.616 107.695C149.597 108.1 149.043 108.129 148.74 108.136H148.654V108.412ZM152.398 108.529C151.803 108.506 151.206 108.477 150.58 108.477C149.934 108.477 149.272 108.506 148.599 108.529L148.541 108.534V108.022H148.74C149.047 108.022 149.503 107.949 149.506 107.695C149.507 107.544 149.39 107.183 149.239 106.763L148.738 105.269H145.824L145.418 106.601C145.285 107.055 145.126 107.402 145.13 107.614C145.13 107.937 145.625 108.022 146.06 108.022H146.263V108.534L146.204 108.529C145.677 108.506 145.135 108.477 144.611 108.477C144.135 108.477 143.662 108.506 143.186 108.529L143.128 108.534V108.022H143.26C143.752 108.016 144.165 107.733 144.357 107.199L146.471 101.14C146.639 100.65 146.877 99.9923 146.991 99.4672C147.408 99.3237 147.939 99.0579 148.193 98.8987C148.228 98.8854 148.269 98.8696 148.321 98.8696C148.354 98.8652 148.424 98.8751 148.466 98.9479C148.503 99.0524 148.542 99.1711 148.584 99.2774L151.015 106.185C151.172 106.646 151.331 107.134 151.504 107.526C151.659 107.877 151.895 108.016 152.321 108.022H152.456V108.534L152.398 108.529Z" fill="white"/>
<path d="M155.729 107.179C155.729 107.707 156.096 107.866 156.519 107.919C157.06 107.96 157.653 107.96 158.264 107.893C158.815 107.829 159.294 107.51 159.529 107.179C159.74 106.888 159.856 106.521 159.94 106.227H160.323C160.175 106.981 159.991 107.722 159.831 108.474C158.67 108.474 157.507 108.421 156.349 108.421C155.186 108.421 154.022 108.474 152.861 108.474V108.075H153.042C153.522 108.075 154.036 108.012 154.036 107.191V100.406C154.036 99.7172 153.522 99.6551 153.042 99.6551H152.861V99.2546C153.56 99.2546 154.248 99.3083 154.946 99.3083C155.621 99.3083 156.281 99.2546 156.955 99.2546V99.6551H156.623C156.123 99.6551 155.729 99.6679 155.729 100.369V107.179Z" fill="white"/>
<path d="M159.787 108.415C159.939 107.699 160.113 106.997 160.251 106.283H159.98C159.9 106.575 159.782 106.928 159.573 107.213C159.328 107.557 158.838 107.879 158.265 107.949C157.918 107.987 157.576 108.003 157.254 108.003C156.998 108.003 156.747 107.991 156.509 107.975C156.083 107.927 155.665 107.744 155.669 107.18V100.368C155.669 99.6323 156.132 99.5962 156.624 99.5962H156.897V99.3149C156.246 99.3175 155.602 99.3671 154.946 99.3671C154.26 99.3671 153.591 99.3175 152.917 99.3149V99.5962H153.043C153.516 99.5962 154.092 99.6775 154.092 100.404V107.19C154.092 108.045 153.517 108.136 153.043 108.136H152.917V108.415C154.055 108.412 155.201 108.363 156.35 108.363C157.496 108.363 158.64 108.412 159.787 108.415ZM159.832 108.529C158.668 108.529 157.507 108.477 156.35 108.477C155.186 108.477 154.022 108.529 152.859 108.529H152.805V108.022H153.043C153.522 108.01 153.978 107.975 153.982 107.19V100.404C153.978 99.7632 153.526 99.7179 153.043 99.708H152.805V99.2002H152.859C153.563 99.2002 154.249 99.2524 154.946 99.2524C155.618 99.2524 156.278 99.2002 156.956 99.2002H157.008V99.708H156.624C156.111 99.7224 155.793 99.6992 155.781 100.368V107.18C155.786 107.672 156.107 107.802 156.524 107.863C156.753 107.879 157.001 107.888 157.254 107.888C157.576 107.888 157.911 107.872 158.256 107.836C158.793 107.772 159.254 107.463 159.484 107.148C159.687 106.864 159.803 106.503 159.88 106.214L159.894 106.169H160.392L160.379 106.241C160.231 106.994 160.049 107.733 159.89 108.487L159.876 108.529H159.832Z" fill="white"/>
<path d="M159.94 100.276H160.102C160.282 100.276 160.365 100.141 160.365 99.9217C160.365 99.6996 160.233 99.6227 160.092 99.6227H159.94V100.276ZM159.47 101.01V100.94C159.638 100.917 159.671 100.924 159.671 100.815V99.7882C159.671 99.6415 159.656 99.5922 159.474 99.601V99.5286H160.188C160.429 99.5286 160.655 99.6473 160.655 99.8985C160.655 100.107 160.52 100.257 160.327 100.318L160.554 100.638C160.662 100.779 160.783 100.917 160.862 100.965V101.01H160.591C160.462 101.01 160.349 100.734 160.092 100.37H159.94V100.83C159.94 100.924 159.971 100.917 160.14 100.94V101.01H159.47ZM160.16 101.403C160.783 101.403 161.26 100.875 161.26 100.276C161.26 99.6764 160.792 99.141 160.16 99.141C159.534 99.141 159.058 99.6764 159.058 100.276C159.058 100.875 159.534 101.403 160.16 101.403ZM160.16 98.8828C160.956 98.8828 161.55 99.4951 161.55 100.276C161.55 101.056 160.956 101.661 160.16 101.661C159.367 101.661 158.769 101.056 158.769 100.276C158.769 99.4951 159.367 98.8828 160.16 98.8828Z" fill="white"/>
<path d="M77.729 52.2931C77.729 39.9415 87.7415 29.9294 100.094 29.9294C112.445 29.9294 122.458 39.9415 122.458 52.2931C122.458 64.6451 112.445 74.6573 100.094 74.6573C87.7415 74.6573 77.729 64.6451 77.729 52.2931Z" fill="#006699"/>
<path d="M113.619 51.8526C113.609 46.1249 110.03 41.2418 104.985 39.3072V64.3984C110.03 62.4608 113.609 57.5822 113.619 51.8526ZM95.3619 64.3925V39.3087C90.323 41.2506 86.7479 46.1278 86.735 51.8526C86.7479 57.5763 90.323 62.4549 95.3619 64.3925ZM100.176 30.6454C88.4641 30.6498 78.9745 40.1405 78.973 51.8526C78.9745 63.5637 88.4641 73.0529 100.176 73.0543C111.889 73.0529 121.381 63.5637 121.384 51.8526C121.381 40.1405 111.889 30.6498 100.176 30.6454ZM100.124 75.0574C87.3076 75.1169 76.7589 64.7349 76.7589 52.0946C76.7589 38.2816 87.3076 28.7269 100.124 28.7295H106.132C118.795 28.7269 130.355 38.2757 130.355 52.0946C130.355 64.729 118.795 75.0574 106.132 75.0574H100.124Z" fill="white"/>
<rect x="0.669922" y="0.5" width="209" height="135" rx="24.5" stroke="#D6DCE5"/>
</svg>
