<svg width="211" height="136" viewBox="0 0 211 136" fill="none" xmlns="http://www.w3.org/2000/svg">
<rect x="0.669922" y="0.5" width="209" height="135" rx="24.5" fill="#FEF3E9"/>
<path d="M73.8982 68.3426C73.8982 75.7489 79.715 81.4904 87.1966 81.4904C89.3133 81.4904 91.1226 81.0731 93.3573 80.023V74.2388C91.3933 76.2028 89.6532 76.9965 87.4245 76.9965C82.4748 76.9965 78.9619 73.4084 78.9619 68.306C78.9619 63.4702 82.5888 59.6541 87.1966 59.6541C89.5412 59.6541 91.316 60.4885 93.3573 62.4872V56.705C91.202 55.6121 89.4272 55.1582 87.3126 55.1582C79.8676 55.1582 73.8982 61.0177 73.8982 68.3426Z" fill="#251F1F"/>
<path d="M61.2856 62.2246C61.2856 63.5842 62.1526 64.3047 65.1017 65.3956C70.6926 67.441 72.3493 69.2524 72.3493 73.2557C72.3493 78.1322 68.7652 81.527 63.6587 81.527C59.9199 81.527 57.2008 80.0555 54.9356 76.7319L58.1106 73.675C59.2422 75.8629 61.1309 77.0352 63.4735 77.0352C65.6675 77.0352 67.2896 75.523 67.2896 73.4816C67.2896 72.4233 66.7971 71.5135 65.8161 70.8745C65.3215 70.5712 64.3426 70.1174 62.4192 69.4396C57.8033 67.7788 56.2198 66.0021 56.2198 62.5299C56.2198 58.4065 59.6208 55.3108 64.078 55.3108C66.8398 55.3108 69.3676 56.2552 71.4823 58.1053L68.9097 61.4716C67.6295 60.0367 66.4206 59.4302 64.947 59.4302C62.8283 59.4302 61.2856 60.6371 61.2856 62.2246Z" fill="#251F1F"/>
<path fill-rule="evenodd" clip-rule="evenodd" d="M32.3849 55.7281H25.1699V80.9226H32.3463C36.1603 80.9226 38.9181 80.023 41.336 78.0142C44.2098 75.635 45.9092 72.0489 45.9092 68.3426C45.9092 60.9078 40.353 55.7281 32.3849 55.7281ZM38.1244 74.656C36.5796 76.0481 34.5749 76.6567 31.3999 76.6567H30.081V59.9981H31.3999C34.5749 59.9981 36.5002 60.5639 38.1244 62.0354C39.8258 63.5476 40.8455 65.8922 40.8455 68.306C40.8455 70.7239 39.8258 73.1438 38.1244 74.656Z" fill="#251F1F"/>
<path d="M53.0856 55.7281H48.1705V80.9226H53.0856V55.7281Z" fill="#251F1F"/>
<path d="M125.604 55.7281L132.324 72.6493L139.13 55.7281H144.457L133.572 81.5698H130.928L120.237 55.7281H125.604Z" fill="#251F1F"/>
<path d="M146.679 80.9226H160.617V76.6567H151.59V69.8569H160.283V65.5889H151.59V59.9981H160.617V55.7281H146.679V80.9226Z" fill="#251F1F"/>
<path fill-rule="evenodd" clip-rule="evenodd" d="M171.157 55.7281C176.825 55.7281 180.078 58.4493 180.078 63.1649C180.078 67.0238 178.036 69.5557 174.334 70.3087L182.266 80.9226H176.223L169.421 70.8012H168.778V80.9226H163.871V55.7281H171.157ZM168.778 67.3271H170.217C173.355 67.3271 175.018 65.9634 175.018 63.4316C175.018 60.9791 173.355 59.6948 170.292 59.6948H168.778V67.3271Z" fill="#251F1F"/>
<path fill-rule="evenodd" clip-rule="evenodd" d="M183.994 57.049C183.994 56.6053 183.686 56.3631 183.151 56.3631H182.439V58.5856H182.968V57.7247L183.589 58.5856H184.238L183.507 57.6698C183.819 57.5843 183.994 57.3563 183.994 57.049ZM183.057 57.3523H182.968V56.7702H183.063C183.326 56.7702 183.462 56.8658 183.462 57.0572C183.462 57.2525 183.324 57.3523 183.057 57.3523Z" fill="#251F1F"/>
<path fill-rule="evenodd" clip-rule="evenodd" d="M181.321 57.4702C181.321 56.3936 182.18 55.5327 183.257 55.5327C184.307 55.5327 185.17 56.4099 185.17 57.4702C185.17 58.5367 184.307 59.4078 183.257 59.4078C182.188 59.4078 181.321 58.5448 181.321 57.4702ZM181.706 57.4723C181.706 58.3556 182.4 59.0618 183.249 59.0618C184.095 59.0618 184.783 58.3474 184.783 57.4723C184.783 56.6052 184.095 55.8807 183.249 55.8807C182.394 55.8807 181.706 56.589 181.706 57.4723Z" fill="#251F1F"/>
<g filter="url(#filter0_i_366_1189)">
<path d="M108.253 81.688C100.889 81.688 94.918 75.7166 94.918 68.353V68.335C94.918 64.6712 96.4015 61.3377 98.801 58.9383C98.801 58.9197 98.8196 58.9197 98.8196 58.9016C98.8377 58.9016 98.8377 58.8831 98.8562 58.8831C101.256 56.4836 104.59 55 108.253 55H108.272C115.635 55 121.606 60.9714 121.606 68.335V68.353C121.606 72.0168 120.122 75.3322 117.723 77.7502C117.723 77.7683 117.705 77.7683 117.705 77.7869C117.686 77.7869 117.686 77.8049 117.668 77.8049C115.25 80.2044 111.935 81.688 108.272 81.688H108.253Z" fill="url(#paint0_linear_366_1189)"/>
</g>
<rect x="0.669922" y="0.5" width="209" height="135" rx="24.5" stroke="#D6DCE5"/>
<defs>
<filter id="filter0_i_366_1189" x="94.918" y="55" width="27.6654" height="28.1539" filterUnits="userSpaceOnUse" color-interpolation-filters="sRGB">
<feFlood flood-opacity="0" result="BackgroundImageFix"/>
<feBlend mode="normal" in="SourceGraphic" in2="BackgroundImageFix" result="shape"/>
<feColorMatrix in="SourceAlpha" type="matrix" values="0 0 0 0 0 0 0 0 0 0 0 0 0 0 0 0 0 0 127 0" result="hardAlpha"/>
<feOffset dx="0.976924" dy="1.46539"/>
<feGaussianBlur stdDeviation="0.976924"/>
<feComposite in2="hardAlpha" operator="arithmetic" k2="-1" k3="1"/>
<feColorMatrix type="matrix" values="0 0 0 0 0 0 0 0 0 0 0 0 0 0 0 0 0 0 0.35 0"/>
<feBlend mode="normal" in2="shape" result="effect1_innerShadow_366_1189"/>
</filter>
<linearGradient id="paint0_linear_366_1189" x1="101.268" y1="55" x2="123.197" y2="73.5562" gradientUnits="userSpaceOnUse">
<stop stop-color="#EF3823"/>
<stop offset="0.489583" stop-color="#F04D22"/>
<stop offset="1" stop-color="#F7911D"/>
</linearGradient>
</defs>
</svg>
