<svg width="210" height="136" viewBox="0 0 210 136" fill="none" xmlns="http://www.w3.org/2000/svg">
<rect x="0.5" y="0.5" width="209" height="135" rx="24.5" fill="#EBF2FD"/>
<path d="M100.479 84.0593H95.8002V47.6559H108.203C111.346 47.6559 114.026 48.7037 116.219 50.7992C118.461 52.8947 119.582 55.4532 119.582 58.4746C119.582 61.5691 118.461 64.1276 116.219 66.1987C114.051 68.2699 111.37 69.2933 108.203 69.2933H100.479V84.0593ZM100.479 52.1393V64.8342H108.3C110.152 64.8342 111.711 64.2007 112.93 62.958C114.172 61.7153 114.806 60.2046 114.806 58.499C114.806 56.8177 114.172 55.3313 112.93 54.0886C111.711 52.7972 110.176 52.1637 108.3 52.1637H100.479V52.1393Z" fill="#3C4043"/>
<path d="M131.813 58.3284C135.273 58.3284 138.002 59.2543 140 61.1062C141.998 62.958 142.997 65.4921 142.997 68.7085V84.0593H138.538V80.5992H138.343C136.418 83.4501 133.835 84.8634 130.619 84.8634C127.866 84.8634 125.575 84.0593 123.723 82.4267C121.872 80.7942 120.946 78.7718 120.946 76.3351C120.946 73.7523 121.92 71.7055 123.87 70.1948C125.819 68.6597 128.426 67.9044 131.667 67.9044C134.445 67.9044 136.735 68.4161 138.514 69.4395V68.3673C138.514 66.7348 137.88 65.3703 136.589 64.225C135.297 63.0798 133.787 62.5194 132.057 62.5194C129.45 62.5194 127.378 63.6159 125.868 65.8332L121.75 63.2504C124.016 59.9609 127.378 58.3284 131.813 58.3284ZM125.77 76.4082C125.77 77.6265 126.282 78.6499 127.33 79.454C128.353 80.2581 129.571 80.6723 130.96 80.6723C132.934 80.6723 134.688 79.9413 136.223 78.4794C137.758 77.0174 138.538 75.3117 138.538 73.3381C137.076 72.1929 135.054 71.6081 132.447 71.6081C130.546 71.6081 128.962 72.071 127.695 72.9726C126.404 73.9229 125.77 75.0681 125.77 76.4082Z" fill="#3C4043"/>
<path d="M168.436 59.1327L152.841 95H148.017L153.816 82.4513L143.533 59.1327H148.626L156.033 77.0176H156.131L163.343 59.1327H168.436Z" fill="#3C4043"/>
<path d="M81.8698 66.3449C81.8698 64.8196 81.7333 63.3601 81.4799 61.9566H61.8699V69.9975L73.1637 69.9999C72.7056 72.6753 71.2315 74.956 68.9727 76.4765V81.6933H75.6953C79.6207 78.0603 81.8698 72.6899 81.8698 66.3449Z" fill="#4285F4"/>
<path d="M68.9751 76.4767C67.1038 77.7389 64.6939 78.4772 61.8748 78.4772C56.4289 78.4772 51.8091 74.8076 50.1546 69.8613H43.22V75.2413C46.6556 82.0591 53.7169 86.7374 61.8748 86.7374C67.5131 86.7374 72.2499 84.8831 75.6977 81.6911L68.9751 76.4767Z" fill="#34A853"/>
<path d="M49.5014 65.8697C49.5014 64.4809 49.7329 63.1383 50.1544 61.8761V56.496H43.2198C41.7992 59.3152 41 62.4974 41 65.8697C41 69.2421 41.8016 72.4243 43.2198 75.2435L50.1544 69.8634C49.7329 68.6012 49.5014 67.2586 49.5014 65.8697Z" fill="#FABB05"/>
<path d="M61.8748 53.2602C64.9522 53.2602 67.708 54.3201 69.8839 56.3913L75.8415 50.4386C72.2231 47.0687 67.5058 45 61.8748 45C53.7194 45 46.6554 49.6783 43.2198 56.496L50.1544 61.8761C51.8089 56.9297 56.4289 53.2602 61.8748 53.2602Z" fill="#E94235"/>
<rect x="0.5" y="0.5" width="209" height="135" rx="24.5" stroke="#D6DCE5"/>
</svg>
