<svg width="211" height="136" viewBox="0 0 211 136" fill="none" xmlns="http://www.w3.org/2000/svg">
<rect x="0.669922" y="0.5" width="209" height="135" rx="24.5" fill="#E7EBFA"/>
<path d="M155.658 92.4218C155.658 101.234 148.483 108.409 139.67 108.409H52.6821V45.0883C52.6821 36.2762 59.8577 29.1006 68.6698 29.1006H155.658V92.4218Z" fill="white"/>
<path d="M133.188 34.4512C126.893 34.4512 121.732 39.5496 121.732 45.9069V57.8032H137.908C138.286 57.8032 138.727 57.8032 139.041 57.8662C142.692 58.055 145.399 59.9433 145.399 63.2164C145.399 65.7971 143.573 68.0001 140.174 68.4407V68.5666C143.888 68.8184 146.721 70.8955 146.721 74.1056C146.721 77.5675 143.573 79.8335 139.419 79.8335H121.669V103.123H138.475C144.769 103.123 149.931 98.0242 149.931 91.6669V34.4512H133.188Z" fill="url(#paint0_linear_366_1201)"/>
<path d="M127.334 76.1828H133.943C134.038 76.1828 134.195 76.167 134.353 76.1513C134.51 76.1356 134.667 76.1198 134.762 76.1198C136.021 75.8681 137.091 74.7351 137.091 73.1615C137.091 71.6508 136.021 70.5179 134.762 70.2031C134.573 70.1402 134.195 70.1402 133.943 70.1402H127.334V76.1828Z" fill="url(#paint1_linear_366_1201)"/>
<path d="M133.943 61.2652C135.202 61.454 136.272 62.4611 136.272 63.9718C136.272 65.4824 135.202 66.4895 133.943 66.6783C133.88 66.7413 133.503 66.7413 133.314 66.7413H127.334V61.2023H133.314C133.418 61.2023 133.56 61.2213 133.688 61.2385C133.792 61.2525 133.887 61.2652 133.943 61.2652Z" fill="url(#paint2_linear_366_1201)"/>
<path d="M69.8659 34.4512C63.5715 34.4512 58.4101 39.5496 58.4101 45.9069V74.1686C61.6202 75.7421 64.9563 76.7492 68.2923 76.7492C72.2577 76.7492 74.3978 74.3574 74.3978 71.0843V57.7403H84.2171V71.0214C84.2171 76.1828 81.0069 80.4 70.1177 80.4C63.5086 80.4 58.3472 78.9523 58.3472 78.9523V103.06H75.1532C81.4475 103.06 86.6089 97.9612 86.6089 91.6039V34.4512H69.8659Z" fill="url(#paint3_linear_366_1201)"/>
<path d="M101.527 34.4512C95.2322 34.4512 90.0708 39.5496 90.0708 45.9069V60.8875C92.9662 58.4327 98.0017 56.8591 106.121 57.2367C110.465 57.4256 115.122 58.6215 115.122 58.6215V63.4682C112.793 62.2722 110.024 61.2022 106.436 60.9504C100.268 60.5098 96.554 63.5311 96.554 68.8184C96.554 74.1686 100.268 77.1899 106.436 76.6863C110.024 76.4345 112.793 75.3015 115.122 74.1686V79.0152C115.122 79.0152 110.528 80.2111 106.121 80.4C98.0017 80.7776 92.9662 79.204 90.0708 76.7492V103.186H106.877C113.171 103.186 118.333 98.0871 118.333 91.7298V34.4512H101.527Z" fill="url(#paint4_linear_366_1201)"/>
<rect x="0.669922" y="0.5" width="209" height="135" rx="24.5" stroke="#D6DCE5"/>
<defs>
<linearGradient id="paint0_linear_366_1201" x1="121.721" y1="63.9639" x2="150.007" y2="63.9639" gradientUnits="userSpaceOnUse">
<stop stop-color="#007940"/>
<stop offset="0.2285" stop-color="#00873F"/>
<stop offset="0.7433" stop-color="#40A737"/>
<stop offset="1" stop-color="#5CB531"/>
</linearGradient>
<linearGradient id="paint1_linear_366_1201" x1="121.721" y1="63.9639" x2="150.007" y2="63.9639" gradientUnits="userSpaceOnUse">
<stop stop-color="#007940"/>
<stop offset="0.2285" stop-color="#00873F"/>
<stop offset="0.7433" stop-color="#40A737"/>
<stop offset="1" stop-color="#5CB531"/>
</linearGradient>
<linearGradient id="paint2_linear_366_1201" x1="121.721" y1="63.9639" x2="150.007" y2="63.9639" gradientUnits="userSpaceOnUse">
<stop stop-color="#007940"/>
<stop offset="0.2285" stop-color="#00873F"/>
<stop offset="0.7433" stop-color="#40A737"/>
<stop offset="1" stop-color="#5CB531"/>
</linearGradient>
<linearGradient id="paint3_linear_366_1201" x1="58.3968" y1="68.7594" x2="87.1199" y2="68.7594" gradientUnits="userSpaceOnUse">
<stop stop-color="#1F286F"/>
<stop offset="0.4751" stop-color="#004E94"/>
<stop offset="0.8261" stop-color="#0066B1"/>
<stop offset="1" stop-color="#006FBC"/>
</linearGradient>
<linearGradient id="paint4_linear_366_1201" x1="89.9081" y1="68.7594" x2="117.805" y2="68.7594" gradientUnits="userSpaceOnUse">
<stop stop-color="#6C2C2F"/>
<stop offset="0.1735" stop-color="#882730"/>
<stop offset="0.5731" stop-color="#BE1833"/>
<stop offset="0.8585" stop-color="#DC0436"/>
<stop offset="1" stop-color="#E60039"/>
</linearGradient>
</defs>
</svg>
