<svg width="211" height="136" viewBox="0 0 211 136" fill="none" xmlns="http://www.w3.org/2000/svg">
<rect x="0.669922" y="0.5" width="209" height="135" rx="24.5" fill="#FFEFE5"/>
<path d="M120.111 41.483H89.4863V96.517H120.111V41.483Z" fill="#FF5F00"/>
<path d="M91.431 69C91.4261 63.6998 92.6272 58.468 94.9432 53.7006C97.2592 48.9333 100.63 44.7553 104.799 41.483C99.6357 37.4246 93.4348 34.9007 86.905 34.1999C80.3752 33.499 73.78 34.6495 67.8731 37.5197C61.9662 40.39 56.9861 44.8642 53.5018 50.4311C50.0176 55.9979 48.1699 62.4327 48.1699 69C48.1699 75.5673 50.0176 82.0021 53.5018 87.5689C56.9861 93.1358 61.9662 97.61 67.8731 100.48C73.78 103.351 80.3752 104.501 86.905 103.8C93.4348 103.099 99.6357 100.575 104.799 96.517C100.63 93.2447 97.2593 89.0667 94.9433 84.2993C92.6273 79.532 91.4262 74.3002 91.431 69Z" fill="#EB001B"/>
<path d="M161.426 69C161.426 75.5672 159.579 82.002 156.095 87.5688C152.611 93.1357 147.631 97.6099 141.724 100.48C135.817 103.35 129.222 104.501 122.692 103.8C116.163 103.099 109.962 100.575 104.799 96.517C108.965 93.2414 112.332 89.0627 114.648 84.2961C116.964 79.5295 118.167 74.2993 118.167 69C118.167 63.7007 116.964 58.4705 114.648 53.7039C112.332 48.9373 108.965 44.7586 104.799 41.483C109.962 37.4246 116.163 34.9007 122.692 34.1999C129.222 33.499 135.817 34.6495 141.724 37.5198C147.631 40.3901 152.611 44.8643 156.095 50.4312C159.579 55.998 161.426 62.4328 161.426 69Z" fill="#F79E1B"/>
<path d="M158.087 90.6881V89.5613H158.541V89.3318H157.384V89.5613H157.839V90.6881H158.087ZM160.333 90.6881V89.3296H159.979L159.571 90.264L159.163 89.3296H158.808V90.6881H159.058V89.6633L159.441 90.5468H159.7L160.083 89.6611V90.6881H160.333Z" fill="#F79E1B"/>
<rect x="0.669922" y="0.5" width="209" height="135" rx="24.5" stroke="#D6DCE5"/>
</svg>
