<svg width="211" height="136" viewBox="0 0 211 136" fill="none" xmlns="http://www.w3.org/2000/svg">
<rect x="0.669922" y="0.5" width="209" height="135" rx="24.5" fill="#E5F0F0"/>
<path d="M65.9751 29H97.6313C102.051 29 104.802 32.603 103.771 37.04L89.0299 100.316C87.9884 104.739 83.5662 108.342 79.1454 108.342H47.4877C43.067 108.342 40.3189 104.739 41.35 100.316L56.0981 37.04C57.1262 32.603 61.5455 29 65.9751 29Z" fill="#ED171F"/>
<path d="M94.9987 29H131.406C135.824 29 133.831 32.603 132.793 37.04L118.053 100.316C117.024 104.739 117.347 108.342 112.917 108.342H76.5128C72.0876 108.342 69.3469 104.739 70.3869 100.316L85.1202 37.04C86.1616 32.603 90.5794 29 94.9987 29Z" fill="#082F67"/>
<path d="M129.966 29H161.617C166.04 29 168.788 32.603 167.752 37.04L153.014 100.316C151.979 104.739 147.558 108.342 143.123 108.342H111.48C107.05 108.342 104.306 104.739 105.345 100.316L120.078 37.04C121.115 32.603 125.534 29 129.966 29Z" fill="#006A65"/>
<path fill-rule="evenodd" clip-rule="evenodd" d="M126.656 49.2302H127.981L128.232 49.2357C130.831 49.2919 133.013 49.3391 134.121 50.8555C134.542 51.4575 134.723 52.24 134.723 53.0226C134.723 53.6848 134.602 54.2868 134.482 54.7683C134 56.815 132.977 58.5607 131.412 59.7045C129.125 61.39 126.175 61.39 123.586 61.39H123.346C123.165 61.5104 122.984 61.7512 122.984 61.7512C122.984 61.8716 122.382 64.3397 122.382 64.3397C122.382 64.3397 121.66 67.7709 121.54 68.3127C121.058 68.2525 119.794 68.2525 116.844 68.3127C116.965 67.7107 119.914 55.6111 119.914 55.6111L121.118 49.8924L121.299 49.17C121.841 49.2302 123.225 49.2904 126.656 49.2302ZM127.559 58.019C128.643 57.5374 129.426 56.4538 129.727 55.1897C130.027 53.8052 129.606 52.7216 128.583 52.3003C128.523 52.3003 125.814 52.0595 125.814 52.0595L125.272 51.9993V52.2401L125.212 52.541L123.887 58.1996L123.827 58.5005H124.55C125.633 58.5005 126.717 58.4404 127.559 58.019Z" fill="white"/>
<path d="M69.5896 49.2901C69.4692 49.8319 67.3021 59.945 67.3021 59.945C66.8205 61.9917 66.4593 63.4364 65.3156 64.3996C64.6534 64.9414 63.8708 65.1821 62.9679 65.1821C61.5232 65.1821 60.6804 64.4598 60.56 63.1354L60.4998 62.6539L60.9212 59.8848C60.9212 59.8848 63.2087 50.6746 63.6301 49.4707C63.6301 49.4105 63.6903 49.3503 63.6903 49.3503C59.2357 49.4105 58.3929 49.3503 58.3929 49.2901C58.3929 49.4105 58.2725 49.9523 58.2725 49.9523L55.9248 60.3062L55.7442 61.2091L55.3831 64.0986C55.3831 64.9414 55.5636 65.6637 55.8646 66.2657C56.9482 68.1318 59.958 68.4328 61.7038 68.4328C63.931 68.4328 65.9778 67.9512 67.4225 67.1084C69.7894 65.723 70.44 63.5624 71.0203 61.6355L71.0945 61.3897L71.3353 60.3664C71.3353 60.3664 73.683 50.795 74.1044 49.5309V49.4105C73.3585 49.3967 72.7331 49.386 72.2084 49.3771C70.4466 49.3471 69.8215 49.3365 69.5896 49.2901Z" fill="white"/>
<path fill-rule="evenodd" clip-rule="evenodd" d="M134.843 75.7168L130.991 88.4184H132.014L131.633 89.7096L131.713 89.4416H132.797C133.098 89.4416 133.338 89.3212 133.579 89.2008C133.76 89.1406 133.94 89.0202 134.181 88.7192L137.01 84.7462H133.218L133.88 82.5791H138.214L138.816 80.5926H134.542L135.265 78.1245H147.184L146.461 80.5926H142.488L141.826 82.5791H145.859L145.197 84.7462H140.863L140.08 85.6492H141.826L142.247 88.4182C142.268 88.5186 142.281 88.5988 142.292 88.6657C142.314 88.7995 142.328 88.8797 142.368 88.96C142.428 89.0804 142.97 89.1406 143.271 89.1406H143.813L143.03 91.7893H140.743C140.47 91.7503 140.272 91.6356 140.086 91.5268C139.984 91.4677 139.885 91.4103 139.779 91.3679C139.539 91.2475 139.177 90.9465 139.057 90.4047L138.636 87.6357L136.649 90.3445C136.047 91.1873 135.204 91.8495 133.76 91.8495H130.991L131.225 91.067H130.208L129.967 91.9098H126.295L126.536 91.067H119.072L119.854 88.6592H120.577L125.272 73.1283H129.004L128.583 74.4526C128.583 74.4526 129.606 73.7303 130.509 73.4895C131.309 73.2896 135.177 73.1727 136.469 73.1388L136.468 73.1283H140.441L140.502 74.6333C140.502 74.874 140.682 74.9944 141.164 74.9944H142.007L141.284 77.4625H139.117C137.251 77.5829 136.529 76.8003 136.589 75.8974L136.521 74.3475L136.107 75.7168H134.843ZM124.369 88.4786H127.319L128.222 85.6493H125.212L124.369 88.4786ZM126.777 80.5326L125.754 83.9036C125.754 83.9036 126.897 83.3016 127.499 83.121C128.101 83.0006 129.064 82.8802 129.064 82.8802L129.787 80.5326H126.777ZM128.222 75.7168L127.258 78.9674C127.258 78.9674 128.342 78.4859 128.944 78.3053C129.546 78.1247 130.449 78.0645 130.449 78.0645L131.171 75.7168H128.222Z" fill="white"/>
<path d="M95.4142 78.7869H105.467L104.745 81.1948H100.712L100.11 83.2415H104.203L103.481 85.7096H99.3872L98.3639 89.0204C98.2435 89.3816 99.327 89.4418 99.7484 89.4418L101.795 89.1408L100.952 91.9099H96.3172C96.0314 91.9099 95.7832 91.8722 95.4833 91.8266C95.4042 91.8146 95.3216 91.802 95.2336 91.7895C94.8725 91.7293 94.6919 91.4885 94.5113 91.2477C94.4811 91.1975 94.4493 91.1505 94.418 91.1044C94.262 90.8747 94.1201 90.6655 94.2705 90.1642L95.5948 85.7698H93.3073L94.0297 83.2415H96.3172L96.9192 81.1948H94.6317L95.4142 78.7869Z" fill="white"/>
<path d="M106.25 74.4526H102.156L102.758 73.1283H98.6647L97.6414 74.9944C97.4006 75.4158 97.22 75.6566 97.0394 75.777C96.919 75.8372 96.618 75.8974 96.1365 75.8974H95.5947L94.8723 78.3053H96.6782C97.5812 78.3053 98.2434 78.0043 98.5443 77.8237C98.6588 77.7855 98.749 77.7655 98.8266 77.7483C98.9939 77.7112 99.1022 77.6872 99.2667 77.5227L99.8687 76.9809H105.527L106.25 74.4526Z" fill="white"/>
<path fill-rule="evenodd" clip-rule="evenodd" d="M108.056 73.1283H111.547L111.065 74.874C111.065 74.874 112.149 73.9711 112.932 73.6701C113.714 73.3691 115.46 73.1283 115.46 73.1283H121.118L119.192 79.5694C118.831 80.6529 118.47 81.3753 118.229 81.7365C117.988 82.0977 117.747 82.3385 117.266 82.6395C116.784 82.8802 116.363 83.0608 115.941 83.0608C115.58 83.121 114.979 83.121 114.196 83.121H108.718L107.153 88.2378C107.125 88.3502 107.096 88.4494 107.071 88.5379C106.989 88.8284 106.94 89.0023 107.032 89.1407C107.092 89.2611 107.273 89.3815 107.574 89.3815L109.982 89.1407L109.139 91.97H106.43C105.588 91.97 104.925 91.97 104.504 91.9098C104.386 91.8929 104.267 91.8855 104.152 91.8782C103.856 91.8597 103.577 91.8422 103.36 91.669C103.327 91.6357 103.291 91.6013 103.255 91.5658C103.027 91.345 102.758 91.0855 102.758 90.8263C102.758 90.5434 102.865 90.1541 103.027 89.5585L103.059 89.4417L108.056 73.1283ZM110.102 78.6062C110.102 78.6062 111.246 77.5829 113.172 77.2217C113.594 77.1615 116.363 77.1615 116.363 77.1615L116.784 75.777H110.945L110.102 78.6062ZM115.52 79.6296H109.741L109.38 80.7733H114.376C114.858 80.7252 115.031 80.7541 115.112 80.7676C115.132 80.7709 115.147 80.7733 115.159 80.7733L115.52 79.6296Z" fill="white"/>
<path d="M117.988 85.1072L118.289 83.5421H115.64L115.279 84.6257C115.219 84.8062 115.159 84.9266 115.038 84.9868C114.918 85.047 114.677 85.1072 114.436 85.1072H113.593L113.654 83.7227H110.222L110.102 90.525C110.102 91.0066 110.162 91.3075 110.523 91.5483C110.885 91.8493 111.968 91.9095 113.473 91.9095H115.64L116.423 89.321L114.557 89.4414L113.955 89.5016C113.93 89.4767 113.905 89.4621 113.876 89.445C113.834 89.4208 113.784 89.3916 113.714 89.321C113.698 89.289 113.678 89.2698 113.656 89.2497C113.598 89.1943 113.533 89.1328 113.533 88.7793V87.0335L115.46 86.9132C116.483 86.9132 116.964 86.552 117.326 86.251C117.747 85.95 117.867 85.5888 117.988 85.1072Z" fill="white"/>
<path d="M78.6794 68.3126C80.5455 68.2524 81.1475 68.2524 82.7126 68.2524L82.8932 68.0718C83.0844 66.7812 83.1997 66.2118 83.4802 64.8263C83.5529 64.4671 83.6368 64.0529 83.7359 63.5571L83.9767 62.4735L83.9932 62.3972C84.4638 60.2213 84.6949 59.1523 84.3379 58.2597C83.9165 57.2364 82.9534 56.9956 82.1106 56.9956C81.5086 56.9956 80.4853 57.116 79.5221 57.5975C79.3716 57.6878 79.2061 57.7781 79.0406 57.8684C78.875 57.9587 78.7095 58.049 78.559 58.1393L78.86 57.0558L78.6794 56.8752C76.7423 57.2861 76.2362 57.3535 74.5378 57.5799L74.4054 57.5975L74.285 57.7179L74.2801 57.7536C74.0417 59.4818 73.8583 60.8118 73.081 64.2794C72.9305 64.9115 72.7801 65.5586 72.6296 66.2057C72.4791 66.8526 72.3285 67.5002 72.1781 68.132L72.2383 68.3126C74.1044 68.2524 74.7064 68.2524 76.3317 68.2524L76.4521 68.132C76.5518 67.6832 76.6102 67.379 76.6787 67.0226C76.7755 66.5186 76.8924 65.91 77.1744 64.6406C77.2514 64.2941 77.3469 63.8306 77.449 63.3348C77.6663 62.2803 77.9136 61.0795 78.0774 60.5472C78.4988 60.3666 78.9202 60.186 79.2813 60.186C80.1843 60.186 80.1241 61.0288 80.0639 61.3298C80.0037 61.8715 79.7027 63.6173 79.3415 65.1222L79.1008 66.0853C79.0006 66.6861 78.8588 67.2453 78.7101 67.8321C78.68 67.9508 78.6496 68.0707 78.6192 68.1922L78.6794 68.3126Z" fill="white"/>
<path d="M89.1534 68.2523H86.9864C86.7106 68.2523 86.4349 68.265 86.1361 68.2787C85.7825 68.2949 85.3964 68.3125 84.9396 68.3125L84.8193 68.1921C85.06 67.2892 85.1804 66.928 85.3008 66.627C85.4212 66.326 85.5416 65.9648 85.7222 65.0619C86.0232 63.858 86.2038 63.0152 86.3242 62.2326C86.3844 61.8715 86.4295 61.5404 86.4747 61.2093C86.5198 60.8782 86.565 60.5471 86.6252 60.1859L86.7456 60.0655C87.2054 60.0081 87.5829 59.9506 87.9174 59.8997C88.2835 59.8439 88.5981 59.796 88.9127 59.7646C89.5146 59.7044 90.1768 59.584 91.14 59.3432L91.2001 59.4034V59.4636C91.1098 59.8549 91.0195 60.2312 90.9292 60.6074C90.8389 60.9836 90.7487 61.3598 90.6584 61.7511C90.5681 62.1424 90.4778 62.5187 90.3875 62.8949C90.2972 63.2711 90.2069 63.6473 90.1166 64.0386C89.7554 65.6639 89.635 66.2056 89.5146 66.6872C89.4864 66.8846 89.4582 67.0423 89.4239 67.2347C89.3848 67.453 89.3378 67.7159 89.2738 68.1319L89.1534 68.2523Z" fill="white"/>
<path fill-rule="evenodd" clip-rule="evenodd" d="M102.999 58.5003C103.541 59.2227 103.962 60.3665 103.42 62.7743C103.24 63.4967 102.758 65.3026 101.735 66.4464C100.35 67.9513 98.4843 68.4329 96.6784 68.4329C95.956 68.4329 94.8725 68.3125 94.0899 68.0115C91.6218 66.9881 91.983 64.3395 92.3442 62.8345C92.6452 61.3898 93.2471 59.8849 94.4511 58.7411C96.1366 57.176 98.3037 57.1158 99.2067 57.1158C100.712 57.1158 102.156 57.4168 102.999 58.5003ZM99.1913 62.946C99.2217 62.8245 99.2468 62.7242 99.2669 62.6539C99.6882 60.7878 99.628 59.5839 98.6047 59.7043C97.3406 59.7043 96.859 61.2092 96.4376 63.0753C96.42 63.1718 96.4025 63.2658 96.3853 63.3577C96.2847 63.8965 96.1968 64.3671 96.1968 64.8812C96.1968 66.025 96.9794 66.025 97.0998 66.025C97.5813 66.025 97.9425 65.724 98.3037 65.2424C98.7552 64.6906 99.0394 63.5536 99.1913 62.946Z" fill="white"/>
<path fill-rule="evenodd" clip-rule="evenodd" d="M142.187 68.433C140.261 68.433 139.719 68.433 137.913 68.4932L137.793 68.3728L137.985 67.6519C137.33 68.1999 136.624 68.5766 135.867 68.6135C135.205 68.6135 134.482 68.4931 133.7 68.1922C131.232 67.229 131.593 64.5201 131.954 63.0754C132.255 61.6307 132.857 60.1258 134.061 58.982C135.807 57.4771 137.793 57.0557 138.636 57.3567C139.26 57.5996 139.68 57.9825 139.974 58.4349L140.02 58.0791L140.141 57.9587C140.536 57.8968 140.871 57.8451 141.171 57.7989C142.328 57.6203 142.957 57.5232 144.535 57.2363L144.595 57.4169L143.512 61.9317C142.947 64.3773 142.677 65.9043 142.442 67.2304L142.441 67.2344C142.376 67.6042 142.313 67.9584 142.247 68.3126L142.187 68.433ZM139.485 61.4557C139.47 60.4213 139.014 59.8248 138.275 59.8248C137.011 59.8248 136.529 61.3899 136.108 63.1958L136.075 63.3765C135.966 63.9679 135.867 64.5096 135.867 65.0017C135.867 66.1455 136.649 66.1455 136.77 66.1455C137.251 66.1455 138.034 65.9047 138.335 65.4231C138.517 65.1726 138.682 64.7929 138.823 64.398C138.945 63.9006 139.063 63.3999 139.177 62.8949C139.3 62.3513 139.4 61.8782 139.485 61.4557Z" fill="white"/>
<path d="M114.256 68.2524C112.63 68.2524 112.089 68.2524 110.283 68.3126L110.223 68.1922C110.253 68.0707 110.283 67.9509 110.313 67.8323C110.462 67.2454 110.604 66.6862 110.704 66.0853L110.945 65.1222C111.306 63.6173 111.607 61.8715 111.667 61.3298C111.727 61.0288 111.788 60.186 110.885 60.186C110.524 60.186 110.102 60.3666 109.681 60.5472C109.517 61.0795 109.27 62.2802 109.052 63.3347C108.95 63.8305 108.855 64.2941 108.778 64.6406C108.398 66.3483 108.318 66.8598 108.212 67.5301C108.184 67.7104 108.154 67.9023 108.116 68.132L107.995 68.2524C106.37 68.2524 105.768 68.2524 103.902 68.3126L103.842 68.132C103.992 67.5 104.143 66.8528 104.293 66.2057C104.444 65.5586 104.594 64.9115 104.745 64.2794C105.522 60.8118 105.705 59.4818 105.944 57.7536L105.949 57.7179L106.069 57.5975L106.201 57.5799C107.9 57.3535 108.406 57.2861 110.343 56.8752L110.524 57.0558L110.223 58.1393C110.373 58.049 110.539 57.9587 110.704 57.8684C110.87 57.7781 111.035 57.6878 111.186 57.5975C112.149 57.116 113.172 56.9956 113.714 56.9956C114.557 56.9956 115.52 57.2364 115.941 58.2597C116.298 59.1523 116.067 60.2213 115.597 62.3971L115.58 62.4735L115.339 63.5571C114.907 65.4769 114.782 66.1722 114.596 67.1989C114.548 67.46 114.497 67.7424 114.436 68.0718L114.256 68.2524Z" fill="white"/>
<path d="M157.899 57.2361L157.718 57.0556C155.731 57.4769 155.431 57.5371 153.625 57.7779L153.504 57.8983V57.9585C152.797 59.5984 152.467 60.1734 152.149 60.7294C151.871 61.2143 151.601 61.6848 151.096 62.8345V62.5335L150.856 57.2361L150.675 57.0556C150.199 57.1535 149.831 57.2319 149.522 57.2976C148.503 57.5147 148.134 57.5931 146.702 57.7779L146.582 57.8983C146.582 57.9585 146.582 58.0187 146.521 58.0789C146.702 58.9835 146.713 59.0725 146.81 59.8524C146.842 60.1105 146.883 60.4442 146.943 60.9082C147.003 61.3897 147.063 61.8563 147.123 62.3228C147.184 62.7893 147.244 63.2559 147.304 63.7374C147.368 64.2896 147.424 64.7369 147.48 65.1877C147.584 66.0146 147.69 66.8532 147.846 68.3726C147.364 69.1748 147.023 69.7938 146.714 70.3524C146.213 71.2609 145.799 72.0099 145.016 73.1282L145.077 73.3088C146.943 73.2486 147.364 73.2486 148.749 73.2486L149.05 72.8874C150.013 70.7805 157.899 57.2361 157.899 57.2361Z" fill="white"/>
<path d="M91.2004 56.2729C92.1034 56.7545 91.983 57.7778 90.8994 58.5002C89.8159 59.2226 88.2508 59.4032 87.3478 58.9216C86.4448 58.3798 86.5652 57.3565 87.6488 56.6341C88.7323 55.9117 90.2975 55.7312 91.2004 56.2729Z" fill="white"/>
<rect x="0.669922" y="0.5" width="209" height="135" rx="24.5" stroke="#D6DCE5"/>
</svg>
