<svg width="211" height="136" viewBox="0 0 211 136" fill="none" xmlns="http://www.w3.org/2000/svg">
<rect x="0.669922" y="0.5" width="209" height="135" rx="24.5" fill="#1434CB"/>
<path d="M103.898 46.1627L94.1962 91.514H82.4647L92.168 46.1627H103.898ZM153.257 75.4462L159.433 58.4152L162.987 75.4462H153.257ZM166.346 91.514H177.198L167.729 46.1627H157.712C155.462 46.1627 153.563 47.4717 152.717 49.4899L135.116 91.514H147.436L149.882 84.7418H164.934L166.346 91.514ZM135.728 76.7064C135.778 64.7367 119.175 64.0778 119.29 58.731C119.324 57.1018 120.876 55.3736 124.265 54.9301C125.949 54.7104 130.578 54.5425 135.834 56.9611L137.892 47.344C135.069 46.3191 131.436 45.333 126.917 45.333C115.322 45.333 107.161 51.498 107.092 60.3257C107.019 66.8539 112.918 70.4969 117.363 72.6672C121.934 74.8907 123.47 76.3146 123.45 78.3026C123.419 81.3471 119.804 82.6877 116.43 82.7408C110.531 82.8341 107.108 81.149 104.379 79.8772L102.253 89.8145C104.993 91.0733 110.053 92.1671 115.302 92.223C127.625 92.223 135.688 86.1341 135.728 76.7064ZM87.1341 46.1627L68.1266 91.514H55.7234L46.3704 55.3205C45.8019 53.0913 45.3082 52.276 43.5814 51.3358C40.7637 49.8071 36.1059 48.3703 32.0078 47.4804L32.2877 46.1627H52.2497C54.7932 46.1627 57.0827 47.8564 57.6597 50.7861L62.6003 77.0308L74.8084 46.1627H87.1341Z" fill="white"/>
<rect x="0.669922" y="0.5" width="209" height="135" rx="24.5" stroke="#D6DCE5"/>
</svg>
